<?xml version="1.0" standalone="no"?>
<!DOCTYPE svg PUBLIC "-//W3C//DTD SVG 1.1//EN" "http://www.w3.org/Graphics/SVG/1.1/DTD/svg11.dtd" >
<svg xmlns="http://www.w3.org/2000/svg" xmlns:xlink="http://www.w3.org/1999/xlink" version="1.1">
<metadata>
Created by FontForge 20170731 at Mon Sep  3 18:43:26 2018
 By Aleksey,,,
Copyright (c) 2012 by Svet Simov. All rights reserved.
</metadata>
<defs>
<font id="KelsonSans-Normal" horiz-adv-x="538" >
  <font-face 
    font-family="Kelson Sans Normal"
    font-weight="400"
    font-stretch="normal"
    units-per-em="1000"
    panose-1="0 0 5 0 0 0 0 0 0 0"
    ascent="750"
    descent="-250"
    x-height="585"
    cap-height="771"
    bbox="-203 -247 1109 1004"
    underline-thickness="50"
    underline-position="-250"
    unicode-range="U+000D-FB02"
  />
<missing-glyph horiz-adv-x="628" 
d="M42 773h538v-773h-538v773zM481 485v2q0 182 -161 182q-52 0 -86.5 -13.5t-50 -39t-21 -51t-5.5 -61.5h71q0 54 19.5 75t70.5 21q47 0 67 -25.5t21 -89.5v-1q0 -34 -11 -56.5t-27 -32t-35.5 -21.5t-35.5 -24.5t-27 -41t-11 -71.5h72q0 39 15.5 62t37.5 34.5t44 25
t37.5 44.5t15.5 82zM250 145q0 -28 22.5 -39t45 1t22.5 38q0 28 -22.5 39t-45 -0.5t-22.5 -38.5z" />
    <glyph glyph-name="fi" unicode="fi" horiz-adv-x="543" 
d="M3 557h81v22q0 117 58 162t165 38v-87q-67 6 -97.5 -15.5t-30.5 -97.5v-20h293v-559h-95v472h-198v-472h-95v472h-81v85zM369 719q0 35 29 49.5t57.5 0.5t28.5 -50q0 -34 -29 -48.5t-57.5 -1t-28.5 49.5z" />
    <glyph glyph-name="fl" unicode="fl" horiz-adv-x="555" 
d="M59 563q0 117 63.5 171t173.5 44v-87q-71 7 -106.5 -20t-35.5 -108v-20h125v-88h-125v-455h-95v563zM372 771h93v-618q0 -34 13.5 -46.5t46.5 -12.5v-94q-88 0 -120.5 31t-32.5 121v619z" />
    <glyph glyph-name=".notdef" horiz-adv-x="628" 
d="M42 773h538v-773h-538v773zM481 485v2q0 182 -161 182q-52 0 -86.5 -13.5t-50 -39t-21 -51t-5.5 -61.5h71q0 54 19.5 75t70.5 21q47 0 67 -25.5t21 -89.5v-1q0 -34 -11 -56.5t-27 -32t-35.5 -21.5t-35.5 -24.5t-27 -41t-11 -71.5h72q0 39 15.5 62t37.5 34.5t44 25
t37.5 44.5t15.5 82zM250 145q0 -28 22.5 -39t45 1t22.5 38q0 28 -22.5 39t-45 -0.5t-22.5 -38.5z" />
    <glyph glyph-name=".null" horiz-adv-x="0" 
 />
    <glyph glyph-name="nonmarkingreturn" horiz-adv-x="333" 
 />
    <glyph glyph-name="CR" unicode="&#xd;" horiz-adv-x="268" 
 />
    <glyph glyph-name="space" unicode=" " horiz-adv-x="251" 
 />
    <glyph glyph-name="exclam" unicode="!" horiz-adv-x="228" 
d="M70 166v607h95v-607h-95zM60 45q0 26 17.5 41t40.5 15q24 0 40.5 -14.5t16.5 -41.5q0 -26 -17.5 -40.5t-41.5 -14.5q-23 0 -39.5 14.5t-16.5 40.5z" />
    <glyph glyph-name="quotedbl" unicode="&#x22;" horiz-adv-x="265" 
d="M38 585l-3 186h79l-3 -186h-73zM165 585l-3 186h79l-3 -186h-73z" />
    <glyph glyph-name="numbersign" unicode="#" horiz-adv-x="731" 
d="M106 520h124l62 251h83l-62 -251h175l62 251h83l-62 -251h135l-21 -84h-135l-33 -134h135l-21 -84h-134l-54 -218h-84l54 218h-175l-54 -218h-83l54 218h-123l21 84h123l33 134h-124zM259 302h175l33 134h-175z" />
    <glyph glyph-name="dollar" unicode="$" horiz-adv-x="552" 
d="M242 -105v103q-189 17 -198 206h103q4 -54 34 -84.5t99 -30.5h19q74 0 99.5 33t25.5 106q0 44 -11.5 71t-40.5 40t-49.5 16.5t-67.5 7.5q-2 0 -3 0.5t-3 0.5h-4q-37 3 -68.5 13.5t-61 32.5t-46.5 60.5t-17 91.5q0 100 45.5 154t144.5 62v97h89v-99q161 -21 170 -195h-99
q-4 53 -30 80.5t-93 27.5q-75 0 -101.5 -31t-26.5 -95q0 -16 3 -29t7 -23t13 -18.5t15.5 -14t20.5 -10t21.5 -7t26 -5t26 -3.5t29 -3t28.5 -3q181 -18 181 -214q0 -117 -45 -173t-146 -63v-102h-89z" />
    <glyph glyph-name="percent" unicode="%" horiz-adv-x="787" 
d="M530 779l-225 -793h-74l227 793h72zM176 395q-75 0 -110.5 36t-35.5 112v86q0 148 146 148q76 0 112 -36t36 -112v-86q0 -76 -36 -112t-112 -36zM176 468q38 0 52.5 19.5t14.5 59.5v80q0 40 -14 58.5t-53 18.5q-37 0 -51.5 -19t-14.5 -58v-80q0 -40 14.5 -59.5
t51.5 -19.5zM599 0q-75 0 -110.5 36t-35.5 112v86q0 148 146 148q76 0 112 -36t36 -112v-86q0 -76 -36 -112t-112 -36zM599 73q38 0 52.5 19.5t14.5 59.5v80q0 40 -14 58.5t-53 18.5q-37 0 -51.5 -19t-14.5 -58v-80q0 -40 14.5 -59.5t51.5 -19.5z" />
    <glyph glyph-name="ampersand" unicode="&#x26;" horiz-adv-x="611" 
d="M565 -11q-50 0 -78.5 17.5t-46.5 62.5q-56 -81 -154 -81q-110 0 -172 55t-61 173q0 131 120 196q-90 59 -90 161q0 93 56.5 151t147.5 58q98 0 151 -52.5t47 -149.5h-87q6 115 -111 115q-47 0 -79 -33t-32 -88q0 -47 32 -83t79 -36h295v-84h-93v-165q0 -118 78 -118z
M396 371h-110q-58 0 -98.5 -44.5t-40.5 -114.5q0 -40 13.5 -68.5t35.5 -42.5t44 -19.5t46 -5.5q47 0 78.5 39t31.5 92v164z" />
    <glyph glyph-name="quotesingle" unicode="'" horiz-adv-x="147" 
d="M38 585l-3 186h79l-3 -186h-73z" />
    <glyph glyph-name="parenleft" unicode="(" horiz-adv-x="258" 
d="M155 73q0 -53 16 -79t64 -26v-98q-177 0 -177 202v514q0 202 177 202v-98q-48 0 -64 -26t-16 -79v-512z" />
    <glyph glyph-name="parenright" unicode=")" horiz-adv-x="267" 
d="M111 585q0 53 -16 79t-64 26v98q177 0 177 -202v-514q0 -202 -177 -202v98q48 0 64 26t16 79v512z" />
    <glyph glyph-name="asterisk" unicode="*" horiz-adv-x="320" 
d="M221 509l-46 75l-21 1l-46 -75l-78 78l73 46l1 21l-75 46l79 79l45 -74l22 -2l46 76l79 -78l-75 -46l-1 -21l76 -47z" />
    <glyph glyph-name="plus" unicode="+" horiz-adv-x="453" 
d="M415 322h-148v-154h-87v154h-147v78h147v150h87v-150h148v-78z" />
    <glyph glyph-name="comma" unicode="," horiz-adv-x="189" 
d="M0 -103q39 29 49.5 63t10.5 96h83q0 -84 -25.5 -129.5t-87.5 -78.5z" />
    <glyph glyph-name="hyphen" unicode="-" horiz-adv-x="493" 
d="M437 257h-376v87h376v-87z" />
    <glyph glyph-name="period" unicode="." horiz-adv-x="201" 
d="M50 45q0 26 17.5 41t40.5 15q24 0 40.5 -14.5t16.5 -41.5q0 -26 -17.5 -40.5t-41.5 -14.5q-23 0 -39.5 14.5t-16.5 40.5z" />
    <glyph glyph-name="slash" unicode="/" horiz-adv-x="372" 
d="M329 771l-209 -771h-80l209 771h80z" />
    <glyph glyph-name="zero" unicode="0" horiz-adv-x="516" 
d="M264 -10q-113 0 -162.5 52t-49.5 171v358q0 210 212 210q204 0 204 -210v-358q0 -119 -48 -171t-156 -52zM264 77q56 0 82.5 30t26.5 106v358q0 75 -26 100.5t-83 25.5q-60 0 -88.5 -26t-28.5 -100v-358q0 -78 26 -107t91 -29z" />
    <glyph glyph-name="one" unicode="1" horiz-adv-x="379" 
d="M24 81h125v605h-98v85h193v-690h119v-81h-339v81z" />
    <glyph glyph-name="two" unicode="2" horiz-adv-x="514" 
d="M50 152q0 66 18 116.5t46.5 79.5t63.5 51t70 38.5t63.5 34t46.5 45t18 64.5q0 57 -28.5 85t-88.5 28q-115 0 -115 -129h-95q0 109 56.5 162.5t157.5 53.5q99 0 154 -49.5t55 -149.5q0 -56 -18 -96.5t-46.5 -63t-63 -40t-69.5 -34.5t-63.5 -39t-46.5 -61.5t-18 -94.5v-59
h319v-94h-416v152z" />
    <glyph glyph-name="three" unicode="3" horiz-adv-x="518" 
d="M133 212q0 -69 26.5 -99t89.5 -30q64 0 95 32t31 107q0 78 -37 115t-97 37h-55v84h55q46 2 88.5 39t42.5 88q0 53 -29.5 82.5t-85.5 29.5q-118 0 -118 -129h-90q0 105 53 159t156 54q91 0 148.5 -50.5t57.5 -146.5q0 -51 -25 -98.5t-78 -69.5q59 -23 86.5 -68.5
t27.5 -124.5q0 -110 -57.5 -171.5t-167.5 -61.5q-113 0 -161.5 54t-48.5 168h93z" />
    <glyph glyph-name="four" unicode="4" horiz-adv-x="547" 
d="M326 167h-314l-14 77l334 527h89v-517h68v-87h-68v-167h-95v167zM326 254v349l-217 -349h217z" />
    <glyph glyph-name="five" unicode="5" horiz-adv-x="519" 
d="M134 225q0 -143 121 -143q129 0 129 155v30q0 85 -25 113.5t-97 28.5h-209v362h401v-89h-308v-183h118q119 0 167 -52.5t48 -177.5v-33q0 -124 -60.5 -185t-163.5 -61t-159 54.5t-56 180.5h94z" />
    <glyph glyph-name="six" unicode="6" horiz-adv-x="546" 
d="M422 764q-173 -119 -223 -217q46 12 103 12q90 0 140.5 -50.5t50.5 -153.5v-142q0 -120 -50.5 -171.5t-168.5 -51.5t-168.5 51.5t-50.5 171.5v142q0 131 67 238t172 178h126zM274 81q67 0 95.5 27.5t28.5 104.5v142q0 70 -28.5 96t-95.5 26t-95.5 -26t-28.5 -96v-142
q0 -77 28.5 -104.5t95.5 -27.5z" />
    <glyph glyph-name="seven" unicode="7" horiz-adv-x="450" 
d="M429 748l-260 -748h-103l240 681h-293v90h416v-23z" />
    <glyph glyph-name="eight" unicode="8" horiz-adv-x="548" 
d="M269 -10q-117 0 -173 58t-56 181q0 84 21.5 129t66.5 70q-73 47 -73 151q0 95 57.5 148.5t156.5 53.5q102 0 156.5 -57.5t54.5 -146.5q0 -95 -73 -145q48 -26 69.5 -69.5t21.5 -128.5q0 -126 -56.5 -185t-172.5 -59zM150 576q0 -49 32.5 -76.5t85.5 -27.5q114 0 114 104
q0 113 -113 113q-59 0 -89 -30t-30 -83zM269 81q69 0 96 37t27 114q0 76 -27 116t-96 41q-69 -1 -96 -41t-27 -116q0 -77 27 -114t96 -37z" />
    <glyph glyph-name="nine" unicode="9" horiz-adv-x="546" 
d="M130 7q165 114 219 219q-46 -12 -103 -12q-90 0 -140.5 50.5t-50.5 153.5v140q0 120 50.5 171.5t168.5 51.5t168.5 -51.5t50.5 -171.5v-140q0 -132 -64 -240t-168 -178h-129zM274 690q-67 0 -95.5 -27.5t-28.5 -104.5v-140q0 -70 28.5 -96t95.5 -26t95.5 26t28.5 96v140
q0 77 -28.5 104.5t-95.5 27.5z" />
    <glyph glyph-name="colon" unicode=":" horiz-adv-x="209" 
d="M50 425q0 35 29 49.5t57.5 0.5t28.5 -50q0 -34 -28.5 -48.5t-57.5 -1t-29 49.5zM50 49q0 35 29 49.5t57.5 0.5t28.5 -50q0 -34 -28.5 -48.5t-57.5 -1t-29 49.5z" />
    <glyph glyph-name="semicolon" unicode=";" horiz-adv-x="223" 
d="M57 425q0 26 18 41t39.5 15.5t39.5 -14.5t18 -42q0 -34 -29 -48.5t-57.5 -1t-28.5 49.5zM14 -103q39 29 49.5 63t10.5 96h83q0 -84 -25.5 -129.5t-87.5 -78.5z" />
    <glyph glyph-name="less" unicode="&#x3c;" horiz-adv-x="384" 
d="M269 535l52 -56l-176 -163l179 -162l-55 -57l-219 205v28z" />
    <glyph glyph-name="equal" unicode="=" horiz-adv-x="570" 
d="M78 458h414v-77h-414v77zM78 247h414v-77h-414v77z" />
    <glyph glyph-name="greater" unicode="&#x3e;" horiz-adv-x="386" 
d="M336 330v-28l-220 -205l-54 54l179 165l-177 165l52 54z" />
    <glyph glyph-name="question" unicode="?" horiz-adv-x="490" 
d="M30 570q0 50 7 84t27.5 65t63.5 46.5t110 15.5q202 0 202 -232v-38q0 -47 -10.5 -83t-27.5 -57t-37 -38t-40.5 -32t-37.5 -31.5t-27.5 -44t-10.5 -63.5h-90q0 54 14 93t34.5 58.5t44.5 39t44.5 35.5t34.5 47t14 75v36q-1 80 -27 112.5t-85 32.5q-65 0 -88 -25t-23 -96
h-92zM153 45q0 26 17.5 41t40.5 15q24 0 40.5 -14.5t16.5 -41.5q0 -26 -17.5 -40.5t-41.5 -14.5q-23 0 -39.5 14.5t-16.5 40.5z" />
    <glyph glyph-name="at" unicode="@" horiz-adv-x="683" 
d="M257 678q-71 0 -95 -27.5t-24 -87.5v-356q0 -60 24 -87.5t95 -27.5h256v-93h-286q-58 0 -95 12t-55.5 37t-25 54t-6.5 74v367q0 65 8.5 105.5t33 70t68 42t113.5 12.5h144q70 0 114 -12.5t69 -42t34 -70t9 -105.5v-193q0 -92 -36.5 -124.5t-97.5 -32.5q-68 0 -94 61
q-13 -14 -21.5 -21t-28.5 -15t-45 -8q-58 0 -90 32t-32 92v120q0 58 41.5 90.5t100.5 32.5h141v-233q0 -24 1 -35.5t9 -22.5t24 -11q20 0 26.5 15.5t6.5 51.5v204q0 78 -23.5 105t-101.5 27h-161zM336 295q50 0 50 68v130h-51q-52 0 -52 -55v-83q0 -60 53 -60z" />
    <glyph glyph-name="A" unicode="A" horiz-adv-x="524" 
d="M417 0l-39 143h-231l-39 -143h-99l205 771h97l204 -771h-98zM262 645l-52 -251l-39 -161h182l-40 164z" />
    <glyph glyph-name="B" unicode="B" horiz-adv-x="573" 
d="M60 771h194q100 0 154.5 -54.5t54.5 -145.5q0 -85 -55 -141q63 -19 96 -69.5t33 -124.5q0 -236 -249 -236h-228v771zM155 682v-225h89q64 0 93 33t29 81q0 54 -31 82.5t-81 28.5h-99zM290 91q83 0 116.5 36.5t33.5 107.5q0 70 -38 100.5t-109 30.5h-136v-275h133z" />
    <glyph glyph-name="C" unicode="C" horiz-adv-x="590" 
d="M453 557q-1 75 -29 105t-119 30q-50 0 -80 -8.5t-45.5 -31.5t-20 -51.5t-4.5 -78.5v-272q0 -97 28.5 -133.5t121.5 -36.5q96 0 123 29t27 122h91q0 -43 -2.5 -70.5t-10 -58t-23.5 -48.5t-42.5 -34t-67 -23t-95.5 -7q-56 0 -96.5 7t-67.5 23.5t-43.5 36t-25 52t-11 64
t-2.5 78.5v270q0 68 9.5 112.5t36 80t75.5 51.5t125 16q74 0 121.5 -13.5t73.5 -43.5t35.5 -68.5t10.5 -98.5h-93z" />
    <glyph glyph-name="D" unicode="D" horiz-adv-x="601" 
d="M71 0v771h234q76 0 124.5 -16t74.5 -51t35 -79t9 -112v-254q0 -68 -9.5 -112.5t-36 -80t-76.5 -51.5t-128 -15h-227zM298 91q54 0 85 8t46 31t19 49.5t4 78.5v256q0 52 -4 78.5t-19 49.5t-46 31t-85 8h-132v-590h132z" />
    <glyph glyph-name="E" unicode="E" horiz-adv-x="521" 
d="M459 771v-84h-294v-231h266v-89h-266v-278h319v-89h-414v771h389z" />
    <glyph glyph-name="F" unicode="F" horiz-adv-x="515" 
d="M164 683v-236h277v-89h-277v-359h-95v772h414v-88h-319z" />
    <glyph glyph-name="G" unicode="G" horiz-adv-x="611" 
d="M461 565q-1 48 -12.5 74t-45 41t-96.5 15q-93 0 -123.5 -37.5t-30.5 -135.5v-273q0 -52 4 -79t19 -50.5t46 -32t85 -8.5q55 0 85 5.5t46 25t19.5 44.5t3.5 76v107h-150v86h246v-193q0 -51 -3.5 -83t-17.5 -65t-40.5 -51t-73.5 -29.5t-115 -11.5q-78 0 -128 16t-76.5 51.5
t-36 80t-9.5 112.5v271q0 68 9.5 112.5t36 80t76.5 51.5t128 16q100 0 153.5 -23.5t72.5 -67.5t21 -125h-93z" />
    <glyph glyph-name="H" unicode="H" horiz-adv-x="589" 
d="M425 0v323h-258v-323h-97v771h97v-357h258v357h95v-771h-95z" />
    <glyph glyph-name="I" unicode="I" horiz-adv-x="237" 
d="M70 0v771h97v-771h-97z" />
    <glyph glyph-name="J" unicode="J" horiz-adv-x="483" 
d="M215 -10q-120 0 -163.5 58t-43.5 179h90q0 -81 24.5 -113.5t94.5 -32.5q71 0 90.5 35.5t19.5 134.5v520h96v-519q0 -69 -8 -113.5t-29.5 -80t-63.5 -52t-107 -16.5z" />
    <glyph glyph-name="K" unicode="K" horiz-adv-x="564" 
d="M443 0l-246 332h-37v-332h-95v771h95v-340h37l230 340h112l-266 -386l287 -385h-117z" />
    <glyph glyph-name="L" unicode="L" horiz-adv-x="491" 
d="M70 0v771h96v-683h301v-88h-397z" />
    <glyph glyph-name="M" unicode="M" horiz-adv-x="629" 
d="M315 347l136 424h109v-771h-95v362l14 211l-141 -433h-46l-141 433l14 -211v-362h-95v771h109z" />
    <glyph glyph-name="N" unicode="N" horiz-adv-x="570" 
d="M420 181l-14 262v328h95v-771h-89l-254 554l6 -253v-301h-95v771h90z" />
    <glyph glyph-name="O" unicode="O" horiz-adv-x="621" 
d="M559 250q0 -68 -9.5 -112.5t-36 -80t-76.5 -51.5t-128 -16t-128 16t-76.5 51.5t-36 80t-9.5 112.5v271q0 68 9.5 112.5t36 80t76.5 51.5t128 16t128 -16t76.5 -51.5t36 -80t9.5 -112.5v-271zM463 522q0 42 -2 65.5t-10.5 47t-25 34.5t-45 18t-71.5 7t-71.5 -7t-45 -18
t-25 -34.5t-10.5 -47t-2 -65.5v-273q0 -52 4 -79t19 -50.5t46 -32t85 -8.5t85 8.5t46 32t19 50.5t4 79v273z" />
    <glyph glyph-name="P" unicode="P" 
d="M277 771q107 0 163 -48.5t56 -160.5v-84q0 -120 -50.5 -171.5t-168.5 -51.5h-112v-255h-95v771h207zM165 682v-336h112q67 0 95.5 27.5t28.5 104.5v84q0 74 -26.5 95t-97.5 25h-112z" />
    <glyph glyph-name="Q" unicode="Q" horiz-adv-x="619" 
d="M559 248q0 -111 -29.5 -170t-113.5 -79q4 -58 33 -85.5t101 -18.5v-85q-223 -18 -229 180h-12q-78 0 -128 15.5t-76.5 51t-36 79.5t-9.5 112v273q0 68 9.5 112.5t36 80t76.5 51.5t128 16t128 -16t76.5 -51.5t36 -80t9.5 -112.5v-273zM463 522q0 52 -4 79t-19 50.5t-46 32
t-85 8.5t-85 -8.5t-46 -32t-19 -50.5t-4 -79v-275q0 -52 4 -79t19 -50.5t46 -32t85 -8.5t85 8.5t46 32t19 50.5t4 79v275z" />
    <glyph glyph-name="R" unicode="R" horiz-adv-x="540" 
d="M496 508q0 -96 -33 -149t-111 -68l167 -291h-112l-155 285h-87v-285h-95v771h207q107 0 163 -48.5t56 -160.5v-54zM165 682v-306h112q67 0 95.5 27.5t28.5 104.5v54q0 74 -26.5 95t-97.5 25h-112z" />
    <glyph glyph-name="S" unicode="S" horiz-adv-x="567" 
d="M402 583q-4 53 -30 80.5t-93 27.5q-75 0 -101.5 -31t-26.5 -95q0 -29 10 -49.5t23 -31.5t40 -19t44 -10.5t53 -5.5q4 0 6.5 -0.5t6.5 -1t7 -0.5q78 -8 129.5 -58.5t51.5 -161.5q0 -125 -51.5 -181t-170.5 -56h-19q-226 0 -237 208h103q4 -54 34 -84.5t99 -30.5h19
q74 0 99.5 33t25.5 106q0 37 -10.5 62.5t-24 39.5t-41 23t-47 11.5t-56.5 5.5t-68.5 14t-61 33t-46.5 61t-17 92q0 110 54 163.5t173 53.5q112 0 164.5 -50t57.5 -148h-99z" />
    <glyph glyph-name="T" unicode="T" horiz-adv-x="431" 
d="M263 683v-683h-95v683h-160v88h415v-88h-160z" />
    <glyph glyph-name="U" unicode="U" horiz-adv-x="602" 
d="M440 772h96v-522q0 -133 -52.5 -196.5t-184.5 -63.5t-185.5 63.5t-53.5 196.5v521l96 1v-523q0 -96 28.5 -133t114.5 -37t113.5 37t27.5 133v523z" />
    <glyph glyph-name="V" unicode="V" horiz-adv-x="523" 
d="M262 147l77 340l77 284h98l-209 -771h-87l-209 771h98l77 -285z" />
    <glyph glyph-name="W" unicode="W" horiz-adv-x="816" 
d="M369 730h74l132 -572l56 288l74 325h98l-184 -771h-87l-65 258l-61 277l-61 -277l-65 -258h-87l-184 771h98l74 -325l56 -288z" />
    <glyph glyph-name="X" unicode="X" horiz-adv-x="488" 
d="M244 453l67 172l64 146h104l-169 -383l169 -388h-104l-42 95l-89 226l-88 -225l-43 -96h-104l169 388l-169 383h104l64 -145z" />
    <glyph glyph-name="Y" unicode="Y" horiz-adv-x="461" 
d="M231 430l68 192l62 149h103l-186 -448v-323h-95v323l-185 448h103l62 -149z" />
    <glyph glyph-name="Z" unicode="Z" horiz-adv-x="470" 
d="M149 87h297v-87h-432l308 687h-267v84h402z" />
    <glyph glyph-name="bracketleft" unicode="[" horiz-adv-x="332" 
d="M91 775h208v-75h-124v-733h124v-76h-208v884z" />
    <glyph glyph-name="backslash" unicode="\" horiz-adv-x="372" 
d="M125 771l209 -771h-80l-209 771h80z" />
    <glyph glyph-name="bracketright" unicode="]" horiz-adv-x="341" 
d="M250 -106h-208v76h124v733h-124v75h208v-884z" />
    <glyph glyph-name="asciicircum" unicode="^" horiz-adv-x="619" 
d="M55 432l-1 5l216 338h61l219 -338l-1 -5h-90l-158 252l-159 -252h-87z" />
    <glyph glyph-name="underscore" unicode="_" 
d="M35 -10h470v-80h-470v80z" />
    <glyph glyph-name="grave" unicode="`" horiz-adv-x="245" 
d="M99 816l-71 129v3h97l53 -127v-5h-79z" />
    <glyph glyph-name="a" unicode="a" horiz-adv-x="524" 
d="M461 0h-86l-8 74q-17 -35 -57.5 -59.5t-91.5 -24.5q-160 0 -174 140q-7 77 41.5 129t138.5 65q45 7 141 9v66q0 54 -24.5 81.5t-86.5 27.5q-45 0 -69 -21.5t-23 -76.5h-93q-3 95 45 140t143 45q100 0 152 -46.5t52 -149.5v-399zM367 254q-90 0 -135 -10
q-102 -22 -92 -102q5 -61 88 -61q134 0 139 173z" />
    <glyph glyph-name="b" unicode="b" horiz-adv-x="548" 
d="M493 213q0 -120 -50.5 -171.5t-168.5 -51.5t-168.5 51.5t-50.5 171.5v574h96v-251q40 59 138 59q107 0 155.5 -56.5t48.5 -168.5v-157zM150 213q-1 -76 29 -104t95 -28t94.5 28t29.5 104v155q0 79 -28.5 107.5t-95.5 28.5q-58 0 -90 -29t-33 -103z" />
    <glyph glyph-name="c" unicode="c" horiz-adv-x="528" 
d="M483 198q-1 -115 -50 -161.5t-164 -46.5t-167 52.5t-52 170.5v169q0 213 219 213q103 0 156.5 -44t57.5 -152l-90 -1q-3 65 -32.5 87t-91.5 22q-65 0 -94.5 -25t-29.5 -100v-169q0 -76 29.5 -104t94.5 -28q66 0 94.5 23t29.5 94h90z" />
    <glyph glyph-name="d" unicode="d" horiz-adv-x="566" 
d="M489 0h-80l-12 77q-14 -38 -54 -62.5t-91 -24.5q-198 0 -198 211v167q0 227 198 227q52 0 85 -10.5t56 -40.5v237h96v-781zM393 371q0 74 -27.5 103t-92.5 29t-94.5 -30.5t-29.5 -106.5v-166q0 -69 27.5 -95t89.5 -26q63 2 95 39.5t32 120.5v132z" />
    <glyph glyph-name="e" unicode="e" 
d="M483 166q0 -87 -51.5 -131.5t-162.5 -44.5q-117 0 -166.5 48.5t-49.5 165.5v182q0 110 55.5 159.5t160.5 49.5q216 0 216 -209v-132h-338v-48q0 -75 28 -101.5t94 -26.5q122 0 122 88h92zM147 337h247v49q0 72 -31.5 98.5t-93.5 26.5t-92 -26t-30 -99v-49z" />
    <glyph glyph-name="f" unicode="f" horiz-adv-x="320" 
d="M59 564q0 108 54.5 162.5t149.5 54.5q11 0 33 -2v-87q-71 7 -106.5 -20t-35.5 -108v-20h125v-88h-125v-456h-95v564z" />
    <glyph glyph-name="g" unicode="g" horiz-adv-x="532" 
d="M253 -10q-203 0 -203 201v193q0 211 198 211q52 0 91 -21t52 -59l12 70h79v-605q0 -115 -57 -169t-159 -54q-97 0 -148 40.5t-55 133.5h91q4 -49 32.5 -68t80.5 -19q62 0 94 30.5t32 105.5v89q-12 -32 -49 -55.5t-91 -23.5zM253 79q66 0 100 33.5t34 119.5v129
q0 78 -31 110.5t-94 34.5q-62 0 -89.5 -26t-27.5 -95v-183q0 -66 27 -94.5t81 -28.5z" />
    <glyph glyph-name="h" unicode="h" horiz-adv-x="540" 
d="M390 0v367q0 78 -26.5 107t-92.5 29q-61 0 -90.5 -31.5t-29.5 -100.5l-1 -371h-95v771h96v-236q41 60 133 60q108 0 154.5 -56.5t46.5 -169.5v-369h-95z" />
    <glyph glyph-name="i" unicode="i" horiz-adv-x="240" 
d="M63 725q0 26 17.5 41t40.5 15q24 0 40.5 -14.5t16.5 -41.5q0 -26 -17.5 -40.5t-41.5 -14.5q-23 0 -39.5 14.5t-16.5 40.5zM72 0v585h95v-585h-95z" />
    <glyph glyph-name="j" unicode="j" horiz-adv-x="242" 
d="M69 725q0 26 17.5 41t40.5 15q24 0 40.5 -14.5t16.5 -41.5q0 -26 -17.5 -40.5t-41.5 -14.5q-23 0 -39.5 14.5t-16.5 40.5zM173 -27q0 -92 -41.5 -131t-130.5 -31v85q17 -3 31 -1t25 8t17 23.5t6 46.5v612h93v-612z" />
    <glyph glyph-name="k" unicode="k" horiz-adv-x="510" 
d="M391 0l-198 260h-43v-260h-95v771h95v-421h38l181 235h116l-214 -275l234 -310h-114z" />
    <glyph glyph-name="l" unicode="l" horiz-adv-x="253" 
d="M70 771h93v-618q0 -34 13.5 -46.5t46.5 -12.5v-94q-88 0 -120.5 31t-32.5 121v619z" />
    <glyph glyph-name="m" unicode="m" horiz-adv-x="922" 
d="M74 585h80l7 -61q49 71 150 71q119 0 160 -72q58 72 179 72q101 0 149.5 -47.5t48.5 -166.5v-381h-96v383q0 121 -114 121q-129 0 -129 -149v-355h-96v385q0 73 -28 97t-88 24q-58 0 -92.5 -29.5t-34.5 -92.5v-384h-96v585z" />
    <glyph glyph-name="n" unicode="n" horiz-adv-x="583" 
d="M79 585h85l6 -59q42 69 150 69q100 0 147 -48.5t47 -162.5v-384h-96v383q0 61 -30.5 93t-83.5 32q-57 0 -93 -32t-36 -92v-384h-96v585z" />
    <glyph glyph-name="o" unicode="o" 
d="M269 -10q-118 0 -168.5 51.5t-50.5 171.5v170q0 112 56.5 162t162.5 50t162.5 -50t56.5 -162v-170q0 -119 -51.5 -171t-167.5 -52zM269 73q67 0 95.5 31t28.5 109v170q0 75 -29.5 101t-94.5 26t-94.5 -26t-29.5 -101v-170q0 -78 29 -109t95 -31z" />
    <glyph glyph-name="p" unicode="p" horiz-adv-x="562" 
d="M66 585h80l12 -70q13 37 53 58.5t92 21.5q198 0 198 -211v-167q0 -227 -198 -227q-52 0 -85 10.5t-56 40.5v-238h-96v782zM162 214q0 -74 27.5 -103t92.5 -29t94.5 30.5t29.5 106.5v166q0 69 -27.5 95t-89.5 26q-64 -2 -95.5 -36t-31.5 -117v-139z" />
    <glyph glyph-name="q" unicode="q" horiz-adv-x="550" 
d="M53 372q0 120 50.5 171.5t168.5 51.5t168.5 -51.5t50.5 -171.5v-575h-96v252q-40 -59 -138 -59q-107 0 -155.5 56.5t-48.5 168.5v157zM396 372q1 76 -29 104t-95 28t-94.5 -28t-29.5 -104v-155q0 -79 28.5 -107.5t95.5 -28.5q58 0 90 29t33 103z" />
    <glyph glyph-name="r" unicode="r" horiz-adv-x="348" 
d="M319 494q-72 12 -118 -18t-46 -95v-381h-95v585h87l4 -48q17 26 51 42t75 16q23 0 42 -4v-97z" />
    <glyph glyph-name="s" unicode="s" horiz-adv-x="488" 
d="M350 423q0 86 -107 86q-105 0 -105 -96q0 -23 7.5 -37.5t24 -21.5t33.5 -9.5t44 -4.5h4t3.5 -0.5t4 -0.5h3.5q33 -3 55.5 -7t51 -15t46 -28t30 -47t12.5 -71q0 -89 -56.5 -135t-150.5 -46q-204 0 -212 186h96q7 -99 116 -99q53 0 82.5 25t29.5 68q0 25 -11 41.5t-33 25
t-43 12.5t-53 6q-179 13 -179 158q0 83 52 132.5t151 49.5q100 0 148.5 -44.5t46.5 -127.5h-91z" />
    <glyph glyph-name="t" unicode="t" horiz-adv-x="293" 
d="M64 687l93 11v-113h101v-90h-101v-331q0 -46 24 -64.5t81 -11.5v-88q-110 -12 -154 30t-44 131v526z" />
    <glyph glyph-name="u" unicode="u" horiz-adv-x="571" 
d="M501 0h-85l-6 59q-42 -69 -150 -69q-100 0 -147 48.5t-47 162.5v384h96v-383q0 -61 30.5 -93t83.5 -32q57 0 93 32t36 92v384h96v-585z" />
    <glyph glyph-name="v" unicode="v" horiz-adv-x="447" 
d="M162 390q31 -105 62 -258q36 181 62 260l60 193h99l-173 -585h-96l-173 585h99z" />
    <glyph glyph-name="w" unicode="w" horiz-adv-x="743" 
d="M634 585h100l-168 -585h-95l-48 170l-52 227l-53 -230l-47 -167h-95l-168 585h100l60 -195q12 -40 21.5 -82.5t20.5 -103t14 -72.5q27 138 58 260l54 193h70l55 -193q26 -103 57 -260q3 12 14 72.5t20.5 103t21.5 82.5z" />
    <glyph glyph-name="x" unicode="x" horiz-adv-x="475" 
d="M301 102l-65 123l-65 -124l-58 -101h-104l173 295l-167 290h107l55 -93l60 -118l62 119l54 92h104l-166 -289l176 -296h-107z" />
    <glyph glyph-name="y" unicode="y" horiz-adv-x="491" 
d="M250 126q21 107 73 277l57 182h99l-183 -586l-35 -111q-28 -88 -79 -112t-134 10l17 81q18 -7 32 -10t30 0t28.5 17.5t21.5 41.5l24 83l-186 586h104l56 -188z" />
    <glyph glyph-name="z" unicode="z" horiz-adv-x="486" 
d="M31 15l288 483h-261v87h402v-17l-284 -479h290v-89h-435v15z" />
    <glyph glyph-name="braceleft" unicode="{" horiz-adv-x="320" 
d="M297 -132q-99 -16 -140 20.5t-41 128.5v221q0 102 -75 102v63q75 0 75 102v180q0 92 42.5 129.5t138.5 19.5v-67q-58 11 -78.5 -6.5t-20.5 -78.5v-177q0 -29 -1 -43.5t-7 -36t-21.5 -34t-40.5 -19.5q26 -7 41.5 -20t21.5 -34.5t7 -35.5t1 -43v-218q0 -60 19 -75.5
t79 -7.5l1 -69z" />
    <glyph glyph-name="bar" unicode="|" horiz-adv-x="263" 
d="M172 776v-879h-81v879h81z" />
    <glyph glyph-name="braceright" unicode="}" horiz-adv-x="339" 
d="M35 -131l1 69q60 -8 79 7.5t19 75.5v218q0 29 1 43t7 35.5t21.5 34.5t41.5 20q-25 7 -40.5 19.5t-21.5 34t-7 36t-1 43.5v177q0 61 -20.5 78.5t-78.5 6.5v67q96 18 138.5 -19.5t42.5 -129.5v-180q0 -102 75 -102v-63q-75 0 -75 -102v-221q0 -92 -41 -128.5t-140 -20.5z
" />
    <glyph glyph-name="asciitilde" unicode="~" horiz-adv-x="646" 
d="M573 337q-25 -71 -74 -97t-121 3l-129 63q-23 7 -43 9t-39.5 -14.5t-33.5 -52.5l-57 24q23 68 78.5 98t117.5 0l127 -62q75 -38 112 53z" />
    <glyph glyph-name="exclamdown" unicode="&#xa1;" horiz-adv-x="228" 
d="M174 540q0 -26 -17.5 -41t-40.5 -15q-24 0 -40.5 14.5t-16.5 41.5q0 26 17.5 40.5t41.5 14.5q23 0 39.5 -14.5t16.5 -40.5zM164 425v-607h-95v607h95z" />
    <glyph glyph-name="cent" unicode="&#xa2;" horiz-adv-x="528" 
d="M220 -101v94q-90 10 -130 62t-40 158v166q0 187 174 210v99h93v-98q88 -11 129.5 -53t41.5 -143h-95q0 67 -28 90t-96 23q-66 0 -95 -28.5t-29 -99.5v-166q0 -77 29 -105.5t95 -28.5q69 0 96.5 24t27.5 99h95q0 -106 -41.5 -154t-135.5 -56v-93h-91z" />
    <glyph glyph-name="sterling" unicode="&#xa3;" horiz-adv-x="548" 
d="M413 590q0 50 -25.5 77t-67.5 27q-46 0 -72 -29.5t-26 -86.5v-134h179v-92h-179v-262h281v-90h-470v91h96v261h-96v92h96v131q0 97 48.5 151.5t142.5 54.5q83 0 131.5 -49.5t48.5 -141.5h-87z" />
    <glyph glyph-name="currency" unicode="&#xa4;" horiz-adv-x="540" 
d="M121 75l-67 74l53 57q-27 50 -27 110t28 113l-53 58l66 75l55 -61q46 27 98 27q54 0 97 -27l56 61l66 -75l-52 -57q28 -50 28 -112q0 -59 -28 -112l52 -57l-66 -74l-56 60q-44 -26 -98 -26q-51 0 -97 26zM273 192q54 0 84 35.5t30 90.5q0 58 -30 93t-84 35q-52 0 -83 -38
t-31 -90q0 -51 31 -88.5t83 -37.5z" />
    <glyph glyph-name="yen" unicode="&#xa5;" horiz-adv-x="506" 
d="M255 430l68 192l62 149h103l-161 -386h89v-73h-114v-38h115v-71h-115v-203h-95v203h-110v71h110v38h-110v73h84l-159 386h103l62 -149z" />
    <glyph glyph-name="brokenbar" unicode="&#xa6;" horiz-adv-x="270" 
d="M92 408v363h86v-363h-86zM178 337v-363h-86v363h86z" />
    <glyph glyph-name="section" unicode="&#xa7;" horiz-adv-x="500" 
d="M338 620q2 38 -21 58t-72 20q-95 0 -98 -84q-1 -28 14 -42.5t31 -17.5t55 -6q7 -1 10 -1q30 -3 49 -6t45.5 -12t41.5 -23.5t25.5 -41.5t9.5 -64q-3 -77 -71 -120q72 -32 69 -114q-2 -80 -54.5 -121.5t-137.5 -41.5q-183 0 -186 168h87q3 -90 101 -90q48 0 75 23t29 61
q1 18 -6 31t-17.5 20t-29 11.5t-33 6.5t-38.5 3q-26 0 -52 8t-51 24t-40 47.5t-14 73.5q2 71 68 116q-31 10 -48.5 38.5t-16.5 69.5q2 73 50 117t137 44q90 0 133 -40.5t38 -114.5h-82zM144 390q-1 -36 24 -55.5t70 -19.5q48 0 75 23t29 61q1 33 -28.5 52.5t-68.5 19.5
q-43 0 -71.5 -21t-29.5 -60z" />
    <glyph glyph-name="dieresis" unicode="&#xa8;" horiz-adv-x="445" 
d="M58 884q0 35 29 49.5t57.5 0.5t28.5 -50q0 -34 -28.5 -48.5t-57.5 -1t-29 49.5zM276 884q0 35 29 49.5t57.5 0.5t28.5 -50q0 -34 -29 -48.5t-57.5 -1t-28.5 49.5z" />
    <glyph glyph-name="copyright" unicode="&#xa9;" horiz-adv-x="842" 
d="M423 741q169 1 264 -103t95 -254q0 -161 -93 -266.5t-266 -105.5q-174 0 -268 102t-94 262q0 71 23 135.5t66.5 117t114.5 83.5t158 30v-1zM423 671q-139 0 -213.5 -82t-74.5 -215q0 -130 74.5 -212.5t213.5 -82.5t212 82.5t73 220.5q0 129 -74.5 209t-210.5 80zM572 312
q-1 -80 -36 -113t-114 -33t-116.5 37.5t-37.5 119.5v114q0 150 154 150q144 0 150 -138l-66 -1q-1 44 -21 59.5t-63 15.5q-45 0 -65 -17t-20 -69v-114q0 -53 20.5 -72.5t64.5 -19.5q46 0 65 15.5t19 65.5h66z" />
    <glyph glyph-name="ordfeminine" unicode="&#xaa;" horiz-adv-x="449" 
d="M394 362h-64l-10 62q-9 -26 -37.5 -45t-71.5 -19q-163 0 -163 161v93q0 86 47.5 126.5t127.5 40.5q171 0 171 -167v-252zM318 614q0 55 -25 75.5t-70 20.5q-98 0 -98 -96v-84q0 -53 21.5 -76t64.5 -23q53 0 80 27.5t27 95.5v60zM64 290h329v-77h-329v77z" />
    <glyph glyph-name="guillemotleft" unicode="&#xab;" horiz-adv-x="457" 
d="M187 517h88l-137 -220l137 -221h-88l-138 221zM180 297l138 220h88l-137 -220l137 -221h-88z" />
    <glyph glyph-name="logicalnot" unicode="&#xac;" horiz-adv-x="529" 
d="M446 178h-75v132h-293v75h368v-207z" />
    <glyph glyph-name="uni00AD" unicode="&#xad;" horiz-adv-x="473" 
d="M411 371v-78h-358v78h358z" />
    <glyph glyph-name="registered" unicode="&#xae;" horiz-adv-x="838" 
d="M421 724q169 0 266.5 -106t97.5 -264t-97.5 -264t-266.5 -106q-168 0 -265.5 106.5t-97.5 263.5q0 158 97.5 264t265.5 106zM135 355q0 -131 76.5 -216t209.5 -85q134 0 211 85.5t77 215.5q0 131 -77 216.5t-211 85.5q-133 0 -209.5 -85.5t-76.5 -216.5zM571 425
q0 -56 -19.5 -86.5t-64.5 -39.5l88 -152h-78l-81 139h-52v-139h-66v427h131q67 0 104.5 -28.5t37.5 -102.5v-18zM364 509v-160h65q39 0 55.5 15.5t16.5 60.5v18q0 23 -3.5 36t-14.5 19t-21 8t-33 3h-65z" />
    <glyph glyph-name="macron" unicode="&#xaf;" horiz-adv-x="385" 
d="M67 904h245v-74h-245v74z" />
    <glyph glyph-name="degree" unicode="&#xb0;" horiz-adv-x="326" 
d="M157 777q46 0 77.5 -24.5t39 -59t0.5 -69t-38.5 -59t-77.5 -24.5q-48 0 -80.5 24.5t-39.5 59t1 69t40 59t78 24.5zM156 717q-28 0 -44 -18.5t-16.5 -40t15.5 -40t45 -18.5q28 0 43.5 18.5t15.5 40t-16 40t-43 18.5z" />
    <glyph glyph-name="plusminus" unicode="&#xb1;" horiz-adv-x="497" 
d="M58 410h154v157h80v-157h154v-76h-154v-158h-80v158h-154v76zM62 110h381v-76h-381v76z" />
    <glyph glyph-name="uni00B2" unicode="&#xb2;" horiz-adv-x="317" 
d="M39 449q0 36 8.5 62.5t27.5 44t32 25.5t38 20q54 26 54 66q0 44 -43 44q-48 0 -44 -60h-68q-8 130 114 130q54 0 84 -29t30 -85q0 -50 -24 -77.5t-65 -46.5q-2 -1 -11.5 -5.5t-11.5 -5.5t-10 -5.5t-10.5 -7.5t-8 -8.5t-7.5 -11t-5 -13t-4 -16.5t-1 -20v-15h157v-74h-232
v88z" />
    <glyph glyph-name="uni00B3" unicode="&#xb3;" horiz-adv-x="312" 
d="M102 491q1 -60 48 -60q48 0 48 58q0 55 -48 55h-32v71h32q45 2 45 53q0 44 -43 44q-20 0 -33.5 -15t-13.5 -45h-72q0 128 120 129q53 0 85.5 -27.5t32.5 -85.5q0 -23 -12 -48.5t-34 -35.5q51 -22 51 -95q0 -62 -33 -96.5t-94 -34.5q-63 0 -92 33t-29 100h74z" />
    <glyph glyph-name="acute" unicode="&#xb4;" horiz-adv-x="245" 
d="M165 816h-76v5l53 127h94v-3z" />
    <glyph glyph-name="uni00B5" unicode="&#xb5;" horiz-adv-x="543" 
d="M59 586h99v-374q0 -137 117 -137q58 0 86.5 34t28.5 115v361h95v-585h-81l-10 55q-14 -38 -47 -59.5t-75 -21.5q-95 0 -120 69v-264h-93v807z" />
    <glyph glyph-name="paragraph" unicode="&#xb6;" horiz-adv-x="646" 
d="M329 -209h-99v466q-190 15 -188 256q2 260 214 260h364v-95h-87v-886h-97v886h-107v-887z" />
    <glyph glyph-name="periodcentered" unicode="&#xb7;" horiz-adv-x="201" 
d="M47 331q0 26 18 41t39.5 15.5t39.5 -14.5t18 -42q0 -34 -29 -48.5t-57.5 -1t-28.5 49.5z" />
    <glyph glyph-name="cedilla" unicode="&#xb8;" horiz-adv-x="294" 
d="M80 -82l22 101h65l-13 -70q51 0 72.5 -31.5t12.5 -69.5q-11 -44 -43.5 -68.5t-76.5 -21.5q-65 4 -92 51l34 49q19 -32 60 -32q38 0 48 34q9 28 -15 44.5t-58 1.5l-14 13z" />
    <glyph glyph-name="uni00B9" unicode="&#xb9;" horiz-adv-x="265" 
d="M38 423h64v285h-48v63h116v-348h60v-64h-192v64z" />
    <glyph glyph-name="ordmasculine" unicode="&#xba;" horiz-adv-x="437" 
d="M218 443q-74 0 -122.5 45.5t-48.5 124.5t48 123.5t122 44.5t122 -44.5t48 -122.5q0 -79 -48.5 -125t-120.5 -46zM218 514q43 0 69.5 27t26.5 72q0 44 -28 72.5t-69 28.5t-68 -28t-27 -72q0 -45 26.5 -72.5t69.5 -27.5zM65 380h306v-77h-306v77z" />
    <glyph glyph-name="guillemotright" unicode="&#xbb;" horiz-adv-x="457" 
d="M139 78h-87l136 220l-136 220h87l138 -220zM408 298l-138 -220h-87l136 220l-136 220h87z" />
    <glyph glyph-name="onequarter" unicode="&#xbc;" horiz-adv-x="757" 
d="M52 423h64v285h-48v63h116v-348h60v-64h-192v64zM155 0l370 771h80l-372 -771h-78zM437 84l-9 53l162 269h82v-252h40v-70h-40v-84h-74v84h-161zM599 219l10 96l-88 -161h78v65z" />
    <glyph glyph-name="onehalf" unicode="&#xbd;" horiz-adv-x="811" 
d="M52 421h64v287h-48v63h116v-350h60v-64h-192v64zM525 771h80l-372 -771h-78zM491 88q0 36 8.5 62.5t27.5 44t32 25.5t38 20q54 26 54 65q0 44 -43 44q-48 0 -44 -60h-68q-8 130 114 130q54 0 84 -29t30 -85q0 -50 -24 -77t-65 -46q-2 -1 -11.5 -5.5t-11.5 -5.5t-10 -5.5
t-10.5 -7.5t-8 -8.5t-7.5 -11t-5 -13t-4 -16.5t-1 -20v-15h160v-74h-235v88z" />
    <glyph glyph-name="threequarters" unicode="&#xbe;" horiz-adv-x="805" 
d="M132 491q1 -60 48 -60q48 0 48 58q0 55 -48 55h-32v71h32q45 2 45 53q0 44 -43 44q-20 0 -33.5 -15t-13.5 -45h-72q0 128 120 129q53 0 85.5 -27.5t32.5 -85.5q0 -23 -12 -48.5t-34 -35.5q51 -22 51 -95q0 -62 -33 -96.5t-94 -34.5q-63 0 -92 33t-29 100h74zM555 771h80
l-372 -771h-78zM467 84l-9 53l162 269h82v-252h40v-70h-40v-84h-74v84h-161zM629 219l10 96l-88 -161h78v65z" />
    <glyph glyph-name="questiondown" unicode="&#xbf;" horiz-adv-x="490" 
d="M332 540q0 -26 -17.5 -41t-40.5 -15q-24 0 -40.5 14.5t-16.5 41.5q0 26 17.5 40.5t41.5 14.5q23 0 39.5 -14.5t16.5 -40.5zM455 7q0 -50 -7 -84t-27.5 -65t-63.5 -46.5t-110 -15.5q-202 0 -202 232v35q0 55 14 95t35.5 61.5t46 42.5t46 38t35.5 48t14 73h90
q0 -64 -19 -107t-46.5 -66t-55 -44t-46.5 -55t-19 -85v-33q1 -80 27 -112.5t85 -32.5q65 0 88 25t23 96h92z" />
    <glyph glyph-name="Agrave" unicode="&#xc0;" horiz-adv-x="524" 
d="M232 826l-71 129v3h97l53 -127v-5h-79zM417 0l-39 143h-231l-39 -143h-99l205 771h97l204 -771h-98zM262 645l-52 -251l-39 -161h182l-40 164z" />
    <glyph glyph-name="Aacute" unicode="&#xc1;" horiz-adv-x="524" 
d="M285 826h-76v5l53 127h94v-3zM417 0l-39 143h-231l-39 -143h-99l205 771h97l204 -771h-98zM262 645l-52 -251l-39 -161h182l-40 164z" />
    <glyph glyph-name="Acircumflex" unicode="&#xc2;" horiz-adv-x="524" 
d="M289 955l124 -122v-7h-93l-57 57l-58 -57h-93v7l120 122h57zM417 0l-39 143h-231l-39 -143h-99l205 771h97l204 -771h-98zM262 645l-52 -251l-39 -161h182l-40 164z" />
    <glyph glyph-name="Atilde" unicode="&#xc3;" horiz-adv-x="524" 
d="M125 870q11 45 45.5 65.5t76.5 5.5l45 -21q38 -14 51 26l57 -23q-10 -51 -44 -70t-72 -4l-44 20q-45 16 -60 -25zM417 0l-39 143h-231l-39 -143h-99l205 771h97l204 -771h-98zM262 645l-52 -251l-39 -161h182l-40 164z" />
    <glyph glyph-name="Adieresis" unicode="&#xc4;" horiz-adv-x="524" 
d="M96 894q0 35 29 49.5t57.5 0.5t28.5 -50q0 -34 -28.5 -48.5t-57.5 -1t-29 49.5zM314 894q0 35 29 49.5t57.5 0.5t28.5 -50q0 -34 -29 -48.5t-57.5 -1t-28.5 49.5zM417 0l-39 143h-231l-39 -143h-99l205 771h97l204 -771h-98zM262 645l-52 -251l-39 -161h182l-40 164z" />
    <glyph glyph-name="Aring" unicode="&#xc5;" horiz-adv-x="524" 
d="M156 900q0 49 31.5 76.5t75.5 27.5q43 0 75.5 -27.5t32.5 -75.5q0 -49 -31.5 -77t-77.5 -28t-76.5 27.5t-29.5 76.5zM263 945q-29 0 -41 -22.5t0 -45t41 -22.5q30 0 42 22.5t-0.5 45t-41.5 22.5zM417 0l-39 143h-231l-39 -143h-99l205 771h97l204 -771h-98zM262 645
l-52 -251l-39 -161h182l-40 164z" />
    <glyph glyph-name="AE" unicode="&#xc6;" horiz-adv-x="750" 
d="M707 771v-81h-262v-234h246v-85h-246v-286h271v-85h-359v184h-188l-70 -184h-97l307 771h398zM357 269v415l-60 -171l-96 -244h156z" />
    <glyph glyph-name="Ccedilla" unicode="&#xc7;" horiz-adv-x="590" 
d="M305 80q96 0 123 29t27 122h91q0 -49 -3 -80t-15 -64t-35 -51t-63 -31t-99 -15l-8 -41q51 0 72.5 -31.5t12.5 -69.5q-11 -44 -43.5 -68.5t-76.5 -21.5q-65 4 -92 51l34 49q19 -32 60 -32q38 0 48 34q9 28 -15 44.5t-58 1.5l-14 13l-2 -1l16 73q-55 3 -93.5 16.5
t-60.5 33.5t-33.5 54.5t-15 68.5t-3.5 87v270q0 68 9.5 112.5t36 80t75.5 51.5t125 16q74 0 121.5 -13.5t73.5 -43.5t35.5 -68.5t10.5 -98.5h-93q-1 75 -29 105t-119 30q-50 0 -80 -8.5t-45.5 -31.5t-20 -51.5t-4.5 -78.5v-272q0 -97 28.5 -133.5t121.5 -36.5z" />
    <glyph glyph-name="Egrave" unicode="&#xc8;" horiz-adv-x="521" 
d="M232 826l-71 129v3h97l53 -127v-5h-79zM459 771v-84h-294v-231h266v-89h-266v-278h319v-89h-414v771h389z" />
    <glyph glyph-name="Eacute" unicode="&#xc9;" horiz-adv-x="521" 
d="M285 826h-76v5l53 127h94v-3zM459 771v-84h-294v-231h266v-89h-266v-278h319v-89h-414v771h389z" />
    <glyph glyph-name="Ecircumflex" unicode="&#xca;" horiz-adv-x="521" 
d="M289 955l124 -122v-7h-93l-57 57l-58 -57h-93v7l120 122h57zM459 771v-84h-294v-231h266v-89h-266v-278h319v-89h-414v771h389z" />
    <glyph glyph-name="Edieresis" unicode="&#xcb;" horiz-adv-x="521" 
d="M96 894q0 35 29 49.5t57.5 0.5t28.5 -50q0 -34 -28.5 -48.5t-57.5 -1t-29 49.5zM314 894q0 35 29 49.5t57.5 0.5t28.5 -50q0 -34 -29 -48.5t-57.5 -1t-28.5 49.5zM459 771v-84h-294v-231h266v-89h-266v-278h319v-89h-414v771h389z" />
    <glyph glyph-name="Igrave" unicode="&#xcc;" horiz-adv-x="237" 
d="M99 816l-71 129v3h97l53 -127v-5h-79zM70 0v771h97v-771h-97z" />
    <glyph glyph-name="Iacute" unicode="&#xcd;" horiz-adv-x="237" 
d="M165 816h-76v5l53 127h94v-3zM70 0v771h97v-771h-97z" />
    <glyph glyph-name="Icircumflex" unicode="&#xce;" horiz-adv-x="237" 
d="M142 937l124 -122v-7h-93l-57 57l-58 -57h-93v7l120 122h57zM70 0v771h97v-771h-97z" />
    <glyph glyph-name="Idieresis" unicode="&#xcf;" horiz-adv-x="237" 
d="M-54 884q0 35 29 49.5t57.5 0.5t28.5 -50q0 -34 -29 -48.5t-57.5 -1t-28.5 49.5zM164 884q0 35 29 49.5t57.5 0.5t28.5 -50q0 -34 -28.5 -48.5t-57.5 -1t-29 49.5zM70 0v771h97v-771h-97z" />
    <glyph glyph-name="Eth" unicode="&#xd0;" horiz-adv-x="606" 
d="M305 771q76 0 124.5 -16t74.5 -51t35 -79t9 -112v-254q0 -68 -9.5 -112.5t-36 -80t-76.5 -51.5t-128 -15h-227v353h-68v68h68v350h234zM452 258v256q0 52 -4 78.5t-19 49.5t-46 31t-85 8h-132v-260h124v-68h-124v-262h132q54 0 85 8t46 31t19 49.5t4 78.5z" />
    <glyph glyph-name="Ntilde" unicode="&#xd1;" horiz-adv-x="570" 
d="M143 870q11 45 45.5 65.5t76.5 5.5l45 -21q38 -14 51 26l57 -23q-10 -51 -44 -70t-72 -4l-44 20q-45 16 -60 -25zM420 181l-14 262v328h95v-771h-89l-254 554l6 -253v-301h-95v771h90z" />
    <glyph glyph-name="Ograve" unicode="&#xd2;" horiz-adv-x="621" 
d="M279 826l-71 129v3h97l53 -127v-5h-79zM559 250q0 -68 -9.5 -112.5t-36 -80t-76.5 -51.5t-128 -16t-128 16t-76.5 51.5t-36 80t-9.5 112.5v271q0 68 9.5 112.5t36 80t76.5 51.5t128 16t128 -16t76.5 -51.5t36 -80t9.5 -112.5v-271zM463 522q0 42 -2 65.5t-10.5 47
t-25 34.5t-45 18t-71.5 7t-71.5 -7t-45 -18t-25 -34.5t-10.5 -47t-2 -65.5v-273q0 -52 4 -79t19 -50.5t46 -32t85 -8.5t85 8.5t46 32t19 50.5t4 79v273z" />
    <glyph glyph-name="Oacute" unicode="&#xd3;" horiz-adv-x="621" 
d="M332 826h-76v5l53 127h94v-3zM559 250q0 -68 -9.5 -112.5t-36 -80t-76.5 -51.5t-128 -16t-128 16t-76.5 51.5t-36 80t-9.5 112.5v271q0 68 9.5 112.5t36 80t76.5 51.5t128 16t128 -16t76.5 -51.5t36 -80t9.5 -112.5v-271zM463 522q0 42 -2 65.5t-10.5 47t-25 34.5t-45 18
t-71.5 7t-71.5 -7t-45 -18t-25 -34.5t-10.5 -47t-2 -65.5v-273q0 -52 4 -79t19 -50.5t46 -32t85 -8.5t85 8.5t46 32t19 50.5t4 79v273z" />
    <glyph glyph-name="Ocircumflex" unicode="&#xd4;" horiz-adv-x="621" 
d="M336 955l124 -122v-7h-93l-57 57l-58 -57h-93v7l120 122h57zM559 250q0 -68 -9.5 -112.5t-36 -80t-76.5 -51.5t-128 -16t-128 16t-76.5 51.5t-36 80t-9.5 112.5v271q0 68 9.5 112.5t36 80t76.5 51.5t128 16t128 -16t76.5 -51.5t36 -80t9.5 -112.5v-271zM463 522
q0 42 -2 65.5t-10.5 47t-25 34.5t-45 18t-71.5 7t-71.5 -7t-45 -18t-25 -34.5t-10.5 -47t-2 -65.5v-273q0 -52 4 -79t19 -50.5t46 -32t85 -8.5t85 8.5t46 32t19 50.5t4 79v273z" />
    <glyph glyph-name="Otilde" unicode="&#xd5;" horiz-adv-x="621" 
d="M172 870q11 45 45.5 65.5t76.5 5.5l45 -21q38 -14 51 26l57 -23q-10 -51 -44 -70t-72 -4l-44 20q-45 16 -60 -25zM559 250q0 -68 -9.5 -112.5t-36 -80t-76.5 -51.5t-128 -16t-128 16t-76.5 51.5t-36 80t-9.5 112.5v271q0 68 9.5 112.5t36 80t76.5 51.5t128 16t128 -16
t76.5 -51.5t36 -80t9.5 -112.5v-271zM463 522q0 42 -2 65.5t-10.5 47t-25 34.5t-45 18t-71.5 7t-71.5 -7t-45 -18t-25 -34.5t-10.5 -47t-2 -65.5v-273q0 -52 4 -79t19 -50.5t46 -32t85 -8.5t85 8.5t46 32t19 50.5t4 79v273z" />
    <glyph glyph-name="Odieresis" unicode="&#xd6;" horiz-adv-x="621" 
d="M143 894q0 26 18 41t39.5 15.5t39.5 -14.5t18 -42q0 -34 -29 -48.5t-57.5 -1t-28.5 49.5zM361 894q0 35 29 49.5t57.5 0.5t28.5 -50q0 -34 -29 -48.5t-57.5 -1t-28.5 49.5zM559 250q0 -68 -9.5 -112.5t-36 -80t-76.5 -51.5t-128 -16t-128 16t-76.5 51.5t-36 80
t-9.5 112.5v271q0 68 9.5 112.5t36 80t76.5 51.5t128 16t128 -16t76.5 -51.5t36 -80t9.5 -112.5v-271zM463 522q0 42 -2 65.5t-10.5 47t-25 34.5t-45 18t-71.5 7t-71.5 -7t-45 -18t-25 -34.5t-10.5 -47t-2 -65.5v-273q0 -52 4 -79t19 -50.5t46 -32t85 -8.5t85 8.5t46 32
t19 50.5t4 79v273z" />
    <glyph glyph-name="multiply" unicode="&#xd7;" horiz-adv-x="470" 
d="M124 484l110 -111l111 111l53 -52l-113 -114l115 -114l-52 -50l-113 114l-113 -114l-54 53l114 114l-112 111z" />
    <glyph glyph-name="Oslash" unicode="&#xd8;" horiz-adv-x="596" 
d="M476 742q44 -29 60 -82t16 -138v-271q0 -68 -9.5 -112.5t-36 -80.5t-76.5 -52t-128 -16q-56 0 -106 10l-30 -80h-80l41 110q-43 30 -59 83t-16 138v271q0 68 9.5 112.5t36 79.5t76.5 51t128 16q64 0 105 -10l31 81h80zM148 249q0 -90 17 -121l210 558q-27 7 -73 7
q-54 0 -85 -8.5t-46 -32.5t-19 -51t-4 -79v-273zM456 249v273q0 90 -17 121l-211 -558q30 -6 74 -6q54 0 85 8.5t46 32t19 50.5t4 79z" />
    <glyph glyph-name="Ugrave" unicode="&#xd9;" horiz-adv-x="602" 
d="M267 826l-71 129v3h97l53 -127v-5h-79zM440 772h96v-522q0 -133 -52.5 -196.5t-184.5 -63.5t-185.5 63.5t-53.5 196.5v521l96 1v-523q0 -96 28.5 -133t114.5 -37t113.5 37t27.5 133v523z" />
    <glyph glyph-name="Uacute" unicode="&#xda;" horiz-adv-x="602" 
d="M320 826h-76v5l53 127h94v-3zM440 772h96v-522q0 -133 -52.5 -196.5t-184.5 -63.5t-185.5 63.5t-53.5 196.5v521l96 1v-523q0 -96 28.5 -133t114.5 -37t113.5 37t27.5 133v523z" />
    <glyph glyph-name="Ucircumflex" unicode="&#xdb;" horiz-adv-x="602" 
d="M324 955l124 -122v-7h-93l-57 57l-58 -57h-93v7l120 122h57zM440 772h96v-522q0 -133 -52.5 -196.5t-184.5 -63.5t-185.5 63.5t-53.5 196.5v521l96 1v-523q0 -96 28.5 -133t114.5 -37t113.5 37t27.5 133v523z" />
    <glyph glyph-name="Udieresis" unicode="&#xdc;" horiz-adv-x="602" 
d="M131 894q0 26 18 41t39.5 15.5t39.5 -14.5t18 -42q0 -34 -29 -48.5t-57.5 -1t-28.5 49.5zM349 894q0 35 29 49.5t57.5 0.5t28.5 -50q0 -34 -29 -48.5t-57.5 -1t-28.5 49.5zM440 772h96v-522q0 -133 -52.5 -196.5t-184.5 -63.5t-185.5 63.5t-53.5 196.5v521l96 1v-523
q0 -96 28.5 -133t114.5 -37t113.5 37t27.5 133v523z" />
    <glyph glyph-name="Yacute" unicode="&#xdd;" horiz-adv-x="461" 
d="M253 826h-76v5l53 127h94v-3zM231 430l68 192l62 149h103l-186 -448v-323h-95v323l-185 448h103l62 -149z" />
    <glyph glyph-name="Thorn" unicode="&#xde;" horiz-adv-x="530" 
d="M165 771v-122h112q107 0 163 -49t56 -161v-84q0 -120 -50.5 -171.5t-168.5 -51.5h-112v-132h-95v771h95zM165 559v-336h112q67 0 95.5 27.5t28.5 104.5v84q0 75 -27 97.5t-97 22.5h-112z" />
    <glyph glyph-name="germandbls" unicode="&#xdf;" horiz-adv-x="517" 
d="M146 0h-95v584q0 94 41 145.5t142 51.5t141 -51t40 -146q0 -105 -65 -153q130 -39 130 -196q0 -125 -53 -180t-178 -55h-58v84h60q80 0 107 37.5t27 112.5q0 72 -31 101.5t-100 29.5h-61v91h24q33 0 54.5 11.5t31 32.5t13 40t3.5 44q0 58 -18.5 85t-68.5 27
q-48 0 -67 -27.5t-19 -84.5v-584z" />
    <glyph glyph-name="agrave" unicode="&#xe0;" horiz-adv-x="524" 
d="M243 651l-71 129v3h97l53 -127v-5h-79zM461 0h-86l-8 74q-17 -35 -57.5 -59.5t-91.5 -24.5q-160 0 -174 140q-7 77 41.5 129t138.5 65q45 7 141 9v66q0 54 -24.5 81.5t-86.5 27.5q-45 0 -69 -21.5t-23 -76.5h-93q-3 95 45 140t143 45q100 0 152 -46.5t52 -149.5v-399z
M367 254q-90 0 -135 -10q-102 -22 -92 -102q5 -61 88 -61q134 0 139 173z" />
    <glyph glyph-name="aacute" unicode="&#xe1;" horiz-adv-x="524" 
d="M296 651h-76v5l53 127h94v-3zM461 0h-86l-8 74q-17 -35 -57.5 -59.5t-91.5 -24.5q-160 0 -174 140q-7 77 41.5 129t138.5 65q45 7 141 9v66q0 54 -24.5 81.5t-86.5 27.5q-45 0 -69 -21.5t-23 -76.5h-93q-3 95 45 140t143 45q100 0 152 -46.5t52 -149.5v-399zM367 254
q-90 0 -135 -10q-102 -22 -92 -102q5 -61 88 -61q134 0 139 173z" />
    <glyph glyph-name="acircumflex" unicode="&#xe2;" horiz-adv-x="524" 
d="M300 780l124 -122v-7h-93l-57 57l-58 -57h-93v7l120 122h57zM461 0h-86l-8 74q-17 -35 -57.5 -59.5t-91.5 -24.5q-160 0 -174 140q-7 77 41.5 129t138.5 65q45 7 141 9v66q0 54 -24.5 81.5t-86.5 27.5q-45 0 -69 -21.5t-23 -76.5h-93q-3 95 45 140t143 45
q100 0 152 -46.5t52 -149.5v-399zM367 254q-90 0 -135 -10q-102 -22 -92 -102q5 -61 88 -61q134 0 139 173z" />
    <glyph glyph-name="atilde" unicode="&#xe3;" horiz-adv-x="524" 
d="M136 695q11 45 45.5 65.5t76.5 5.5l45 -21q38 -14 51 26l57 -23q-10 -51 -44 -70t-72 -4l-44 20q-45 16 -60 -25zM461 0h-86l-8 74q-17 -35 -57.5 -59.5t-91.5 -24.5q-160 0 -174 140q-7 77 41.5 129t138.5 65q45 7 141 9v66q0 54 -24.5 81.5t-86.5 27.5q-45 0 -69 -21.5
t-23 -76.5h-93q-3 95 45 140t143 45q100 0 152 -46.5t52 -149.5v-399zM367 254q-90 0 -135 -10q-102 -22 -92 -102q5 -61 88 -61q134 0 139 173z" />
    <glyph glyph-name="adieresis" unicode="&#xe4;" horiz-adv-x="524" 
d="M107 719q0 26 18 41t39.5 15.5t39.5 -14.5t18 -42q0 -34 -29 -48.5t-57.5 -1t-28.5 49.5zM325 719q0 35 29 49.5t57.5 0.5t28.5 -50q0 -34 -29 -48.5t-57.5 -1t-28.5 49.5zM461 0h-86l-8 74q-17 -35 -57.5 -59.5t-91.5 -24.5q-160 0 -174 140q-7 77 41.5 129t138.5 65
q45 7 141 9v66q0 54 -24.5 81.5t-86.5 27.5q-45 0 -69 -21.5t-23 -76.5h-93q-3 95 45 140t143 45q100 0 152 -46.5t52 -149.5v-399zM367 254q-90 0 -135 -10q-102 -22 -92 -102q5 -61 88 -61q134 0 139 173z" />
    <glyph glyph-name="aring" unicode="&#xe5;" horiz-adv-x="524" 
d="M167 725q0 49 31.5 76.5t75.5 27.5q43 0 75.5 -27.5t32.5 -75.5q0 -49 -31.5 -77t-77.5 -28t-76.5 27.5t-29.5 76.5zM274 770q-29 0 -41 -22.5t0 -45t41 -22.5q30 0 42 22.5t-0.5 45t-41.5 22.5zM461 0h-86l-8 74q-17 -35 -57.5 -59.5t-91.5 -24.5q-160 0 -174 140
q-7 77 41.5 129t138.5 65q45 7 141 9v66q0 54 -24.5 81.5t-86.5 27.5q-45 0 -69 -21.5t-23 -76.5h-93q-3 95 45 140t143 45q100 0 152 -46.5t52 -149.5v-399zM367 254q-90 0 -135 -10q-102 -22 -92 -102q5 -61 88 -61q134 0 139 173z" />
    <glyph glyph-name="ae" unicode="&#xe6;" horiz-adv-x="824" 
d="M775 168q0 -89 -49.5 -133.5t-161.5 -44.5q-71 0 -111.5 21t-63.5 66q-37 -46 -78.5 -66.5t-97.5 -20.5q-159 0 -174 145q-8 78 39 129.5t141 64.5q45 7 144 9v57q0 54 -26 83.5t-88 29.5q-45 0 -69 -23t-23 -79h-93q-6 189 188 189q113 0 153 -74q47 74 159 74
q213 0 213 -215v-127h-332v-44q0 -77 26.5 -103.5t92.5 -26.5q63 0 90.5 21.5t27.5 67.5h93zM445 338h240v42q0 74 -29.5 102t-91.5 28q-61 0 -90 -27.5t-29 -102.5v-42zM365 256q-106 0 -138 -7q-102 -22 -92 -102q3 -32 27.5 -47.5t60.5 -15.5q137 0 142 172z" />
    <glyph glyph-name="ccedilla" unicode="&#xe7;" horiz-adv-x="528" 
d="M269 81q66 0 94.5 23t29.5 94h90q-1 -109 -44.5 -156t-144.5 -51l-8 -42q51 0 72.5 -31.5t12.5 -69.5q-11 -44 -43.5 -68.5t-76.5 -21.5q-65 4 -92 51l34 49q19 -32 60 -32q38 0 48 34q9 28 -15 44.5t-58 1.5l-14 13l-2 -1l16 74q-93 8 -135.5 60.5t-42.5 160.5v169
q0 213 219 213q103 0 156.5 -44t57.5 -152l-90 -1q-3 65 -32.5 87t-91.5 22q-65 0 -94.5 -25t-29.5 -100v-169q0 -76 29.5 -104t94.5 -28z" />
    <glyph glyph-name="egrave" unicode="&#xe8;" 
d="M238 651l-71 129v3h97l53 -127v-5h-79zM483 166q0 -87 -51.5 -131.5t-162.5 -44.5q-117 0 -166.5 48.5t-49.5 165.5v182q0 110 55.5 159.5t160.5 49.5q216 0 216 -209v-132h-338v-48q0 -75 28 -101.5t94 -26.5q122 0 122 88h92zM147 337h247v49q0 72 -31.5 98.5
t-93.5 26.5t-92 -26t-30 -99v-49z" />
    <glyph glyph-name="eacute" unicode="&#xe9;" 
d="M291 651h-76v5l53 127h94v-3zM483 166q0 -87 -51.5 -131.5t-162.5 -44.5q-117 0 -166.5 48.5t-49.5 165.5v182q0 110 55.5 159.5t160.5 49.5q216 0 216 -209v-132h-338v-48q0 -75 28 -101.5t94 -26.5q122 0 122 88h92zM147 337h247v49q0 72 -31.5 98.5t-93.5 26.5
t-92 -26t-30 -99v-49z" />
    <glyph glyph-name="ecircumflex" unicode="&#xea;" 
d="M295 780l124 -122v-7h-93l-57 57l-58 -57h-93v7l120 122h57zM483 166q0 -87 -51.5 -131.5t-162.5 -44.5q-117 0 -166.5 48.5t-49.5 165.5v182q0 110 55.5 159.5t160.5 49.5q216 0 216 -209v-132h-338v-48q0 -75 28 -101.5t94 -26.5q122 0 122 88h92zM147 337h247v49
q0 72 -31.5 98.5t-93.5 26.5t-92 -26t-30 -99v-49z" />
    <glyph glyph-name="edieresis" unicode="&#xeb;" 
d="M102 719q0 35 29 49.5t57.5 0.5t28.5 -50q0 -34 -28.5 -48.5t-57.5 -1t-29 49.5zM320 719q0 35 29 49.5t57.5 0.5t28.5 -50q0 -34 -29 -48.5t-57.5 -1t-28.5 49.5zM483 166q0 -87 -51.5 -131.5t-162.5 -44.5q-117 0 -166.5 48.5t-49.5 165.5v182q0 110 55.5 159.5
t160.5 49.5q216 0 216 -209v-132h-338v-48q0 -75 28 -101.5t94 -26.5q122 0 122 88h92zM147 337h247v49q0 72 -31.5 98.5t-93.5 26.5t-92 -26t-30 -99v-49z" />
    <glyph glyph-name="igrave" unicode="&#xec;" horiz-adv-x="245" 
d="M98 641l-71 129v3h97l53 -127v-5h-79zM79 0v585h95v-585h-95z" />
    <glyph glyph-name="iacute" unicode="&#xed;" horiz-adv-x="241" 
d="M149 641h-76v5l53 127h94v-3zM79 0v585h95v-585h-95z" />
    <glyph glyph-name="icircumflex" unicode="&#xee;" horiz-adv-x="245" 
d="M149 776l106 -128v-7h-79l-49 51l-49 -51h-79v7l102 128h48zM79 0v585h95v-585h-95z" />
    <glyph glyph-name="idieresis" unicode="&#xef;" horiz-adv-x="279" 
d="M-6 720q0 35 29 49.5t57.5 0.5t28.5 -50q0 -34 -28.5 -48.5t-57.5 -1t-29 49.5zM173 720q0 35 29 49.5t57.5 0.5t28.5 -50q0 -34 -29 -48.5t-57.5 -1t-28.5 49.5zM88 0v585h95v-585h-95z" />
    <glyph glyph-name="eth" unicode="&#xf0;" horiz-adv-x="546" 
d="M184 645l53 35q-43 35 -110 84l2 7h126q27 -19 58 -45l65 44l31 -45l-54 -37q139 -148 139 -333v-142q0 -120 -50.5 -171.5t-168.5 -51.5t-168.5 51.5t-50.5 171.5v142q0 103 50.5 153.5t140.5 50.5q57 0 103 -12q-24 45 -71 92l-64 -41zM275 81q67 0 95.5 27.5
t28.5 104.5v142q0 70 -28.5 96t-95.5 26t-95.5 -26t-28.5 -96v-142q0 -77 28.5 -104.5t95.5 -27.5z" />
    <glyph glyph-name="ntilde" unicode="&#xf1;" horiz-adv-x="583" 
d="M166 695q11 45 45.5 65.5t76.5 5.5l45 -21q38 -14 51 26l57 -23q-10 -51 -44 -70t-72 -4l-44 20q-45 16 -60 -25zM79 585h85l6 -59q42 69 150 69q100 0 147 -48.5t47 -162.5v-384h-96v383q0 61 -30.5 93t-83.5 32q-57 0 -93 -32t-36 -92v-384h-96v585z" />
    <glyph glyph-name="ograve" unicode="&#xf2;" 
d="M238 651l-71 129v3h97l53 -127v-5h-79zM269 -10q-118 0 -168.5 51.5t-50.5 171.5v170q0 112 56.5 162t162.5 50t162.5 -50t56.5 -162v-170q0 -119 -51.5 -171t-167.5 -52zM269 73q67 0 95.5 31t28.5 109v170q0 75 -29.5 101t-94.5 26t-94.5 -26t-29.5 -101v-170
q0 -78 29 -109t95 -31z" />
    <glyph glyph-name="oacute" unicode="&#xf3;" 
d="M291 651h-76v5l53 127h94v-3zM269 -10q-118 0 -168.5 51.5t-50.5 171.5v170q0 112 56.5 162t162.5 50t162.5 -50t56.5 -162v-170q0 -119 -51.5 -171t-167.5 -52zM269 73q67 0 95.5 31t28.5 109v170q0 75 -29.5 101t-94.5 26t-94.5 -26t-29.5 -101v-170q0 -78 29 -109
t95 -31z" />
    <glyph glyph-name="ocircumflex" unicode="&#xf4;" 
d="M295 780l124 -122v-7h-93l-57 57l-58 -57h-93v7l120 122h57zM269 -10q-118 0 -168.5 51.5t-50.5 171.5v170q0 112 56.5 162t162.5 50t162.5 -50t56.5 -162v-170q0 -119 -51.5 -171t-167.5 -52zM269 73q67 0 95.5 31t28.5 109v170q0 75 -29.5 101t-94.5 26t-94.5 -26
t-29.5 -101v-170q0 -78 29 -109t95 -31z" />
    <glyph glyph-name="otilde" unicode="&#xf5;" 
d="M131 695q11 45 45.5 65.5t76.5 5.5l45 -21q38 -14 51 26l57 -23q-10 -51 -44 -70t-72 -4l-44 20q-45 16 -60 -25zM269 -10q-118 0 -168.5 51.5t-50.5 171.5v170q0 112 56.5 162t162.5 50t162.5 -50t56.5 -162v-170q0 -119 -51.5 -171t-167.5 -52zM269 73q67 0 95.5 31
t28.5 109v170q0 75 -29.5 101t-94.5 26t-94.5 -26t-29.5 -101v-170q0 -78 29 -109t95 -31z" />
    <glyph glyph-name="odieresis" unicode="&#xf6;" 
d="M102 719q0 35 29 49.5t57.5 0.5t28.5 -50q0 -34 -28.5 -48.5t-57.5 -1t-29 49.5zM320 719q0 35 29 49.5t57.5 0.5t28.5 -50q0 -34 -29 -48.5t-57.5 -1t-28.5 49.5zM269 -10q-118 0 -168.5 51.5t-50.5 171.5v170q0 112 56.5 162t162.5 50t162.5 -50t56.5 -162v-170
q0 -119 -51.5 -171t-167.5 -52zM269 73q67 0 95.5 31t28.5 109v170q0 75 -29.5 101t-94.5 26t-94.5 -26t-29.5 -101v-170q0 -78 29 -109t95 -31z" />
    <glyph glyph-name="divide" unicode="&#xf7;" horiz-adv-x="510" 
d="M195 495q0 25 16.5 39.5t37 14.5t37 -14.5t16.5 -39.5q0 -33 -27 -46.5t-53.5 0t-26.5 46.5zM35 289h424v81h-424v-81zM195 159q0 25 16.5 39.5t37 14.5t37 -14.5t16.5 -39.5q0 -33 -27 -46.5t-53.5 0t-26.5 46.5z" />
    <glyph glyph-name="oslash" unicode="&#xf8;" 
d="M411 561q77 -52 77 -178v-170q0 -119 -51.5 -171t-167.5 -52q-55 0 -92 10l-28 -68h-60l37 89q-76 47 -76 192v170q0 112 56.5 162t162.5 50q51 0 92 -12l29 70h60zM145 214q0 -74 19 -104l165 396q-20 5 -60 5q-65 0 -94.5 -26t-29.5 -101v-170zM393 214v170
q0 66 -17 92l-165 -397q25 -5 58 -5q67 0 95.5 31t28.5 109z" />
    <glyph glyph-name="ugrave" unicode="&#xf9;" horiz-adv-x="571" 
d="M253 630l-71 129v3h97l53 -127v-5h-79zM501 0h-85l-6 59q-42 -69 -150 -69q-100 0 -147 48.5t-47 162.5v384h96v-383q0 -61 30.5 -93t83.5 -32q57 0 93 32t36 92v384h96v-585z" />
    <glyph glyph-name="uacute" unicode="&#xfa;" horiz-adv-x="571" 
d="M306 630h-76v5l53 127h94v-3zM501 0h-85l-6 59q-42 -69 -150 -69q-100 0 -147 48.5t-47 162.5v384h96v-383q0 -61 30.5 -93t83.5 -32q57 0 93 32t36 92v384h96v-585z" />
    <glyph glyph-name="ucircumflex" unicode="&#xfb;" horiz-adv-x="571" 
d="M310 759l124 -122v-7h-93l-57 57l-58 -57h-93v7l120 122h57zM501 0h-85l-6 59q-42 -69 -150 -69q-100 0 -147 48.5t-47 162.5v384h96v-383q0 -61 30.5 -93t83.5 -32q57 0 93 32t36 92v384h96v-585z" />
    <glyph glyph-name="udieresis" unicode="&#xfc;" horiz-adv-x="571" 
d="M117 698q0 26 18 41t39.5 15.5t39.5 -14.5t18 -42q0 -34 -29 -48.5t-57.5 -1t-28.5 49.5zM335 698q0 35 29 49.5t57.5 0.5t28.5 -50q0 -34 -29 -48.5t-57.5 -1t-28.5 49.5zM501 0h-85l-6 59q-42 -69 -150 -69q-100 0 -147 48.5t-47 162.5v384h96v-383q0 -61 30.5 -93
t83.5 -32q57 0 93 32t36 92v384h96v-585z" />
    <glyph glyph-name="yacute" unicode="&#xfd;" horiz-adv-x="491" 
d="M272 630h-76v5l53 127h94v-3zM250 126q21 107 73 277l57 182h99l-183 -586l-35 -111q-28 -88 -79 -112t-134 10l17 81q18 -7 32 -10t30 0t28.5 17.5t21.5 41.5l24 83l-186 586h104l56 -188z" />
    <glyph glyph-name="thorn" unicode="&#xfe;" horiz-adv-x="562" 
d="M66 771h95v-249q15 35 53.5 54t88.5 19q198 0 198 -211v-167q0 -227 -198 -227q-52 0 -85 10.5t-56 40.5v-238h-96v968zM162 214q0 -74 27.5 -103t92.5 -29t94.5 30.5t29.5 106.5v166q0 69 -27.5 95t-89.5 26q-64 -2 -95.5 -36t-31.5 -117v-139z" />
    <glyph glyph-name="ydieresis" unicode="&#xff;" horiz-adv-x="491" 
d="M83 698q0 26 18 41t39.5 15.5t39.5 -14.5t18 -42q0 -34 -29 -48.5t-57.5 -1t-28.5 49.5zM301 698q0 35 29 49.5t57.5 0.5t28.5 -50q0 -34 -29 -48.5t-57.5 -1t-28.5 49.5zM250 126q21 107 73 277l57 182h99l-183 -586l-35 -111q-28 -88 -79 -112t-134 10l17 81
q18 -7 32 -10t30 0t28.5 17.5t21.5 41.5l24 83l-186 586h104l56 -188z" />
    <glyph glyph-name="Amacron" unicode="&#x100;" horiz-adv-x="524" 
d="M140 914h245v-74h-245v74zM417 0l-39 143h-231l-39 -143h-99l205 771h97l204 -771h-98zM262 645l-52 -251l-39 -161h182l-40 164z" />
    <glyph glyph-name="amacron" unicode="&#x101;" horiz-adv-x="524" 
d="M151 739h245v-74h-245v74zM461 0h-86l-8 74q-17 -35 -57.5 -59.5t-91.5 -24.5q-160 0 -174 140q-7 77 41.5 129t138.5 65q45 7 141 9v66q0 54 -24.5 81.5t-86.5 27.5q-45 0 -69 -21.5t-23 -76.5h-93q-3 95 45 140t143 45q100 0 152 -46.5t52 -149.5v-399zM367 254
q-90 0 -135 -10q-102 -22 -92 -102q5 -61 88 -61q134 0 139 173z" />
    <glyph glyph-name="Abreve" unicode="&#x102;" horiz-adv-x="524" 
d="M263 827q-133 0 -127 131h71q0 -32 11 -48.5t45 -16.5t44.5 16t10.5 49h71q6 -131 -126 -131zM417 0l-39 143h-231l-39 -143h-99l205 771h97l204 -771h-98zM262 645l-52 -251l-39 -161h182l-40 164z" />
    <glyph glyph-name="abreve" unicode="&#x103;" horiz-adv-x="524" 
d="M274 652q-133 0 -127 131h71q0 -33 11 -49t45 -16t44.5 16t10.5 49h71q6 -131 -126 -131zM461 0h-86l-8 74q-17 -35 -57.5 -59.5t-91.5 -24.5q-160 0 -174 140q-7 77 41.5 129t138.5 65q45 7 141 9v66q0 54 -24.5 81.5t-86.5 27.5q-45 0 -69 -21.5t-23 -76.5h-93
q-3 95 45 140t143 45q100 0 152 -46.5t52 -149.5v-399zM367 254q-90 0 -135 -10q-102 -22 -92 -102q5 -61 88 -61q134 0 139 173z" />
    <glyph glyph-name="Aogonek" unicode="&#x104;" horiz-adv-x="524" 
d="M547 -189q-60 -14 -112.5 7.5t-52.5 77.5q0 31 18.5 60t47.5 44h-31l-39 143h-231l-39 -143h-99l205 771h97l204 -771q-46 -38 -46 -73q0 -20 18.5 -31t48.5 -4zM353 233l-40 164l-51 248l-52 -251l-39 -161h182z" />
    <glyph glyph-name="aogonek" unicode="&#x105;" horiz-adv-x="524" 
d="M493 -189q-60 -14 -112.5 7.5t-52.5 77.5q0 31 18.5 60t47.5 44h-19l-8 79q-17 -35 -57.5 -59.5t-91.5 -24.5q-160 0 -174 140q-7 77 41.5 129t138.5 65q45 7 141 9v57q0 54 -24.5 81.5t-86.5 27.5q-45 0 -69 -21.5t-23 -76.5h-93q-3 95 45 140t143 45q100 0 152 -46.5
t52 -149.5v-395q-46 -38 -46 -73q0 -20 18.5 -31t48.5 -4zM228 86q134 0 139 173q-90 0 -135 -10q-102 -22 -92 -102q5 -61 88 -61z" />
    <glyph glyph-name="Cacute" unicode="&#x106;" horiz-adv-x="590" 
d="M325 826h-76v5l53 127h94v-3zM453 557q-1 75 -29 105t-119 30q-50 0 -80 -8.5t-45.5 -31.5t-20 -51.5t-4.5 -78.5v-272q0 -97 28.5 -133.5t121.5 -36.5q96 0 123 29t27 122h91q0 -43 -2.5 -70.5t-10 -58t-23.5 -48.5t-42.5 -34t-67 -23t-95.5 -7q-56 0 -96.5 7
t-67.5 23.5t-43.5 36t-25 52t-11 64t-2.5 78.5v270q0 68 9.5 112.5t36 80t75.5 51.5t125 16q74 0 121.5 -13.5t73.5 -43.5t35.5 -68.5t10.5 -98.5h-93z" />
    <glyph glyph-name="cacute" unicode="&#x107;" horiz-adv-x="528" 
d="M286 651h-76v5l53 127h94v-3zM483 198q-1 -115 -50 -161.5t-164 -46.5t-167 52.5t-52 170.5v169q0 213 219 213q103 0 156.5 -44t57.5 -152l-90 -1q-3 65 -32.5 87t-91.5 22q-65 0 -94.5 -25t-29.5 -100v-169q0 -76 29.5 -104t94.5 -28q66 0 94.5 23t29.5 94h90z" />
    <glyph glyph-name="Cdotaccent" unicode="&#x10a;" horiz-adv-x="590" 
d="M255 883q0 35 29 49.5t57.5 0.5t28.5 -50q0 -34 -29 -48.5t-57.5 -1t-28.5 49.5zM453 557q-1 75 -29 105t-119 30q-50 0 -80 -8.5t-45.5 -31.5t-20 -51.5t-4.5 -78.5v-272q0 -97 28.5 -133.5t121.5 -36.5q96 0 123 29t27 122h91q0 -43 -2.5 -70.5t-10 -58t-23.5 -48.5
t-42.5 -34t-67 -23t-95.5 -7q-56 0 -96.5 7t-67.5 23.5t-43.5 36t-25 52t-11 64t-2.5 78.5v270q0 68 9.5 112.5t36 80t75.5 51.5t125 16q74 0 121.5 -13.5t73.5 -43.5t35.5 -68.5t10.5 -98.5h-93z" />
    <glyph glyph-name="cdotaccent" unicode="&#x10b;" horiz-adv-x="528" 
d="M216 718q0 35 29 49.5t57.5 0.5t28.5 -50q0 -34 -28.5 -48.5t-57.5 -1t-29 49.5zM483 198q-1 -115 -50 -161.5t-164 -46.5t-167 52.5t-52 170.5v169q0 213 219 213q103 0 156.5 -44t57.5 -152l-90 -1q-3 65 -32.5 87t-91.5 22q-65 0 -94.5 -25t-29.5 -100v-169
q0 -76 29.5 -104t94.5 -28q66 0 94.5 23t29.5 94h90z" />
    <glyph glyph-name="Ccaron" unicode="&#x10c;" horiz-adv-x="590" 
d="M274 829l-124 122v7h93l57 -57l58 57h93v-7l-120 -122h-57zM453 557q-1 75 -29 105t-119 30q-50 0 -80 -8.5t-45.5 -31.5t-20 -51.5t-4.5 -78.5v-272q0 -97 28.5 -133.5t121.5 -36.5q96 0 123 29t27 122h91q0 -43 -2.5 -70.5t-10 -58t-23.5 -48.5t-42.5 -34t-67 -23
t-95.5 -7q-56 0 -96.5 7t-67.5 23.5t-43.5 36t-25 52t-11 64t-2.5 78.5v270q0 68 9.5 112.5t36 80t75.5 51.5t125 16q74 0 121.5 -13.5t73.5 -43.5t35.5 -68.5t10.5 -98.5h-93z" />
    <glyph glyph-name="ccaron" unicode="&#x10d;" horiz-adv-x="528" 
d="M235 654l-124 122v7h93l57 -57l58 57h93v-7l-120 -122h-57zM483 198q-1 -115 -50 -161.5t-164 -46.5t-167 52.5t-52 170.5v169q0 213 219 213q103 0 156.5 -44t57.5 -152l-90 -1q-3 65 -32.5 87t-91.5 22q-65 0 -94.5 -25t-29.5 -100v-169q0 -76 29.5 -104t94.5 -28
q66 0 94.5 23t29.5 94h90z" />
    <glyph glyph-name="Dcaron" unicode="&#x10e;" horiz-adv-x="601" 
d="M259 829l-124 122v7h93l57 -57l58 57h93v-7l-120 -122h-57zM71 0v771h234q76 0 124.5 -16t74.5 -51t35 -79t9 -112v-254q0 -68 -9.5 -112.5t-36 -80t-76.5 -51.5t-128 -15h-227zM298 91q54 0 85 8t46 31t19 49.5t4 78.5v256q0 52 -4 78.5t-19 49.5t-46 31t-85 8h-132
v-590h132z" />
    <glyph glyph-name="dcaron" unicode="&#x10f;" horiz-adv-x="669" 
d="M585 782h82l-45 -176h-69zM489 0h-80l-12 77q-14 -38 -54 -62.5t-91 -24.5q-198 0 -198 211v167q0 227 198 227q52 0 85 -10.5t56 -40.5v237h96v-781zM393 371q0 74 -27.5 103t-92.5 29t-94.5 -30.5t-29.5 -106.5v-166q0 -69 27.5 -95t89.5 -26q63 2 95 39.5t32 120.5
v132z" />
    <glyph glyph-name="Dcroat" unicode="&#x110;" horiz-adv-x="606" 
d="M305 771q76 0 124.5 -16t74.5 -51t35 -79t9 -112v-254q0 -68 -9.5 -112.5t-36 -80t-76.5 -51.5t-128 -15h-227v353h-68v68h68v350h234zM452 258v256q0 52 -4 78.5t-19 49.5t-46 31t-85 8h-132v-260h124v-68h-124v-262h132q54 0 85 8t46 31t19 49.5t4 78.5z" />
    <glyph glyph-name="dcroat" unicode="&#x111;" horiz-adv-x="553" 
d="M550 713v-61h-61v-652h-80l-12 77q-14 -38 -54 -62.5t-91 -24.5q-198 0 -198 211v167q0 227 198 227q52 0 85 -10.5t56 -40.5v108h-109v61h109v68h96v-68h61zM393 239v132q0 74 -27.5 103t-92.5 29t-94.5 -30.5t-29.5 -106.5v-166q0 -69 27.5 -95t89.5 -26q63 2 95 39.5
t32 120.5z" />
    <glyph glyph-name="Emacron" unicode="&#x112;" horiz-adv-x="521" 
d="M140 914h245v-74h-245v74zM459 771v-84h-294v-231h266v-89h-266v-278h319v-89h-414v771h389z" />
    <glyph glyph-name="emacron" unicode="&#x113;" 
d="M146 739h245v-74h-245v74zM483 166q0 -87 -51.5 -131.5t-162.5 -44.5q-117 0 -166.5 48.5t-49.5 165.5v182q0 110 55.5 159.5t160.5 49.5q216 0 216 -209v-132h-338v-48q0 -75 28 -101.5t94 -26.5q122 0 122 88h92zM147 337h247v49q0 72 -31.5 98.5t-93.5 26.5t-92 -26
t-30 -99v-49z" />
    <glyph glyph-name="Edotaccent" unicode="&#x116;" horiz-adv-x="521" 
d="M205 893q0 26 18 41t39.5 15.5t39.5 -14.5t18 -42q0 -34 -29 -48.5t-57.5 -1t-28.5 49.5zM459 771v-84h-294v-231h266v-89h-266v-278h319v-89h-414v771h389z" />
    <glyph glyph-name="edotaccent" unicode="&#x117;" 
d="M211 718q0 26 18 41t39.5 15.5t39.5 -14.5t18 -42q0 -34 -29 -48.5t-57.5 -1t-28.5 49.5zM483 166q0 -87 -51.5 -131.5t-162.5 -44.5q-117 0 -166.5 48.5t-49.5 165.5v182q0 110 55.5 159.5t160.5 49.5q216 0 216 -209v-132h-338v-48q0 -75 28 -101.5t94 -26.5
q122 0 122 88h92zM147 337h247v49q0 72 -31.5 98.5t-93.5 26.5t-92 -26t-30 -99v-49z" />
    <glyph glyph-name="Eogonek" unicode="&#x118;" horiz-adv-x="521" 
d="M516 -189q-60 -14 -112.5 7.5t-52.5 77.5q0 31 18.5 60t47.5 44h-347v771h389v-84h-294v-231h266v-89h-266v-278h319v-89q-46 -38 -46 -73q0 -20 18.5 -31t48.5 -4z" />
    <glyph glyph-name="eogonek" unicode="&#x119;" 
d="M147 254v-44q0 -75 28 -101.5t94 -26.5q122 0 122 88h92q0 -88 -55 -135q-53 -44 -70.5 -65.5t-17.5 -42.5q0 -20 18.5 -31t48.5 -4l11 -81q-60 -14 -112.5 7.5t-52.5 77.5q0 29 16.5 56.5t43.5 43.5q-28 -2 -44 -2q-117 0 -166.5 48.5t-49.5 165.5v171q0 110 55.5 159.5
t160.5 49.5q216 0 216 -209v-125h-338zM147 337h247v42q0 72 -31.5 98.5t-93.5 26.5t-92 -26t-30 -99v-42z" />
    <glyph glyph-name="Ecaron" unicode="&#x11a;" horiz-adv-x="521" 
d="M234 829l-124 122v7h93l57 -57l58 57h93v-7l-120 -122h-57zM459 771v-84h-294v-231h266v-89h-266v-278h319v-89h-414v771h389z" />
    <glyph glyph-name="ecaron" unicode="&#x11b;" 
d="M240 654l-124 122v7h93l57 -57l58 57h93v-7l-120 -122h-57zM483 166q0 -87 -51.5 -131.5t-162.5 -44.5q-117 0 -166.5 48.5t-49.5 165.5v182q0 110 55.5 159.5t160.5 49.5q216 0 216 -209v-132h-338v-48q0 -75 28 -101.5t94 -26.5q122 0 122 88h92zM147 337h247v49
q0 72 -31.5 98.5t-93.5 26.5t-92 -26t-30 -99v-49z" />
    <glyph glyph-name="Gbreve" unicode="&#x11e;" horiz-adv-x="611" 
d="M308 827q-133 0 -127 131h71q0 -32 11 -48.5t45 -16.5t44.5 16t10.5 49h71q6 -131 -126 -131zM461 565q-1 48 -12.5 74t-45 41t-96.5 15q-93 0 -123.5 -37.5t-30.5 -135.5v-273q0 -52 4 -79t19 -50.5t46 -32t85 -8.5q55 0 85 5.5t46 25t19.5 44.5t3.5 76v107h-150v86h246
v-193q0 -51 -3.5 -83t-17.5 -65t-40.5 -51t-73.5 -29.5t-115 -11.5q-78 0 -128 16t-76.5 51.5t-36 80t-9.5 112.5v271q0 68 9.5 112.5t36 80t76.5 51.5t128 16q100 0 153.5 -23.5t72.5 -67.5t21 -125h-93z" />
    <glyph glyph-name="gbreve" unicode="&#x11f;" horiz-adv-x="532" 
d="M270 652q-133 0 -127 131h71q0 -33 11 -49t45 -16t44.5 16t10.5 49h71q6 -131 -126 -131zM253 -10q-203 0 -203 201v193q0 211 198 211q52 0 91 -21t52 -59l12 70h79v-605q0 -115 -57 -169t-159 -54q-97 0 -148 40.5t-55 133.5h91q4 -49 32.5 -68t80.5 -19q62 0 94 30.5
t32 105.5v89q-12 -32 -49 -55.5t-91 -23.5zM253 79q66 0 100 33.5t34 119.5v129q0 78 -31 110.5t-94 34.5q-62 0 -89.5 -26t-27.5 -95v-183q0 -66 27 -94.5t81 -28.5z" />
    <glyph glyph-name="Gdotaccent" unicode="&#x120;" horiz-adv-x="611" 
d="M250 893q0 35 29 49.5t57.5 0.5t28.5 -50q0 -34 -29 -48.5t-57.5 -1t-28.5 49.5zM461 565q-1 48 -12.5 74t-45 41t-96.5 15q-93 0 -123.5 -37.5t-30.5 -135.5v-273q0 -52 4 -79t19 -50.5t46 -32t85 -8.5q55 0 85 5.5t46 25t19.5 44.5t3.5 76v107h-150v86h246v-193
q0 -51 -3.5 -83t-17.5 -65t-40.5 -51t-73.5 -29.5t-115 -11.5q-78 0 -128 16t-76.5 51.5t-36 80t-9.5 112.5v271q0 68 9.5 112.5t36 80t76.5 51.5t128 16q100 0 153.5 -23.5t72.5 -67.5t21 -125h-93z" />
    <glyph glyph-name="gdotaccent" unicode="&#x121;" horiz-adv-x="532" 
d="M212 718q0 35 29 49.5t57.5 0.5t28.5 -50q0 -34 -28.5 -48.5t-57.5 -1t-29 49.5zM253 -10q-203 0 -203 201v193q0 211 198 211q52 0 91 -21t52 -59l12 70h79v-605q0 -115 -57 -169t-159 -54q-97 0 -148 40.5t-55 133.5h91q4 -49 32.5 -68t80.5 -19q62 0 94 30.5t32 105.5
v89q-12 -32 -49 -55.5t-91 -23.5zM253 79q66 0 100 33.5t34 119.5v129q0 78 -31 110.5t-94 34.5q-62 0 -89.5 -26t-27.5 -95v-183q0 -66 27 -94.5t81 -28.5z" />
    <glyph glyph-name="uni0122" unicode="&#x122;" horiz-adv-x="611" 
d="M461 565q-1 48 -12.5 74t-45 41t-96.5 15q-93 0 -123.5 -37.5t-30.5 -135.5v-273q0 -52 4 -79t19 -50.5t46 -32t85 -8.5q55 0 85 5.5t46 25t19.5 44.5t3.5 76v107h-150v86h246v-193q0 -51 -3.5 -83t-17.5 -65t-40.5 -51t-73.5 -29.5t-115 -11.5q-78 0 -128 16t-76.5 51.5
t-36 80t-9.5 112.5v271q0 68 9.5 112.5t36 80t76.5 51.5t128 16q100 0 153.5 -23.5t72.5 -67.5t21 -125h-93zM194 -202q44 26 55.5 57t11.5 88h93q0 -77 -28.5 -118.5t-97.5 -71.5z" />
    <glyph glyph-name="uni0123" unicode="&#x123;" horiz-adv-x="532" 
d="M366 792q-44 -26 -55.5 -57t-11.5 -88h-93q0 77 28.5 118.5t97.5 71.5zM253 -10q-203 0 -203 201v193q0 211 198 211q52 0 91 -21t52 -59l12 70h79v-605q0 -115 -57 -169t-159 -54q-97 0 -148 40.5t-55 133.5h91q4 -49 32.5 -68t80.5 -19q62 0 94 30.5t32 105.5v89
q-12 -32 -49 -55.5t-91 -23.5zM253 79q66 0 100 33.5t34 119.5v129q0 78 -31 110.5t-94 34.5q-62 0 -89.5 -26t-27.5 -95v-183q0 -66 27 -94.5t81 -28.5z" />
    <glyph glyph-name="Hbar" unicode="&#x126;" horiz-adv-x="584" 
d="M581 620v-60h-61v-560h-95v323h-258v-323h-97v560h-63v60h63v151h97v-151h258v151h95v-151h61zM425 414v146h-258v-146h258z" />
    <glyph glyph-name="hbar" unicode="&#x127;" horiz-adv-x="544" 
d="M284 595q108 0 154.5 -56.5t46.5 -169.5v-369h-95v367q0 78 -26.5 107t-92.5 29q-61 0 -90.5 -31.5t-29.5 -100.5l-1 -371h-95v650h-56v60h56v61h96v-61h135v-60h-135v-115q41 60 133 60z" />
    <glyph glyph-name="Itilde" unicode="&#x128;" horiz-adv-x="237" 
d="M-6 849q10 45 41.5 65.5t69.5 5.5l41 -21q34 -14 47 26l51 -23q-9 -51 -40 -70t-65 -4l-40 20q-41 16 -55 -25zM70 0v771h97v-771h-97z" />
    <glyph glyph-name="itilde" unicode="&#x129;" horiz-adv-x="240" 
d="M8 700q11 46 42.5 64t65.5 0l34 -20q30 -17 44 26l46 -28q-12 -52 -43.5 -69t-59.5 3l-34 17q-36 19 -51 -24zM72 0v581h95v-581h-95z" />
    <glyph glyph-name="Imacron" unicode="&#x12a;" horiz-adv-x="237" 
d="M16 908h202v-72h-202v72zM70 0v771h97v-771h-97z" />
    <glyph glyph-name="imacron" unicode="&#x12b;" horiz-adv-x="238" 
d="M18 758h199v-77h-199v77zM72 0v585h95v-585h-95z" />
    <glyph glyph-name="Ibreve" unicode="&#x12c;" horiz-adv-x="237" 
d="M123 813q-67 0 -97.5 30.5t-27.5 92.5h69q0 -31 11 -46t45 -15t44 15t10 46h70q3 -62 -27.5 -92.5t-96.5 -30.5zM70 0v771h97v-771h-97z" />
    <glyph glyph-name="ibreve" unicode="&#x12d;" horiz-adv-x="240" 
d="M121 642q-125 0 -120 130h67q0 -32 10.5 -48t42.5 -16t42 15.5t10 48.5h67q6 -130 -119 -130zM79 0v585h95v-585h-95z" />
    <glyph glyph-name="Iogonek" unicode="&#x12e;" horiz-adv-x="237" 
d="M199 -189q-60 -14 -112.5 7.5t-52.5 77.5q0 31 18.5 60t47.5 44h-30v771h97v-771q-46 -38 -46 -73q0 -20 18.5 -31t48.5 -4z" />
    <glyph glyph-name="iogonek" unicode="&#x12f;" horiz-adv-x="241" 
d="M69 708q0 26 18 41t39.5 15.5t39.5 -14.5t18 -42q0 -34 -29 -48.5t-57.5 -1t-28.5 49.5zM206 -189q-60 -14 -112.5 7.5t-52.5 77.5q0 31 18.5 60t47.5 44h-28v585h95v-585q-46 -38 -46 -73q0 -20 18.5 -31t48.5 -4z" />
    <glyph glyph-name="Idotaccent" unicode="&#x130;" horiz-adv-x="237" 
d="M61 883q0 26 18 41t39.5 15.5t39.5 -14.5t18 -42q0 -34 -29 -48.5t-57.5 -1t-28.5 49.5zM70 0v771h97v-771h-97z" />
    <glyph glyph-name="dotlessi" unicode="&#x131;" horiz-adv-x="241" 
d="M79 0v585h95v-585h-95z" />
    <glyph glyph-name="IJ" unicode="&#x132;" horiz-adv-x="720" 
d="M70 0v771h97v-771h-97zM452 -10q-120 0 -163.5 58t-43.5 179h90q0 -81 24.5 -113.5t94.5 -32.5q71 0 90.5 35.5t19.5 134.5v520h96v-519q0 -69 -8 -113.5t-29.5 -80t-63.5 -52t-107 -16.5z" />
    <glyph glyph-name="ij" unicode="&#x133;" horiz-adv-x="443" 
d="M63 719q0 26 18 41t39.5 15.5t39.5 -14.5t18 -42q0 -34 -29 -48.5t-57.5 -1t-28.5 49.5zM278 719q0 35 29 49.5t57.5 0.5t28.5 -50q0 -34 -29 -48.5t-57.5 -1t-28.5 49.5zM72 0v581h95v-581h-95zM382 -27q0 -92 -41.5 -131t-130.5 -31v85q16 -3 30.5 -1t25.5 8t17 23.5
t6 46.5v607h93v-607z" />
    <glyph glyph-name="Jcircumflex" unicode="&#x134;" horiz-adv-x="483" 
d="M401 955l124 -122v-7h-93l-57 57l-58 -57h-93v7l120 122h57zM215 -10q-120 0 -163.5 58t-43.5 179h90q0 -81 24.5 -113.5t94.5 -32.5q71 0 90.5 35.5t19.5 134.5v520h96v-519q0 -69 -8 -113.5t-29.5 -80t-63.5 -52t-107 -16.5z" />
    <glyph glyph-name="Jcircumflex" unicode="&#x135;" horiz-adv-x="483" 
d="M401 955l124 -122v-7h-93l-57 57l-58 -57h-93v7l120 122h57zM215 -10q-120 0 -163.5 58t-43.5 179h90q0 -81 24.5 -113.5t94.5 -32.5q71 0 90.5 35.5t19.5 134.5v520h96v-519q0 -69 -8 -113.5t-29.5 -80t-63.5 -52t-107 -16.5z" />
    <glyph glyph-name="uni0136" unicode="&#x136;" horiz-adv-x="564" 
d="M443 0l-246 332h-37v-332h-95v771h95v-340h37l230 340h112l-266 -386l287 -385h-117zM172 -202q44 26 55.5 57t11.5 88h93q0 -77 -28.5 -118.5t-97.5 -71.5z" />
    <glyph glyph-name="uni0137" unicode="&#x137;" horiz-adv-x="510" 
d="M391 0l-198 260h-43v-260h-95v771h95v-421h38l181 235h116l-214 -275l234 -310h-114zM159 -202q44 26 55.5 57t11.5 88h93q0 -77 -28.5 -118.5t-97.5 -71.5z" />
    <glyph glyph-name="kgreenlandic" unicode="&#x138;" horiz-adv-x="510" 
d="M391 0l-198 260h-43v-260h-95v583h95v-233h38l181 235h116l-214 -275l234 -310h-114z" />
    <glyph glyph-name="Lacute" unicode="&#x139;" horiz-adv-x="491" 
d="M140 826h-76v5l53 127h94v-3zM70 0v771h96v-683h301v-88h-397z" />
    <glyph glyph-name="lacute" unicode="&#x13a;" horiz-adv-x="253" 
d="M139 816h-76v5l53 127h94v-3zM70 771h93v-618q0 -34 13.5 -46.5t46.5 -12.5v-94q-88 0 -120.5 31t-32.5 121v619z" />
    <glyph glyph-name="uni013B" unicode="&#x13b;" horiz-adv-x="491" 
d="M70 0v771h96v-683h301v-88h-397zM156 -202q44 26 55.5 57t11.5 88h93q0 -77 -28.5 -118.5t-97.5 -71.5z" />
    <glyph glyph-name="uni013C" unicode="&#x13c;" horiz-adv-x="253" 
d="M70 771h93v-618q0 -34 13.5 -46.5t46.5 -12.5v-94q-88 0 -120.5 31t-32.5 121v619zM36 -202q44 26 55.5 57t11.5 88h93q0 -77 -28.5 -118.5t-97.5 -71.5z" />
    <glyph glyph-name="Lcaron" unicode="&#x13d;" horiz-adv-x="491" 
d="M70 0v771h96v-683h301v-88h-397zM301 771h82l-45 -176h-69z" />
    <glyph glyph-name="lcaron" unicode="&#x13e;" horiz-adv-x="334" 
d="M252 772h82l-47 -177h-67zM70 771h93v-618q0 -34 13.5 -46.5t46.5 -12.5v-94q-88 0 -120.5 31t-32.5 121v619z" />
    <glyph glyph-name="Ldot" unicode="&#x13f;" horiz-adv-x="491" 
d="M70 0v771h96v-683h301v-88h-397zM258 372q0 35 28 49.5t56 0t28 -49.5t-28 -49.5t-56 0t-28 49.5z" />
    <glyph glyph-name="ldot" unicode="&#x140;" horiz-adv-x="374" 
d="M70 771h93v-618q0 -34 13.5 -46.5t46.5 -12.5v-94q-88 0 -120.5 31t-32.5 121v619zM237 367q0 35 28 49.5t56 0t28 -49.5t-28 -49.5t-56 0t-28 49.5z" />
    <glyph glyph-name="Lslash" unicode="&#x141;" horiz-adv-x="491" 
d="M166 88h301v-88h-397v303l-58 -26v73l58 26v395h96v-351l156 70v-73l-156 -70v-259z" />
    <glyph glyph-name="lslash" unicode="&#x142;" horiz-adv-x="251" 
d="M230 405l-67 -29v-223q0 -34 13.5 -46.5t46.5 -12.5v-94q-88 0 -120.5 31t-32.5 121v183l-55 -24v68l55 24v368h93v-327l67 30v-69z" />
    <glyph glyph-name="Nacute" unicode="&#x143;" horiz-adv-x="570" 
d="M303 826h-76v5l53 127h94v-3zM420 181l-14 262v328h95v-771h-89l-254 554l6 -253v-301h-95v771h90z" />
    <glyph glyph-name="nacute" unicode="&#x144;" horiz-adv-x="583" 
d="M326 651h-76v5l53 127h94v-3zM79 585h85l6 -59q42 69 150 69q100 0 147 -48.5t47 -162.5v-384h-96v383q0 61 -30.5 93t-83.5 32q-57 0 -93 -32t-36 -92v-384h-96v585z" />
    <glyph glyph-name="uni0145" unicode="&#x145;" horiz-adv-x="570" 
d="M420 181l-14 262v328h95v-771h-89l-254 554l6 -253v-301h-95v771h90zM165 -202q44 26 55.5 57t11.5 88h93q0 -77 -28.5 -118.5t-97.5 -71.5z" />
    <glyph glyph-name="uni0146" unicode="&#x146;" horiz-adv-x="583" 
d="M79 585h85l6 -59q42 69 150 69q100 0 147 -48.5t47 -162.5v-384h-96v383q0 61 -30.5 93t-83.5 32q-57 0 -93 -32t-36 -92v-384h-96v585zM179 -202q44 26 55.5 57t11.5 88h93q0 -77 -28.5 -118.5t-97.5 -71.5z" />
    <glyph glyph-name="Ncaron" unicode="&#x147;" horiz-adv-x="570" 
d="M252 829l-124 122v7h93l57 -57l58 57h93v-7l-120 -122h-57zM420 181l-14 262v328h95v-771h-89l-254 554l6 -253v-301h-95v771h90z" />
    <glyph glyph-name="ncaron" unicode="&#x148;" horiz-adv-x="583" 
d="M275 654l-124 122v7h93l57 -57l58 57h93v-7l-120 -122h-57zM79 585h85l6 -59q42 69 150 69q100 0 147 -48.5t47 -162.5v-384h-96v383q0 61 -30.5 93t-83.5 32q-57 0 -93 -32t-36 -92v-384h-96v585z" />
    <glyph glyph-name="Eng" unicode="&#x14a;" horiz-adv-x="551" 
d="M414 181l-14 262v328h95v-795q1 -89 -33 -135.5t-113 -46.5q-24 0 -45 6l18 73q16 -2 24 -2q42 1 55.5 26.5t13.5 77.5v17l-263 562l6 -253v-301h-95v771h90z" />
    <glyph glyph-name="eng" unicode="&#x14b;" horiz-adv-x="584" 
d="M79 585h85l6 -59q42 69 150 69q100 0 147 -48.5t47 -162.5v-374q3 -180 -147 -180q-26 0 -42 5l13 84q8 -2 25 -2q20 0 32 5t16.5 18t5.5 23.5t1 35.5v12v372q0 61 -30.5 93t-83.5 32q-57 0 -93 -32t-36 -92v-384h-96v585z" />
    <glyph glyph-name="Omacron" unicode="&#x14c;" horiz-adv-x="621" 
d="M187 914h245v-74h-245v74zM559 250q0 -68 -9.5 -112.5t-36 -80t-76.5 -51.5t-128 -16t-128 16t-76.5 51.5t-36 80t-9.5 112.5v271q0 68 9.5 112.5t36 80t76.5 51.5t128 16t128 -16t76.5 -51.5t36 -80t9.5 -112.5v-271zM463 522q0 42 -2 65.5t-10.5 47t-25 34.5t-45 18
t-71.5 7t-71.5 -7t-45 -18t-25 -34.5t-10.5 -47t-2 -65.5v-273q0 -52 4 -79t19 -50.5t46 -32t85 -8.5t85 8.5t46 32t19 50.5t4 79v273z" />
    <glyph glyph-name="omacron" unicode="&#x14d;" 
d="M146 739h245v-74h-245v74zM269 -10q-118 0 -168.5 51.5t-50.5 171.5v170q0 112 56.5 162t162.5 50t162.5 -50t56.5 -162v-170q0 -119 -51.5 -171t-167.5 -52zM269 73q67 0 95.5 31t28.5 109v170q0 75 -29.5 101t-94.5 26t-94.5 -26t-29.5 -101v-170q0 -78 29 -109t95 -31
z" />
    <glyph glyph-name="Ohungarumlaut" unicode="&#x150;" horiz-adv-x="621" 
d="M184 835l65 114h94v-2l-79 -112h-80zM338 834l65 115h94v-2l-78 -113h-81zM559 250q0 -68 -9.5 -112.5t-36 -80t-76.5 -51.5t-128 -16t-128 16t-76.5 51.5t-36 80t-9.5 112.5v271q0 68 9.5 112.5t36 80t76.5 51.5t128 16t128 -16t76.5 -51.5t36 -80t9.5 -112.5v-271z
M463 522q0 42 -2 65.5t-10.5 47t-25 34.5t-45 18t-71.5 7t-71.5 -7t-45 -18t-25 -34.5t-10.5 -47t-2 -65.5v-273q0 -52 4 -79t19 -50.5t46 -32t85 -8.5t85 8.5t46 32t19 50.5t4 79v273z" />
    <glyph glyph-name="ohungarumlaut" unicode="&#x151;" 
d="M143 660l65 114h94v-2l-79 -112h-80zM297 659l65 115h94v-2l-78 -113h-81zM269 -10q-118 0 -168.5 51.5t-50.5 171.5v170q0 112 56.5 162t162.5 50t162.5 -50t56.5 -162v-170q0 -119 -51.5 -171t-167.5 -52zM269 73q67 0 95.5 31t28.5 109v170q0 75 -29.5 101t-94.5 26
t-94.5 -26t-29.5 -101v-170q0 -78 29 -109t95 -31z" />
    <glyph glyph-name="OE" unicode="&#x152;" horiz-adv-x="744" 
d="M692 771v-83h-247v-232h219v-89h-219v-278h257v-89h-401q-78 0 -128 15.5t-76.5 51t-36 79.5t-9.5 112v254q0 68 9.5 112.5t36 79.5t76.5 51t128 16h391zM147 257q0 -52 4 -79.5t19 -52t46.5 -33.5t84.5 -9h54v609h-54q-43 0 -71.5 -7.5t-45 -19.5t-25 -37t-10.5 -49
t-2 -66v-256z" />
    <glyph glyph-name="oe" unicode="&#x153;" horiz-adv-x="862" 
d="M818 168q0 -178 -217 -178q-131 0 -164 92q-44 -92 -168 -92q-118 0 -168.5 51.5t-50.5 171.5v169q0 213 219 213q127 0 167 -87q44 87 165 87q219 0 219 -213v-129h-343v-44q0 -76 28.5 -103t95.5 -27q124 0 124 89h93zM269 73q66 0 94.5 30.5t29.5 109.5v167
q0 75 -30 102t-94 27q-65 0 -94.5 -26t-29.5 -101v-169q0 -78 29 -109t95 -31zM477 338h251v44q0 74 -32 100.5t-95 26.5q-61 0 -92 -27t-32 -102v-42z" />
    <glyph glyph-name="Racute" unicode="&#x154;" horiz-adv-x="540" 
d="M285 826h-76v5l53 127h94v-3zM496 508q0 -96 -33 -149t-111 -68l167 -291h-112l-155 285h-87v-285h-95v771h207q107 0 163 -48.5t56 -160.5v-54zM165 682v-306h112q67 0 95.5 27.5t28.5 104.5v54q0 74 -26.5 95t-97.5 25h-112z" />
    <glyph glyph-name="racute" unicode="&#x155;" horiz-adv-x="348" 
d="M217 651h-76v5l53 127h94v-3zM319 494q-72 12 -118 -18t-46 -95v-381h-95v585h87l4 -48q17 26 51 42t75 16q23 0 42 -4v-97z" />
    <glyph glyph-name="uni0156" unicode="&#x156;" horiz-adv-x="540" 
d="M496 508q0 -96 -33 -149t-111 -68l167 -291h-112l-155 285h-87v-285h-95v771h207q107 0 163 -48.5t56 -160.5v-54zM165 682v-306h112q67 0 95.5 27.5t28.5 104.5v54q0 74 -26.5 95t-97.5 25h-112zM166 -202q44 26 55.5 57t11.5 88h93q0 -77 -28.5 -118.5t-97.5 -71.5z
" />
    <glyph glyph-name="uni0157" unicode="&#x157;" horiz-adv-x="348" 
d="M319 494q-72 12 -118 -18t-46 -95v-381h-95v585h87l4 -48q17 26 51 42t75 16q23 0 42 -4v-97zM-3 -202q44 26 55.5 57t11.5 88h93q0 -77 -28.5 -118.5t-97.5 -71.5z" />
    <glyph glyph-name="Rcaron" unicode="&#x158;" horiz-adv-x="540" 
d="M234 829l-124 122v7h93l57 -57l58 57h93v-7l-120 -122h-57zM496 508q0 -96 -33 -149t-111 -68l167 -291h-112l-155 285h-87v-285h-95v771h207q107 0 163 -48.5t56 -160.5v-54zM165 682v-306h112q67 0 95.5 27.5t28.5 104.5v54q0 74 -26.5 95t-97.5 25h-112z" />
    <glyph glyph-name="rcaron" unicode="&#x159;" horiz-adv-x="348" 
d="M166 654l-124 122v7h93l57 -57l58 57h93v-7l-120 -122h-57zM319 494q-72 12 -118 -18t-46 -95v-381h-95v585h87l4 -48q17 26 51 42t75 16q23 0 42 -4v-97z" />
    <glyph glyph-name="Sacute" unicode="&#x15a;" horiz-adv-x="567" 
d="M300 826h-76v5l53 127h94v-3zM402 583q-4 53 -30 80.5t-93 27.5q-75 0 -101.5 -31t-26.5 -95q0 -29 10 -49.5t23 -31.5t40 -19t44 -10.5t53 -5.5q4 0 6.5 -0.5t6.5 -1t7 -0.5q78 -8 129.5 -58.5t51.5 -161.5q0 -125 -51.5 -181t-170.5 -56h-19q-226 0 -237 208h103
q4 -54 34 -84.5t99 -30.5h19q74 0 99.5 33t25.5 106q0 37 -10.5 62.5t-24 39.5t-41 23t-47 11.5t-56.5 5.5t-68.5 14t-61 33t-46.5 61t-17 92q0 110 54 163.5t173 53.5q112 0 164.5 -50t57.5 -148h-99z" />
    <glyph glyph-name="sacute" unicode="&#x15b;" horiz-adv-x="488" 
d="M268 652h-76v5l53 127h94v-3zM350 423q0 86 -107 86q-105 0 -105 -96q0 -23 7.5 -37.5t24 -21.5t33.5 -9.5t44 -4.5h4t3.5 -0.5t4 -0.5h3.5q33 -3 55.5 -7t51 -15t46 -28t30 -47t12.5 -71q0 -89 -56.5 -135t-150.5 -46q-204 0 -212 186h96q7 -99 116 -99q53 0 82.5 25
t29.5 68q0 25 -11 41.5t-33 25t-43 12.5t-53 6q-179 13 -179 158q0 83 52 132.5t151 49.5q100 0 148.5 -44.5t46.5 -127.5h-91z" />
    <glyph glyph-name="Scedilla" unicode="&#x15e;" horiz-adv-x="567" 
d="M522 227q0 -117 -45 -173t-146 -63l-8 -42q51 0 72.5 -31.5t12.5 -69.5q-11 -44 -43.5 -68.5t-76.5 -21.5q-65 4 -92 51l34 49q19 -32 60 -32q38 0 48 34q9 28 -15 44.5t-58 1.5l-14 13l-2 -1l16 72q-210 7 -221 208h103q4 -54 34 -84.5t99 -30.5h19q74 0 99.5 33
t25.5 106q0 37 -10.5 62.5t-24 39.5t-41 23t-47 11.5t-56.5 5.5t-68.5 14t-61 33t-46.5 61t-17 92q0 110 54 163.5t173 53.5q112 0 164.5 -50t57.5 -148h-99q-4 53 -30 80.5t-93 27.5q-75 0 -101.5 -31t-26.5 -95q0 -29 10 -49.5t23 -31.5t40 -19t44 -10.5t53 -5.5
q4 0 6.5 -0.5t6.5 -1t7 -0.5q78 -8 129.5 -58.5t51.5 -161.5z" />
    <glyph glyph-name="scedilla" unicode="&#x15f;" horiz-adv-x="488" 
d="M457 171q0 -81 -47.5 -126.5t-128.5 -53.5l-8 -42q51 0 72.5 -31.5t12.5 -69.5q-11 -44 -43.5 -68.5t-76.5 -21.5q-65 4 -92 51l34 49q19 -32 60 -32q38 0 48 34q9 28 -15 44.5t-58 1.5l-14 13l-2 -1l16 74q-170 15 -177 184h96q7 -99 116 -99q53 0 82.5 25t29.5 68
q0 25 -11 41.5t-33 25t-43 12.5t-53 6q-179 13 -179 158q0 83 52 132.5t151 49.5q100 0 148.5 -44.5t46.5 -127.5h-91q0 86 -107 86q-105 0 -105 -96q0 -23 7.5 -37.5t24 -21.5t33.5 -9.5t44 -4.5h4t3.5 -0.5t4 -0.5h3.5q33 -3 55.5 -7t51 -15t46 -28t30 -47t12.5 -71z" />
    <glyph glyph-name="Scaron" unicode="&#x160;" horiz-adv-x="567" 
d="M249 829l-124 122v7h93l57 -57l58 57h93v-7l-120 -122h-57zM402 583q-4 53 -30 80.5t-93 27.5q-75 0 -101.5 -31t-26.5 -95q0 -29 10 -49.5t23 -31.5t40 -19t44 -10.5t53 -5.5q4 0 6.5 -0.5t6.5 -1t7 -0.5q78 -8 129.5 -58.5t51.5 -161.5q0 -125 -51.5 -181t-170.5 -56
h-19q-226 0 -237 208h103q4 -54 34 -84.5t99 -30.5h19q74 0 99.5 33t25.5 106q0 37 -10.5 62.5t-24 39.5t-41 23t-47 11.5t-56.5 5.5t-68.5 14t-61 33t-46.5 61t-17 92q0 110 54 163.5t173 53.5q112 0 164.5 -50t57.5 -148h-99z" />
    <glyph glyph-name="scaron" unicode="&#x161;" horiz-adv-x="488" 
d="M217 655l-124 122v7h93l57 -57l58 57h93v-7l-120 -122h-57zM350 423q0 86 -107 86q-105 0 -105 -96q0 -23 7.5 -37.5t24 -21.5t33.5 -9.5t44 -4.5h4t3.5 -0.5t4 -0.5h3.5q33 -3 55.5 -7t51 -15t46 -28t30 -47t12.5 -71q0 -89 -56.5 -135t-150.5 -46q-204 0 -212 186h96
q7 -99 116 -99q53 0 82.5 25t29.5 68q0 25 -11 41.5t-33 25t-43 12.5t-53 6q-179 13 -179 158q0 83 52 132.5t151 49.5q100 0 148.5 -44.5t46.5 -127.5h-91z" />
    <glyph glyph-name="uni0162" unicode="&#x162;" horiz-adv-x="600" 
 />
    <glyph glyph-name="uni0163" unicode="&#x163;" horiz-adv-x="293" 
d="M192 -51q51 0 72.5 -31.5t12.5 -69.5q-11 -44 -43.5 -68.5t-76.5 -21.5q-65 4 -92 51l34 49q19 -32 60 -32q38 0 48 34q9 28 -15 44.5t-58 1.5l-14 13l-2 -1l20 93q-74 33 -74 150v526l93 11v-113h101v-90h-101v-331q0 -46 24 -64.5t81 -11.5v-88q-38 -3 -61 -2z" />
    <glyph glyph-name="Tcaron" unicode="&#x164;" horiz-adv-x="431" 
d="M187 829l-124 122v7h93l57 -57l58 57h93v-7l-120 -122h-57zM263 683v-683h-95v683h-160v88h415v-88h-160z" />
    <glyph glyph-name="tcaron" unicode="&#x165;" horiz-adv-x="398" 
d="M320 702h83l-51 -166h-61zM64 687l93 11v-113h101v-90h-101v-331q0 -46 24 -64.5t81 -11.5v-88q-110 -12 -154 30t-44 131v526z" />
    <glyph glyph-name="Tbar" unicode="&#x166;" horiz-adv-x="432" 
d="M423 683h-160v-250h95v-67h-95v-366h-95v366h-93v67h93v250h-160v88h415v-88z" />
    <glyph glyph-name="tbar" unicode="&#x167;" horiz-adv-x="282" 
d="M157 164q0 -46 24 -64.5t81 -11.5v-88q-110 -12 -154 30t-44 131v150h-51v60h51v316l93 11v-113h101v-90h-101v-124h70v-60h-70v-147z" />
    <glyph glyph-name="Umacron" unicode="&#x16a;" horiz-adv-x="602" 
d="M175 914h245v-74h-245v74zM440 772h96v-522q0 -133 -52.5 -196.5t-184.5 -63.5t-185.5 63.5t-53.5 196.5v521l96 1v-523q0 -96 28.5 -133t114.5 -37t113.5 37t27.5 133v523z" />
    <glyph glyph-name="umacron" unicode="&#x16b;" horiz-adv-x="571" 
d="M161 718h245v-74h-245v74zM501 0h-85l-6 59q-42 -69 -150 -69q-100 0 -147 48.5t-47 162.5v384h96v-383q0 -61 30.5 -93t83.5 -32q57 0 93 32t36 92v384h96v-585z" />
    <glyph glyph-name="Uring" unicode="&#x16e;" horiz-adv-x="602" 
d="M191 900q0 49 31.5 76.5t75.5 27.5q43 0 75.5 -27.5t32.5 -75.5q0 -49 -31.5 -77t-77.5 -28t-76.5 27.5t-29.5 76.5zM298 945q-29 0 -41 -22.5t0 -45t41 -22.5q30 0 42 22.5t-0.5 45t-41.5 22.5zM440 772h96v-522q0 -133 -52.5 -196.5t-184.5 -63.5t-185.5 63.5
t-53.5 196.5v521l96 1v-523q0 -96 28.5 -133t114.5 -37t113.5 37t27.5 133v523z" />
    <glyph glyph-name="uring" unicode="&#x16f;" horiz-adv-x="571" 
d="M177 704q0 49 31.5 76.5t75.5 27.5q43 0 75.5 -27.5t32.5 -75.5q0 -49 -31.5 -77t-77.5 -28t-76.5 27.5t-29.5 76.5zM284 749q-29 0 -41 -22.5t0 -45t41 -22.5q30 0 42 22.5t-0.5 45t-41.5 22.5zM501 0h-85l-6 59q-42 -69 -150 -69q-100 0 -147 48.5t-47 162.5v384h96
v-383q0 -61 30.5 -93t83.5 -32q57 0 93 32t36 92v384h96v-585z" />
    <glyph glyph-name="Uhungarumlaut" unicode="&#x170;" horiz-adv-x="602" 
d="M172 835l65 114h94v-2l-79 -112h-80zM326 834l65 115h94v-2l-78 -113h-81zM440 772h96v-522q0 -133 -52.5 -196.5t-184.5 -63.5t-185.5 63.5t-53.5 196.5v521l96 1v-523q0 -96 28.5 -133t114.5 -37t113.5 37t27.5 133v523z" />
    <glyph glyph-name="uhungarumlaut" unicode="&#x171;" horiz-adv-x="571" 
d="M158 639l65 114h94v-2l-79 -112h-80zM312 638l65 115h94v-2l-78 -113h-81zM501 0h-85l-6 59q-42 -69 -150 -69q-100 0 -147 48.5t-47 162.5v384h96v-383q0 -61 30.5 -93t83.5 -32q57 0 93 32t36 92v384h96v-585z" />
    <glyph glyph-name="Uogonek" unicode="&#x172;" horiz-adv-x="602" 
d="M536 771v-517q0 -87 -21.5 -142t-71.5 -86q-83 -48 -83 -99q0 -20 18.5 -31t48.5 -4l11 -81q-60 -14 -112.5 7.5t-52.5 77.5q0 28 15.5 55t41.5 43h-31q-132 0 -185.5 63.5t-53.5 196.5v517h96v-518q0 -96 28.5 -133t114.5 -37t113.5 37t27.5 133v518h96z" />
    <glyph glyph-name="uogonek" unicode="&#x173;" horiz-adv-x="585" 
d="M545 -189q-60 -14 -112.5 7.5t-52.5 77.5q0 31 18.5 60t47.5 44h-18l-6 62q-42 -69 -150 -69q-100 0 -147 48.5t-47 162.5v377h96v-376q0 -61 30.5 -93t83.5 -32q57 0 93 32t36 92v377h96v-581q-46 -38 -46 -73q0 -20 18.5 -31t48.5 -4z" />
    <glyph glyph-name="Wcircumflex" unicode="&#x174;" horiz-adv-x="816" 
d="M432 955l124 -122v-7h-93l-57 57l-58 -57h-93v7l120 122h57zM369 730h74l132 -572l56 288l74 325h98l-184 -771h-87l-65 258l-61 277l-61 -277l-65 -258h-87l-184 771h98l74 -325l56 -288z" />
    <glyph glyph-name="wcircumflex" unicode="&#x175;" horiz-adv-x="743" 
d="M397 780l124 -122v-7h-93l-57 57l-58 -57h-93v7l120 122h57zM634 585h100l-168 -585h-95l-48 170l-52 227l-53 -230l-47 -167h-95l-168 585h100l60 -195q12 -40 21.5 -82.5t20.5 -103t14 -72.5q27 138 58 260l54 193h70l55 -193q26 -103 57 -260q3 12 14 72.5t20.5 103
t21.5 82.5z" />
    <glyph glyph-name="Ycircumflex" unicode="&#x176;" horiz-adv-x="461" 
d="M257 955l124 -122v-7h-93l-57 57l-58 -57h-93v7l120 122h57zM231 430l68 192l62 149h103l-186 -448v-323h-95v323l-185 448h103l62 -149z" />
    <glyph glyph-name="ycircumflex" unicode="&#x177;" horiz-adv-x="491" 
d="M276 759l124 -122v-7h-93l-57 57l-58 -57h-93v7l120 122h57zM250 126q21 107 73 277l57 182h99l-183 -586l-35 -111q-28 -88 -79 -112t-134 10l17 81q18 -7 32 -10t30 0t28.5 17.5t21.5 41.5l24 83l-186 586h104l56 -188z" />
    <glyph glyph-name="Ydieresis" unicode="&#x178;" horiz-adv-x="461" 
d="M64 894q0 35 29 49.5t57.5 0.5t28.5 -50q0 -34 -28.5 -48.5t-57.5 -1t-29 49.5zM282 894q0 35 29 49.5t57.5 0.5t28.5 -50q0 -34 -29 -48.5t-57.5 -1t-28.5 49.5zM231 430l68 192l62 149h103l-186 -448v-323h-95v323l-185 448h103l62 -149z" />
    <glyph glyph-name="Zacute" unicode="&#x179;" horiz-adv-x="470" 
d="M285 826h-76v5l53 127h94v-3zM149 87h297v-87h-432l308 687h-267v84h402z" />
    <glyph glyph-name="zacute" unicode="&#x17a;" horiz-adv-x="486" 
d="M285 651h-76v5l53 127h94v-3zM31 15l288 483h-261v87h402v-17l-284 -479h290v-89h-435v15z" />
    <glyph glyph-name="Zdotaccent" unicode="&#x17b;" horiz-adv-x="470" 
d="M205 893q0 26 18 41t39.5 15.5t39.5 -14.5t18 -42q0 -34 -29 -48.5t-57.5 -1t-28.5 49.5zM149 87h297v-87h-432l308 687h-267v84h402z" />
    <glyph glyph-name="zdotaccent" unicode="&#x17c;" horiz-adv-x="486" 
d="M205 718q0 26 18 41t39.5 15.5t39.5 -14.5t18 -42q0 -34 -29 -48.5t-57.5 -1t-28.5 49.5zM31 15l288 483h-261v87h402v-17l-284 -479h290v-89h-435v15z" />
    <glyph glyph-name="Zcaron" unicode="&#x17d;" horiz-adv-x="470" 
d="M234 829l-124 122v7h93l57 -57l58 57h93v-7l-120 -122h-57zM149 87h297v-87h-432l308 687h-267v84h402z" />
    <glyph glyph-name="zcaron" unicode="&#x17e;" horiz-adv-x="486" 
d="M234 654l-124 122v7h93l57 -57l58 57h93v-7l-120 -122h-57zM31 15l288 483h-261v87h402v-17l-284 -479h290v-89h-435v15z" />
    <glyph glyph-name="longs" unicode="&#x17f;" horiz-adv-x="309" 
d="M59 563q0 117 63.5 171t173.5 44v-87q-71 7 -106.5 -20t-35.5 -108v-563h-95v563z" />
    <glyph glyph-name="florin" unicode="&#x192;" horiz-adv-x="386" 
d="M27 543h103v20q0 117 63.5 171t173.5 44v-87q-71 7 -106.5 -20t-35.5 -108v-20h125v-88h-125v-422q0 -117 -63.5 -171t-173.5 -44v87q71 -7 106.5 20t35.5 108v422h-103v88z" />
    <glyph glyph-name="aringacute" unicode="&#x1fb;" horiz-adv-x="513" 
d="M383 916l-86 -84h-73v3l63 81h96zM164 711q0 43 30.5 67.5t72.5 24.5q41 0 72 -24t31 -67t-30 -68t-74 -25t-73.5 24.5t-28.5 67.5zM267 751q-27 0 -38.5 -19.5t0 -39.5t38.5 -20q29 0 40.5 20t-0.5 39.5t-40 19.5zM461 0h-86l-8 79q-17 -35 -57.5 -59.5t-91.5 -24.5
q-160 0 -174 140q-7 77 41.5 129t138.5 65q45 7 141 9v57q0 54 -24.5 81.5t-86.5 27.5q-45 0 -69 -21.5t-23 -76.5h-93q-3 95 45 140t143 45q100 0 152 -46.5t52 -149.5v-395zM367 259q-90 0 -135 -10q-102 -22 -92 -102q5 -61 88 -61q134 0 139 173z" />
    <glyph glyph-name="AEacute" unicode="&#x1fc;" horiz-adv-x="742" 
d="M402 817v4l53 117h94v-3l-71 -118h-76zM707 771v-80h-262v-235h246v-85h-246v-286h271v-85h-359v184h-188l-70 -184h-97l307 771h398zM357 269v416l-60 -172l-96 -244h156z" />
    <glyph glyph-name="AEacute" unicode="&#x1fd;" horiz-adv-x="742" 
d="M402 817v4l53 117h94v-3l-71 -118h-76zM707 771v-80h-262v-235h246v-85h-246v-286h271v-85h-359v184h-188l-70 -184h-97l307 771h398zM357 269v416l-60 -172l-96 -244h156z" />
    <glyph glyph-name="Oslashacute" unicode="&#x1fe;" horiz-adv-x="596" 
d="M396 955l-71 -129h-76v5l53 127h94v-3zM476 742q44 -29 60 -82t16 -138v-271q0 -68 -9.5 -112.5t-36 -80.5t-76.5 -52t-128 -16q-56 0 -106 10l-30 -80h-80l41 110q-43 30 -59 83t-16 138v271q0 68 9.5 112.5t36 79.5t76.5 51t128 16q64 0 105 -10l31 81h80zM148 249
q0 -90 17 -121l210 558q-27 7 -73 7q-54 0 -85 -8.5t-46 -32.5t-19 -51t-4 -79v-273zM456 249v273q0 90 -17 121l-211 -558q30 -6 74 -6q54 0 85 8.5t46 32t19 50.5t4 79z" />
    <glyph glyph-name="oslashacute" unicode="&#x1ff;" 
d="M362 780l-71 -129h-76v5l53 127h94v-3zM411 561q77 -52 77 -178v-170q0 -119 -51.5 -171t-167.5 -52q-55 0 -92 10l-28 -68h-60l37 89q-76 47 -76 192v170q0 112 56.5 162t162.5 50q51 0 92 -12l29 70h60zM145 214q0 -74 19 -104l165 396q-20 5 -60 5q-65 0 -94.5 -26
t-29.5 -101v-170zM393 214v170q0 66 -17 92l-165 -397q25 -5 58 -5q67 0 95.5 31t28.5 109z" />
    <glyph glyph-name="uni0218" unicode="&#x218;" horiz-adv-x="567" 
d="M402 583q-4 53 -30 80.5t-93 27.5q-75 0 -101.5 -31t-26.5 -95q0 -29 10 -49.5t23 -31.5t40 -19t44 -10.5t53 -5.5q4 0 6.5 -0.5t6.5 -1t7 -0.5q78 -8 129.5 -58.5t51.5 -161.5q0 -125 -51.5 -181t-170.5 -56h-19q-226 0 -237 208h103q4 -54 34 -84.5t99 -30.5h19
q74 0 99.5 33t25.5 106q0 37 -10.5 62.5t-24 39.5t-41 23t-47 11.5t-56.5 5.5t-68.5 14t-61 33t-46.5 61t-17 92q0 110 54 163.5t173 53.5q112 0 164.5 -50t57.5 -148h-99zM194 -202q44 26 55.5 57t11.5 88h93q0 -77 -28.5 -118.5t-97.5 -71.5z" />
    <glyph glyph-name="uni0219" unicode="&#x219;" horiz-adv-x="488" 
d="M350 423q0 86 -107 86q-105 0 -105 -96q0 -23 7.5 -37.5t24 -21.5t33.5 -9.5t44 -4.5h4t3.5 -0.5t4 -0.5h3.5q33 -3 55.5 -7t51 -15t46 -28t30 -47t12.5 -71q0 -89 -56.5 -135t-150.5 -46q-204 0 -212 186h96q7 -99 116 -99q53 0 82.5 25t29.5 68q0 25 -11 41.5t-33 25
t-43 12.5t-53 6q-179 13 -179 158q0 83 52 132.5t151 49.5q100 0 148.5 -44.5t46.5 -127.5h-91zM144 -202q44 26 55.5 57t11.5 88h93q0 -77 -28.5 -118.5t-97.5 -71.5z" />
    <glyph glyph-name="uni021A" unicode="&#x21a;" horiz-adv-x="431" 
d="M263 683v-683h-95v683h-160v88h415v-88h-160zM108 -202q44 26 55.5 57t11.5 88h93q0 -77 -28.5 -118.5t-97.5 -71.5z" />
    <glyph glyph-name="uni021B" unicode="&#x21b;" horiz-adv-x="293" 
d="M64 687l93 11v-113h101v-90h-101v-331q0 -46 24 -64.5t81 -11.5v-88q-110 -12 -154 30t-44 131v526zM73 -197q39 29 49.5 63t10.5 96h83q0 -84 -25.5 -129.5t-87.5 -78.5z" />
    <glyph glyph-name="uni0237" unicode="&#x237;" horiz-adv-x="242" 
d="M173 -27q0 -92 -41.5 -131t-130.5 -31v85q17 -3 31 -1t25 8t17 23.5t6 46.5v612h93v-612z" />
    <glyph glyph-name="circumflex" unicode="&#x2c6;" horiz-adv-x="355" 
d="M203 945l124 -122v-7h-93l-57 57l-58 -57h-93v7l120 122h57z" />
    <glyph glyph-name="caron" unicode="&#x2c7;" horiz-adv-x="414" 
d="M181 819l-124 122v7h93l57 -57l58 57h93v-7l-120 -122h-57z" />
    <glyph glyph-name="breve" unicode="&#x2d8;" horiz-adv-x="314" 
d="M155 817q-133 0 -127 131h71q0 -33 11 -49t45 -16t44.5 16t10.5 49h71q6 -131 -126 -131z" />
    <glyph glyph-name="dotaccent" unicode="&#x2d9;" horiz-adv-x="212" 
d="M50 883q0 35 29 49.5t57.5 0.5t28.5 -50q0 -34 -28.5 -48.5t-57.5 -1t-29 49.5z" />
    <glyph glyph-name="ring" unicode="&#x2da;" horiz-adv-x="320" 
d="M61 890q0 49 31.5 76.5t75.5 27.5q43 0 75.5 -27.5t32.5 -75.5q0 -49 -31.5 -77t-77.5 -28t-76.5 27.5t-29.5 76.5zM168 935q-29 0 -41 -22.5t0 -45t41 -22.5q30 0 42 22.5t-0.5 45t-41.5 22.5z" />
    <glyph glyph-name="ogonek" unicode="&#x2db;" horiz-adv-x="403" 
d="M235 -73q0 -20 18.5 -31t48.5 -4l11 -81q-60 -14 -112.5 7.5t-52.5 77.5q0 31 18.5 60t47.5 44h67q-46 -38 -46 -73z" />
    <glyph glyph-name="tilde" unicode="&#x2dc;" horiz-adv-x="357" 
d="M40 860q11 45 45.5 65.5t76.5 5.5l45 -21q38 -14 51 26l57 -23q-10 -51 -44 -70t-72 -4l-44 20q-45 16 -60 -25z" />
    <glyph glyph-name="hungarumlaut" unicode="&#x2dd;" horiz-adv-x="369" 
d="M43 825l65 114h94v-2l-79 -112h-80zM197 824l65 115h94v-2l-78 -113h-81z" />
    <glyph glyph-name="uni0326" unicode="&#x326;" horiz-adv-x="0" 
d="M-203 -202q44 26 55.5 57t11.5 88h93q0 -77 -28.5 -118.5t-97.5 -71.5z" />
    <glyph glyph-name="uni03BC" unicode="&#x3bc;" horiz-adv-x="543" 
d="M59 581h99v-369q0 -137 117 -137q58 0 86.5 34t28.5 115v356h95v-580h-81l-10 55q-14 -38 -47 -59.5t-75 -21.5q-95 0 -120 69v-264h-93v802z" />
    <glyph glyph-name="Wgrave" unicode="&#x1e80;" horiz-adv-x="816" 
d="M375 826l-71 129v3h97l53 -127v-5h-79zM369 730h74l132 -572l56 288l74 325h98l-184 -771h-87l-65 258l-61 277l-61 -277l-65 -258h-87l-184 771h98l74 -325l56 -288z" />
    <glyph glyph-name="wgrave" unicode="&#x1e81;" horiz-adv-x="743" 
d="M340 651l-71 129v3h97l53 -127v-5h-79zM634 585h100l-168 -585h-95l-48 170l-52 227l-53 -230l-47 -167h-95l-168 585h100l60 -195q12 -40 21.5 -82.5t20.5 -103t14 -72.5q27 138 58 260l54 193h70l55 -193q26 -103 57 -260q3 12 14 72.5t20.5 103t21.5 82.5z" />
    <glyph glyph-name="Wacute" unicode="&#x1e82;" horiz-adv-x="816" 
d="M428 826h-76v5l53 127h94v-3zM369 730h74l132 -572l56 288l74 325h98l-184 -771h-87l-65 258l-61 277l-61 -277l-65 -258h-87l-184 771h98l74 -325l56 -288z" />
    <glyph glyph-name="wacute" unicode="&#x1e83;" horiz-adv-x="743" 
d="M393 651h-76v5l53 127h94v-3zM634 585h100l-168 -585h-95l-48 170l-52 227l-53 -230l-47 -167h-95l-168 585h100l60 -195q12 -40 21.5 -82.5t20.5 -103t14 -72.5q27 138 58 260l54 193h70l55 -193q26 -103 57 -260q3 12 14 72.5t20.5 103t21.5 82.5z" />
    <glyph glyph-name="Wdieresis" unicode="&#x1e84;" horiz-adv-x="816" 
d="M239 894q0 35 29 49.5t57.5 0.5t28.5 -50q0 -34 -29 -48.5t-57.5 -1t-28.5 49.5zM457 894q0 26 18 41t39.5 15.5t39.5 -14.5t18 -42q0 -34 -29 -48.5t-57.5 -1t-28.5 49.5zM369 730h74l132 -572l56 288l74 325h98l-184 -771h-87l-65 258l-61 277l-61 -277l-65 -258h-87
l-184 771h98l74 -325l56 -288z" />
    <glyph glyph-name="wdieresis" unicode="&#x1e85;" horiz-adv-x="743" 
d="M204 719q0 35 29 49.5t57.5 0.5t28.5 -50q0 -34 -28.5 -48.5t-57.5 -1t-29 49.5zM422 719q0 35 29 49.5t57.5 0.5t28.5 -50q0 -34 -29 -48.5t-57.5 -1t-28.5 49.5zM634 585h100l-168 -585h-95l-48 170l-52 227l-53 -230l-47 -167h-95l-168 585h100l60 -195
q12 -40 21.5 -82.5t20.5 -103t14 -72.5q27 138 58 260l54 193h70l55 -193q26 -103 57 -260q3 12 14 72.5t20.5 103t21.5 82.5z" />
    <glyph glyph-name="Ygrave" unicode="&#x1ef2;" horiz-adv-x="461" 
d="M200 826l-71 129v3h97l53 -127v-5h-79zM231 430l68 192l62 149h103l-186 -448v-323h-95v323l-185 448h103l62 -149z" />
    <glyph glyph-name="ygrave" unicode="&#x1ef3;" horiz-adv-x="491" 
d="M219 630l-71 129v3h97l53 -127v-5h-79zM250 126q21 107 73 277l57 182h99l-183 -586l-35 -111q-28 -88 -79 -112t-134 10l17 81q18 -7 32 -10t30 0t28.5 17.5t21.5 41.5l24 83l-186 586h104l56 -188z" />
    <glyph glyph-name="endash" unicode="&#x2013;" horiz-adv-x="612" 
d="M77 376h458v-77h-458v77z" />
    <glyph glyph-name="emdash" unicode="&#x2014;" horiz-adv-x="714" 
d="M77 378h560v-77h-560v77z" />
    <glyph glyph-name="quoteleft" unicode="&#x2018;" horiz-adv-x="245" 
d="M193 772l-46 -191h-88l67 191h67z" />
    <glyph glyph-name="quoteright" unicode="&#x2019;" horiz-adv-x="240" 
d="M61 580l47 195h88l-67 -195h-68z" />
    <glyph glyph-name="quotesinglbase" unicode="&#x201a;" horiz-adv-x="252" 
d="M43 -115l46 194h88l-67 -194h-67z" />
    <glyph glyph-name="quotedblleft" unicode="&#x201c;" horiz-adv-x="378" 
d="M180 772l-47 -193h-88l68 193h67zM326 772l-48 -193h-88l68 193h68z" />
    <glyph glyph-name="quotedblright" unicode="&#x201d;" horiz-adv-x="387" 
d="M63 581l47 190h88l-67 -190h-68zM209 581l46 190h88l-67 -190h-67z" />
    <glyph glyph-name="quotedblbase" unicode="&#x201e;" horiz-adv-x="397" 
d="M42 -115l47 194h88l-67 -194h-68zM188 -115l46 194h88l-67 -194h-67z" />
    <glyph glyph-name="dagger" unicode="&#x2020;" horiz-adv-x="578" 
d="M539 507h-206v-557h-87v557h-207v75h207v193h87v-193h206v-75z" />
    <glyph glyph-name="daggerdbl" unicode="&#x2021;" horiz-adv-x="623" 
d="M562 509h-207v-253h207v-75h-207v-234h-87v234h-207v75h207v253h-207v75h207v192h87v-192h207v-75z" />
    <glyph glyph-name="bullet" unicode="&#x2022;" horiz-adv-x="405" 
d="M203 210q-49 0 -80.5 30t-31.5 79t31.5 79.5t80.5 30.5q47 0 78.5 -31t31.5 -80t-31.5 -79t-78.5 -30v1z" />
    <glyph glyph-name="ellipsis" unicode="&#x2026;" horiz-adv-x="591" 
d="M50 45q0 26 17.5 41t40.5 15q24 0 40.5 -14.5t16.5 -41.5q0 -26 -17.5 -40.5t-41.5 -14.5q-23 0 -39.5 14.5t-16.5 40.5zM241 45q0 26 17.5 41t40.5 15q24 0 40.5 -14.5t16.5 -41.5q0 -26 -17.5 -40.5t-41.5 -14.5q-23 0 -39.5 14.5t-16.5 40.5zM432 45q0 26 17.5 41
t40.5 15q24 0 40.5 -14.5t16.5 -41.5q0 -26 -17.5 -40.5t-41.5 -14.5q-23 0 -39.5 14.5t-16.5 40.5z" />
    <glyph glyph-name="perthousand" unicode="&#x2030;" horiz-adv-x="1141" 
d="M530 779l-225 -793h-74l227 793h72zM176 395q-75 0 -110.5 36t-35.5 112v86q0 148 146 148q76 0 112 -36t36 -112v-86q0 -76 -36 -112t-112 -36zM176 468q38 0 52.5 19.5t14.5 59.5v80q0 40 -14 58.5t-53 18.5q-37 0 -51.5 -19t-14.5 -58v-80q0 -40 14.5 -59.5
t51.5 -19.5zM599 0q-75 0 -110.5 36t-35.5 112v86q0 148 146 148q76 0 112 -36t36 -112v-86q0 -76 -36 -112t-112 -36zM961 0q-75 0 -110.5 36t-35.5 112v86q0 148 146 148q76 0 112 -36t36 -112v-86q0 -76 -36 -112t-112 -36zM599 73q38 0 52.5 19.5t14.5 59.5v80
q0 40 -14 58.5t-53 18.5q-37 0 -51.5 -19t-14.5 -58v-80q0 -40 14.5 -59.5t51.5 -19.5zM961 73q38 0 52.5 19.5t14.5 59.5v80q0 40 -14 58.5t-53 18.5q-37 0 -51.5 -19t-14.5 -58v-80q0 -40 14.5 -59.5t51.5 -19.5z" />
    <glyph glyph-name="guilsinglleft" unicode="&#x2039;" horiz-adv-x="326" 
d="M49 298l138 220h88l-137 -220l137 -221h-88z" />
    <glyph glyph-name="guilsinglright" unicode="&#x203a;" horiz-adv-x="328" 
d="M190 297l-137 220h88l138 -220l-138 -221h-88z" />
    <glyph glyph-name="fraction" unicode="&#x2044;" horiz-adv-x="163" 
d="M-133 0l356 771h94l-356 -771h-94z" />
    <glyph glyph-name="Euro" unicode="&#x20ac;" horiz-adv-x="537" 
d="M504 8q-53 -22 -102 -22q-76 0 -131 20t-89.5 60t-54 90t-30.5 119h-68v76h59q-1 4 -1 29q0 22 1 33h-60v77h69q21 132 96 211.5t208 79.5q41 0 88 -18l-22 -80q-29 11 -64 11q-52 0 -90 -14t-62 -42.5t-38 -63t-25 -84.5h216l-15 -77h-216v-31v-28h203l-12 -76h-177
q19 -103 64.5 -153t151.5 -50q41 0 80 19l21 -83v-3z" />
    <glyph glyph-name="trademark" unicode="&#x2122;" horiz-adv-x="502" 
d="M244 769h69l42 -124l42 124h69v-318h-56v106l5 91l-47 -141h-26l-47 141l5 -91v-106h-56v318zM204 714h-61v-262h-57v262h-61v54h179v-54z" />
    <glyph glyph-name="i.loclTRK" horiz-adv-x="241" 
d="M69 708q0 26 18 41t39.5 15.5t39.5 -14.5t18 -42q0 -34 -29 -48.5t-57.5 -1t-28.5 49.5zM79 0v585h95v-585h-95z" />
    <glyph glyph-name="a.alt" horiz-adv-x="556" 
d="M495 0h-80l-12 70q-23 -80 -137 -80q-203 0 -203 201v196q0 108 59 158t159 50q214 0 214 -208v-387zM400 387q0 68 -31.5 94t-87.5 26q-59 0 -90.5 -30.5t-31.5 -89.5v-185q0 -66 27 -94.5t80 -28.5q66 0 100 33.5t34 119.5v155z" />
    <glyph glyph-name="aacute.alt" horiz-adv-x="556" 
d="M309 651h-76v5l53 127h94v-3zM495 0h-80l-12 70q-23 -80 -137 -80q-203 0 -203 201v196q0 108 59 158t159 50q214 0 214 -208v-387zM400 387q0 68 -31.5 94t-87.5 26q-59 0 -90.5 -30.5t-31.5 -89.5v-185q0 -66 27 -94.5t80 -28.5q66 0 100 33.5t34 119.5v155z" />
    <glyph glyph-name="abreve.alt" horiz-adv-x="556" 
d="M287 652q-133 0 -127 131h71q0 -33 11 -49t45 -16t44.5 16t10.5 49h71q6 -131 -126 -131zM495 0h-80l-12 70q-23 -80 -137 -80q-203 0 -203 201v196q0 108 59 158t159 50q214 0 214 -208v-387zM400 387q0 68 -31.5 94t-87.5 26q-59 0 -90.5 -30.5t-31.5 -89.5v-185
q0 -66 27 -94.5t80 -28.5q66 0 100 33.5t34 119.5v155z" />
    <glyph glyph-name="acircumflex.alt" horiz-adv-x="556" 
d="M313 780l124 -122v-7h-93l-57 57l-58 -57h-93v7l120 122h57zM495 0h-80l-12 70q-23 -80 -137 -80q-203 0 -203 201v196q0 108 59 158t159 50q214 0 214 -208v-387zM400 387q0 68 -31.5 94t-87.5 26q-59 0 -90.5 -30.5t-31.5 -89.5v-185q0 -66 27 -94.5t80 -28.5
q66 0 100 33.5t34 119.5v155z" />
    <glyph glyph-name="adieresis.alt" horiz-adv-x="556" 
d="M120 719q0 35 29 49.5t57.5 0.5t28.5 -50q0 -34 -28.5 -48.5t-57.5 -1t-29 49.5zM338 719q0 35 29 49.5t57.5 0.5t28.5 -50q0 -34 -29 -48.5t-57.5 -1t-28.5 49.5zM495 0h-80l-12 70q-23 -80 -137 -80q-203 0 -203 201v196q0 108 59 158t159 50q214 0 214 -208v-387z
M400 387q0 68 -31.5 94t-87.5 26q-59 0 -90.5 -30.5t-31.5 -89.5v-185q0 -66 27 -94.5t80 -28.5q66 0 100 33.5t34 119.5v155z" />
    <glyph glyph-name="agrave.alt" horiz-adv-x="556" 
d="M256 651l-71 129v3h97l53 -127v-5h-79zM495 0h-80l-12 70q-23 -80 -137 -80q-203 0 -203 201v196q0 108 59 158t159 50q214 0 214 -208v-387zM400 387q0 68 -31.5 94t-87.5 26q-59 0 -90.5 -30.5t-31.5 -89.5v-185q0 -66 27 -94.5t80 -28.5q66 0 100 33.5t34 119.5v155z
" />
    <glyph glyph-name="amacron.alt" horiz-adv-x="556" 
d="M164 739h245v-74h-245v74zM495 0h-80l-12 70q-23 -80 -137 -80q-203 0 -203 201v196q0 108 59 158t159 50q214 0 214 -208v-387zM400 387q0 68 -31.5 94t-87.5 26q-59 0 -90.5 -30.5t-31.5 -89.5v-185q0 -66 27 -94.5t80 -28.5q66 0 100 33.5t34 119.5v155z" />
    <glyph glyph-name="aogonek.alt" horiz-adv-x="555" 
d="M527 -189q-60 -14 -112.5 7.5t-52.5 77.5t53 104l-12 67q-11 -32 -47 -54.5t-90 -22.5q-203 0 -203 201v196q0 108 59 158t159 50q214 0 214 -208v-387q-46 -38 -46 -73q0 -20 18.5 -31t48.5 -4zM400 387q0 68 -31.5 94t-87.5 26q-59 0 -90.5 -30.5t-31.5 -89.5v-185
q0 -66 27 -94.5t80 -28.5q66 0 100 33.5t34 119.5v155z" />
    <glyph glyph-name="aring.alt" horiz-adv-x="556" 
d="M180 725q0 49 31.5 76.5t75.5 27.5q43 0 75.5 -27.5t32.5 -75.5q0 -49 -31.5 -77t-77.5 -28t-76.5 27.5t-29.5 76.5zM287 770q-29 0 -41 -22.5t0 -45t41 -22.5q30 0 42 22.5t-0.5 45t-41.5 22.5zM495 0h-80l-12 70q-23 -80 -137 -80q-203 0 -203 201v196q0 108 59 158
t159 50q214 0 214 -208v-387zM400 387q0 68 -31.5 94t-87.5 26q-59 0 -90.5 -30.5t-31.5 -89.5v-185q0 -66 27 -94.5t80 -28.5q66 0 100 33.5t34 119.5v155z" />
    <glyph glyph-name="aringacute.alt" horiz-adv-x="555" 
d="M399 905l-63 -84h-73v3l41 81h95zM188 706q0 -41 29.5 -64.5t74.5 -23.5q44 0 74 23.5t30 65.5q0 41 -31 64.5t-73 23.5q-43 0 -73.5 -23t-30.5 -64v-2zM291 744q28 0 40.5 -19t0.5 -38.5t-41 -19.5q-28 0 -40 19.5t0 38.5t40 19zM495 0h-80l-12 70q-23 -80 -137 -80
q-203 0 -203 201v196q0 108 59 158t159 50q214 0 214 -208v-387zM400 387q0 68 -31.5 94t-87.5 26q-59 0 -90.5 -30.5t-31.5 -89.5v-185q0 -66 27 -94.5t80 -28.5q66 0 100 33.5t34 119.5v155z" />
    <glyph glyph-name="atilde.alt" horiz-adv-x="556" 
d="M149 695q11 45 45.5 65.5t76.5 5.5l45 -21q38 -14 51 26l57 -23q-10 -51 -44 -70t-72 -4l-44 20q-45 16 -60 -25zM495 0h-80l-12 70q-23 -80 -137 -80q-203 0 -203 201v196q0 108 59 158t159 50q214 0 214 -208v-387zM400 387q0 68 -31.5 94t-87.5 26q-59 0 -90.5 -30.5
t-31.5 -89.5v-185q0 -66 27 -94.5t80 -28.5q66 0 100 33.5t34 119.5v155z" />
    <glyph glyph-name="g.alt" horiz-adv-x="586" 
d="M108 -34q62 -75 164 -75q68 0 113.5 26.5t45.5 86.5q0 53 -25 85q-75 -25 -140 -23t-112.5 26t-75 80.5t-27.5 140.5v33q0 129 56 189t173 60q89 0 150 -41q17 23 49.5 37t69.5 14l14 -83q-47 -8 -75 -37q21 -49 21 -146v-25q0 -100 -42 -166q62 -57 62 -141
q0 -207 -256 -207q-138 0 -214 95zM280 156q75 0 104 41.5t29 126.5v12q0 86 -29 129t-104 43t-104 -41.5t-29 -126.5v-16q0 -85 29 -126.5t104 -41.5z" />
    <glyph glyph-name="gbreve.alt" horiz-adv-x="586" 
d="M300 652q-133 0 -127 131h71q0 -33 11 -49t45 -16t44.5 16t10.5 49h71q6 -131 -126 -131zM108 -34q62 -75 164 -75q68 0 113.5 26.5t45.5 86.5q0 53 -25 85q-75 -25 -140 -23t-112.5 26t-75 80.5t-27.5 140.5v33q0 129 56 189t173 60q89 0 150 -41q17 23 49.5 37t69.5 14
l14 -83q-47 -8 -75 -37q21 -49 21 -146v-25q0 -100 -42 -166q62 -57 62 -141q0 -207 -256 -207q-138 0 -214 95zM280 156q75 0 104 41.5t29 126.5v12q0 86 -29 129t-104 43t-104 -41.5t-29 -126.5v-16q0 -85 29 -126.5t104 -41.5z" />
    <glyph glyph-name="gcircumflex.alt" horiz-adv-x="586" 
d="M326 780l124 -122v-7h-93l-57 57l-58 -57h-93v7l120 122h57zM108 -34q62 -75 164 -75q68 0 113.5 26.5t45.5 86.5q0 53 -25 85q-75 -25 -140 -23t-112.5 26t-75 80.5t-27.5 140.5v33q0 129 56 189t173 60q89 0 150 -41q17 23 49.5 37t69.5 14l14 -83q-47 -8 -75 -37
q21 -49 21 -146v-25q0 -100 -42 -166q62 -57 62 -141q0 -207 -256 -207q-138 0 -214 95zM280 156q75 0 104 41.5t29 126.5v12q0 86 -29 129t-104 43t-104 -41.5t-29 -126.5v-16q0 -85 29 -126.5t104 -41.5z" />
    <glyph glyph-name="uni0123.alt" horiz-adv-x="585" 
d="M398 789q-44 -24 -55.5 -52.5t-11.5 -81.5h-93q0 71 28.5 110t98.5 66zM108 -34q62 -75 164 -75q68 0 113.5 26.5t45.5 86.5q0 53 -25 85q-75 -25 -140 -23t-112.5 26t-75 80.5t-27.5 140.5v33q0 129 56 189t173 60q89 0 150 -41q17 23 49.5 37t69.5 14l14 -83
q-47 -8 -75 -37q21 -49 21 -146v-25q0 -100 -42 -166q62 -57 62 -141q0 -207 -256 -207q-138 0 -214 95zM280 156q75 0 104 41.5t29 126.5v12q0 86 -29 129t-104 43t-104 -41.5t-29 -126.5v-16q0 -85 29 -126.5t104 -41.5z" />
    <glyph glyph-name="gdotaccent.alt" horiz-adv-x="586" 
d="M242 718q0 35 29 49.5t57.5 0.5t28.5 -50q0 -34 -29 -48.5t-57.5 -1t-28.5 49.5zM108 -34q62 -75 164 -75q68 0 113.5 26.5t45.5 86.5q0 53 -25 85q-75 -25 -140 -23t-112.5 26t-75 80.5t-27.5 140.5v33q0 129 56 189t173 60q89 0 150 -41q17 23 49.5 37t69.5 14l14 -83
q-47 -8 -75 -37q21 -49 21 -146v-25q0 -100 -42 -166q62 -57 62 -141q0 -207 -256 -207q-138 0 -214 95zM280 156q75 0 104 41.5t29 126.5v12q0 86 -29 129t-104 43t-104 -41.5t-29 -126.5v-16q0 -85 29 -126.5t104 -41.5z" />
    <glyph glyph-name="y.alt" horiz-adv-x="583" 
d="M499 584v-604q0 -115 -57 -169t-159 -54q-97 0 -148 40.5t-55 133.5h90q4 -49 33 -68t81 -19q62 0 94 30.5t32 105.5v96q-12 -32 -49 -55.5t-91 -23.5q-203 0 -203 201v386h96v-375q0 -66 27 -94.5t80 -28.5q66 0 100 33.5t34 119.5v345h95z" />
    <glyph glyph-name="yacute.alt" horiz-adv-x="583" 
d="M306 651h-76v5l53 127h94v-3zM499 584v-604q0 -115 -57 -169t-159 -54q-97 0 -148 40.5t-55 133.5h90q4 -49 33 -68t81 -19q62 0 94 30.5t32 105.5v96q-12 -32 -49 -55.5t-91 -23.5q-203 0 -203 201v386h96v-375q0 -66 27 -94.5t80 -28.5q66 0 100 33.5t34 119.5v345h95z
" />
    <glyph glyph-name="ycircumflex.alt" horiz-adv-x="583" 
d="M310 780l124 -122v-7h-93l-57 57l-58 -57h-93v7l120 122h57zM499 584v-604q0 -115 -57 -169t-159 -54q-97 0 -148 40.5t-55 133.5h90q4 -49 33 -68t81 -19q62 0 94 30.5t32 105.5v96q-12 -32 -49 -55.5t-91 -23.5q-203 0 -203 201v386h96v-375q0 -66 27 -94.5t80 -28.5
q66 0 100 33.5t34 119.5v345h95z" />
    <glyph glyph-name="ydieresis.alt" horiz-adv-x="583" 
d="M117 719q0 26 18 41t39.5 15.5t39.5 -14.5t18 -42q0 -34 -29 -48.5t-57.5 -1t-28.5 49.5zM335 719q0 35 29 49.5t57.5 0.5t28.5 -50q0 -34 -29 -48.5t-57.5 -1t-28.5 49.5zM499 584v-604q0 -115 -57 -169t-159 -54q-97 0 -148 40.5t-55 133.5h90q4 -49 33 -68t81 -19
q62 0 94 30.5t32 105.5v96q-12 -32 -49 -55.5t-91 -23.5q-203 0 -203 201v386h96v-375q0 -66 27 -94.5t80 -28.5q66 0 100 33.5t34 119.5v345h95z" />
    <glyph glyph-name="ygrave.alt" horiz-adv-x="583" 
d="M253 651l-71 129v3h97l53 -127v-5h-79zM499 584v-604q0 -115 -57 -169t-159 -54q-97 0 -148 40.5t-55 133.5h90q4 -49 33 -68t81 -19q62 0 94 30.5t32 105.5v96q-12 -32 -49 -55.5t-91 -23.5q-203 0 -203 201v386h96v-375q0 -66 27 -94.5t80 -28.5q66 0 100 33.5
t34 119.5v345h95z" />
    <glyph glyph-name="_0004" horiz-adv-x="0" 
 />
    <glyph glyph-name="_127" horiz-adv-x="600" 
 />
    <glyph glyph-name="_129" horiz-adv-x="600" 
 />
    <glyph glyph-name="_141" horiz-adv-x="600" 
 />
    <glyph glyph-name="null" horiz-adv-x="0" 
 />
    </font>
</defs>
</svg>
