<?xml version="1.0" standalone="no"?>
<!DOCTYPE svg PUBLIC "-//W3C//DTD SVG 1.1//EN" "http://www.w3.org/Graphics/SVG/1.1/DTD/svg11.dtd" >
<svg xmlns="http://www.w3.org/2000/svg" xmlns:xlink="http://www.w3.org/1999/xlink" version="1.1">
<metadata>
Created by FontForge 20170731 at Mon Sep  3 18:43:26 2018
 By Aleksey,,,
Copyright (c) 2012 by Svet Simov. All rights reserved.
</metadata>
<defs>
<font id="KelsonSans-Bold" horiz-adv-x="564" >
  <font-face 
    font-family="Kelson Sans"
    font-weight="700"
    font-stretch="normal"
    units-per-em="1000"
    panose-1="0 0 8 0 0 0 0 0 0 0"
    ascent="750"
    descent="-250"
    x-height="585"
    cap-height="771"
    bbox="-213 -269.846 1131 1007"
    underline-thickness="50"
    underline-position="-250"
    unicode-range="U+000D-FB02"
  />
<missing-glyph horiz-adv-x="628" 
d="M42 773h538v-773h-538v773zM481 485v2q0 182 -161 182q-52 0 -86.5 -13.5t-50 -39t-21 -51t-5.5 -61.5h71q0 54 19.5 75t70.5 21q47 0 67 -25.5t21 -89.5v-1q0 -34 -11 -56.5t-27 -32t-35.5 -21.5t-35.5 -24.5t-27 -41t-11 -71.5h72q0 39 15.5 62t37.5 34.5t44 25
t37.5 44.5t15.5 82zM250 145q0 -28 22.5 -39t45 1t22.5 38q0 28 -22.5 39t-45 -0.5t-22.5 -38.5z" />
    <glyph glyph-name="fi" unicode="fi" horiz-adv-x="566" 
d="M501 0h-137v464h-168v-464h-137v590q0 99 62 149t185 41l1 -118q-63 4 -87 -9.5t-24 -64.5v-3h305v-585zM356 709q0 48 38.5 67.5t77.5 0t39 -67.5q0 -35 -24 -55.5t-53.5 -20.5t-53.5 20t-24 56z" />
    <glyph glyph-name="fl" unicode="fl" horiz-adv-x="606" 
d="M317 657q-121 20 -121 -91v-31h110v-126h-110v-409h-137v568q0 97 51.5 155t155.5 58q24 0 51 -3v-121zM372 771h137v-553q0 -50 13.5 -68t55.5 -18v-132q-120 0 -163 45t-43 171v555z" />
    <glyph glyph-name=".notdef" horiz-adv-x="628" 
d="M42 773h538v-773h-538v773zM481 485v2q0 182 -161 182q-52 0 -86.5 -13.5t-50 -39t-21 -51t-5.5 -61.5h71q0 54 19.5 75t70.5 21q47 0 67 -25.5t21 -89.5v-1q0 -34 -11 -56.5t-27 -32t-35.5 -21.5t-35.5 -24.5t-27 -41t-11 -71.5h72q0 39 15.5 62t37.5 34.5t44 25
t37.5 44.5t15.5 82zM250 145q0 -28 22.5 -39t45 1t22.5 38q0 28 -22.5 39t-45 -0.5t-22.5 -38.5z" />
    <glyph glyph-name=".null" horiz-adv-x="0" 
 />
    <glyph glyph-name="nonmarkingreturn" horiz-adv-x="333" 
 />
    <glyph glyph-name="CR" unicode="&#xd;" horiz-adv-x="268" 
 />
    <glyph glyph-name="space" unicode=" " horiz-adv-x="251" 
 />
    <glyph glyph-name="exclam" unicode="!" horiz-adv-x="268" 
d="M202 196h-126v574h136zM60 72q0 36 24 56.5t53.5 20.5t53.5 -20.5t24 -56.5q0 -35 -24 -55.5t-53.5 -20.5t-53.5 20t-24 56z" />
    <glyph glyph-name="quotedbl" unicode="&#x22;" horiz-adv-x="350" 
d="M39 542l-4 227h116l-4 -227h-108zM214 542l-4 227h116l-4 -227h-108z" />
    <glyph glyph-name="numbersign" unicode="#" horiz-adv-x="701" 
d="M107 565h100l41 198h113l-41 -198h145l41 198h113l-41 -198h98l-23 -107h-98l-29 -144h98l-23 -107h-97l-42 -207h-114l42 207h-145l-42 -207h-113l42 207h-100l23 107h100l29 144h-100zM268 314h145l29 144h-145z" />
    <glyph glyph-name="dollar" unicode="$" horiz-adv-x="589" 
d="M243 -5q-199 21 -199 214h139q2 -47 28 -69t89 -22t92 28.5t29 93.5q0 19 -5.5 33.5t-18.5 24.5t-24 16.5t-33.5 11.5t-34.5 7t-38.5 5t-35.5 4q-179 23 -179 213t191 215v108h123v-109q161 -26 176 -200h-139q-3 47 -28 65.5t-77 18.5q-58 0 -82.5 -21.5t-24.5 -75.5
q0 -20 4 -35t14.5 -25.5t20.5 -16.5t30.5 -11t34.5 -7t43 -5.5t47 -6.5q38 -6 65.5 -16.5t54 -32.5t40.5 -61t14 -94q0 -116 -46 -176t-147 -73v-105h-123v104z" />
    <glyph glyph-name="percent" unicode="%" horiz-adv-x="827" 
d="M587 771l-224 -785l-134 14l223 784zM176 395q-75 0 -110.5 36t-35.5 112v86q0 148 146 148q76 0 112 -36t36 -112v-86q0 -76 -36 -112t-112 -36zM176 502q25 0 34.5 13.5t9.5 42.5v57q0 29 -9.5 42t-34.5 13q-24 0 -33.5 -13t-9.5 -42v-57q0 -29 9.5 -42.5t33.5 -13.5z
M639 0q-75 0 -110.5 36t-35.5 112v86q0 148 146 148q76 0 112 -36t36 -112v-86q0 -76 -36 -112t-112 -36zM639 107q25 0 34.5 13.5t9.5 42.5v57q0 29 -9.5 42t-34.5 13q-24 0 -33.5 -13t-9.5 -42v-57q0 -29 9.5 -42.5t33.5 -13.5z" />
    <glyph glyph-name="ampersand" unicode="&#x26;" horiz-adv-x="656" 
d="M627 -14q-121 4 -151 95q-21 -46 -72.5 -71.5t-102.5 -25.5q-119 0 -184 58.5t-65 180.5q0 60 35.5 112.5t94.5 76.5q-94 41 -94 158q0 90 66.5 153t163.5 63q108 0 165.5 -55t54.5 -153h-133q1 43 -23 61.5t-64 18.5q-38 0 -64 -26.5t-26 -63.5t26 -65.5t64 -28.5h304
v-122h-79v-137q0 -96 83 -97zM408 352h-91q-55 0 -89.5 -35.5t-34.5 -88.5q-1 -55 30 -85t80 -30q43 0 74 27t31 77v135z" />
    <glyph glyph-name="quotesingle" unicode="'" horiz-adv-x="184" 
d="M39 542l-4 227h116l-4 -227h-108z" />
    <glyph glyph-name="parenleft" unicode="(" horiz-adv-x="303" 
d="M196 21q0 -45 19.5 -68t64.5 -21v-139q-113 -3 -167.5 58t-54.5 168v544q0 107 54.5 168t167.5 58v-139q-45 2 -64.5 -21t-19.5 -68v-540z" />
    <glyph glyph-name="parenright" unicode=")" horiz-adv-x="312" 
d="M115 21v540q0 45 -19.5 68t-64.5 21v139q113 3 167.5 -58t54.5 -168v-544q0 -107 -54.5 -168t-167.5 -58v139q45 -2 64.5 21t19.5 68z" />
    <glyph glyph-name="asterisk" unicode="*" horiz-adv-x="351" 
d="M244 487q-35 34 -51 83q-16 2 -25 1q-15 -48 -51 -84l-87 87q38 38 82 51q2 8 2 24q-50 17 -85 52l88 88q36 -36 51 -84h24q14 45 52 83l87 -87q-36 -36 -83 -51q-1 -8 -1 -24q49 -15 84 -52z" />
    <glyph glyph-name="plus" unicode="+" horiz-adv-x="482" 
d="M444 316h-144v-148h-123v148h-144v114h144v149h123v-149h144v-114z" />
    <glyph glyph-name="comma" unicode="," horiz-adv-x="209" 
d="M0 -95q17 12 26.5 23.5t13.5 29t5.5 25t0.5 36t-1 37.5h116q7 -87 -22 -140.5t-98 -79.5z" />
    <glyph glyph-name="hyphen" unicode="-" horiz-adv-x="528" 
d="M472 282h-411v115h411v-115z" />
    <glyph glyph-name="period" unicode="." horiz-adv-x="241" 
d="M50 72q0 36 24 56.5t53.5 20.5t53.5 -20.5t24 -56.5q0 -35 -24 -55.5t-53.5 -20.5t-53.5 20t-24 56z" />
    <glyph glyph-name="slash" unicode="/" horiz-adv-x="431" 
d="M388 770l-221 -771h-127l220 771h128z" />
    <glyph glyph-name="zero" unicode="0" horiz-adv-x="558" 
d="M281 -10q-117 0 -173 55.5t-56 174.5v331q0 116 56.5 173t172.5 57q117 0 173 -55.5t56 -174.5v-331q0 -119 -56 -174.5t-173 -55.5zM281 112q51 0 71 28.5t20 86.5v317q0 58 -20 86.5t-71 28.5t-71 -28.5t-20 -86.5v-317q0 -58 20 -86.5t71 -28.5z" />
    <glyph glyph-name="one" unicode="1" horiz-adv-x="423" 
d="M24 113h125v539h-98v119h237v-658h119v-113h-383v113z" />
    <glyph glyph-name="two" unicode="2" horiz-adv-x="535" 
d="M49 158q0 68 17 117.5t44 77.5t59.5 47.5t65 34t59.5 31t44 44t17 66.5q0 83 -80 83q-46 0 -65 -21.5t-19 -86.5h-138q0 117 53 173.5t170 56.5q109 0 163 -56t54 -147q0 -67 -17 -114t-44 -72t-59.5 -42t-65 -30.5t-59.5 -30.5t-44 -49t-17 -79v-25h295v-136h-433v158z
" />
    <glyph glyph-name="three" unicode="3" horiz-adv-x="536" 
d="M173 237q0 -115 87 -115q48 0 71 24.5t23 81.5q0 60 -28 88.5t-73 28.5h-73v123h73q51 0 74.5 29t23.5 74q0 39 -21.5 62.5t-61.5 23.5q-39 0 -62.5 -23.5t-23.5 -73.5h-129q0 114 52.5 167.5t163.5 53.5q93 0 153 -54.5t60 -158.5q0 -45 -20.5 -91.5t-64.5 -66.5
q54 -20 75 -65t21 -116q0 -112 -59.5 -175.5t-172.5 -63.5q-221 0 -221 247h133z" />
    <glyph glyph-name="four" unicode="4" horiz-adv-x="567" 
d="M14 155l-16 96l304 520h133v-491h74v-125h-74v-155h-133v155h-288zM302 394l15 170l-153 -284h138v114z" />
    <glyph glyph-name="five" unicode="5" horiz-adv-x="540" 
d="M177 251q2 -76 22 -107.5t72 -31.5q51 0 71 28.5t20 86.5v56q0 58 -19 85t-70 27h-228v376h420v-130h-289v-121h97q117 0 172 -55.5t55 -174.5v-70q0 -119 -56 -174.5t-173 -55.5q-119 0 -174.5 59.5t-56.5 201.5h137z" />
    <glyph glyph-name="six" unicode="6" horiz-adv-x="562" 
d="M455 757q-65 -35 -117 -90.5t-80 -105.5q14 1 49 1q95 0 148.5 -52.5t53.5 -159.5v-131q0 -123 -52.5 -176t-174.5 -53q-123 0 -175 53t-52 176v131q0 129 64.5 241.5t165.5 179.5h166zM282 121q48 0 68 20.5t20 77.5v131q0 51 -20 69.5t-68 18.5t-68 -18.5t-20 -69.5
v-131q0 -57 20 -77.5t68 -20.5z" />
    <glyph glyph-name="seven" unicode="7" horiz-adv-x="468" 
d="M447 724l-246 -724h-148l220 641h-260v130h434v-47z" />
    <glyph glyph-name="eight" unicode="8" horiz-adv-x="548" 
d="M269 -10q-117 0 -173 55.5t-56 174.5v54q0 57 18.5 94t61.5 63q-35 23 -52 64t-17 81q0 93 54 149t165 56t165 -56t54 -149q0 -39 -18.5 -82t-47.5 -63q39 -31 57 -67t18 -90v-54q0 -119 -56 -174.5t-173 -55.5zM277 486q34 1 54 27t20 60q0 41 -21 63.5t-60 22.5
t-60 -22.5t-21 -63.5q0 -36 22 -61.5t59 -25.5h7zM269 112q51 0 71 28.5t20 86.5v40q0 57 -19.5 83.5t-71.5 26.5t-71.5 -26t-19.5 -84v-40q0 -58 20 -86.5t71 -28.5z" />
    <glyph glyph-name="nine" unicode="9" horiz-adv-x="562" 
d="M109 14q65 35 117 90.5t80 104.5q-14 -1 -49 -1q-95 0 -148.5 52.5t-53.5 159.5v132q0 123 52.5 176t174.5 53q123 0 175 -53t52 -176v-132q0 -129 -64.5 -241t-165.5 -179h-166zM282 650q-48 0 -68 -20.5t-20 -77.5v-132q0 -51 20 -69.5t68 -18.5t68 18.5t20 69.5v132
q0 57 -20 77.5t-68 20.5z" />
    <glyph glyph-name="colon" unicode=":" horiz-adv-x="249" 
d="M50 414q0 36 24 56.5t53.5 20.5t53.5 -20.5t24 -56.5q0 -35 -24 -55.5t-53.5 -20.5t-53.5 20t-24 56zM50 72q0 36 24 56.5t53.5 20.5t53.5 -20.5t24 -56.5q0 -35 -24 -55.5t-53.5 -20.5t-53.5 20t-24 56z" />
    <glyph glyph-name="semicolon" unicode=";" horiz-adv-x="262" 
d="M56 414q0 36 24 56.5t53.5 20.5t53.5 -20.5t24 -56.5q0 -35 -24 -55.5t-53.5 -20.5t-53.5 20t-24 56zM14 -94q12 9 20.5 17t14 19t8.5 17.5t4.5 21.5t2 20.5t0 26.5t-0.5 28h129q14 -168 -122 -220z" />
    <glyph glyph-name="less" unicode="&#x3c;" horiz-adv-x="420" 
d="M357 483l-161 -149q27 -25 84.5 -76.5t79.5 -71.5l-84 -87l-226 211v48l226 212z" />
    <glyph glyph-name="equal" unicode="=" horiz-adv-x="556" 
d="M478 383h-400v120h400v-120zM478 167h-400v120h400v-120z" />
    <glyph glyph-name="greater" unicode="&#x3e;" horiz-adv-x="421" 
d="M371 307l-226 -210l-83 84l162 148q-12 11 -160 153l81 86l226 -214v-47z" />
    <glyph glyph-name="question" unicode="?" horiz-adv-x="534" 
d="M30 573q0 215 225 219q102 0 165.5 -54.5t63.5 -169.5v-60q0 -60 -18 -100.5t-43 -61.5t-50.5 -38.5t-43.5 -44t-18 -65.5h-138q0 54 18 94t43.5 63.5t51.5 43t44 45.5t18 60v63q0 99 -91 99q-90 0 -90 -93h-137zM165 72q0 48 38.5 67.5t77.5 0t39 -67.5q0 -35 -24 -55.5
t-53.5 -20.5t-53.5 20t-24 56z" />
    <glyph glyph-name="at" unicode="@" horiz-adv-x="798" 
d="M319 631q-71 0 -95 -27.5t-24 -87.5v-280q0 -60 24 -87.5t95 -27.5h180v-122h-180q-136 0 -196.5 55t-60.5 175v294q0 123 59 176.5t198 53.5h160q140 0 201.5 -54t61.5 -176v-182q0 -95 -41.5 -131.5t-119.5 -36.5q-84 0 -110 61q-13 -14 -21.5 -21t-28.5 -15t-45 -8
q-58 0 -90 32t-32 92v120q0 58 41.5 90.5t100.5 32.5h141v-213q0 -24 1 -35.5t9 -22.5t24 -11q20 0 26.5 15.5t6.5 51.5v184q0 58 -24.5 81.5t-100.5 23.5h-160zM397 298q39 0 39 52v100h-40q-40 0 -40 -42v-64q0 -46 41 -46z" />
    <glyph glyph-name="A" unicode="A" horiz-adv-x="578" 
d="M569 0h-142l-39 136h-197l-40 -136h-142l213 771h137zM353 271l-64 285l-64 -285h128z" />
    <glyph glyph-name="B" unicode="B" horiz-adv-x="623" 
d="M60 771h229q103 0 165 -57t62 -148q0 -42 -14 -74.5t-56 -60.5q62 -13 101.5 -64t39.5 -128q0 -128 -65.5 -183.5t-207.5 -55.5h-254v771zM198 653v-179h92q41 0 62.5 25.5t21.5 64.5q0 36 -19.5 62.5t-65.5 26.5h-91zM197 125h119q75 0 99 25.5t24 85.5t-26.5 85.5
t-98.5 25.5h-117v-222z" />
    <glyph glyph-name="C" unicode="C" horiz-adv-x="623" 
d="M579 230q0 -126 -62.5 -183t-200.5 -57q-136 0 -196.5 55t-60.5 175v331q0 123 59 176.5t198 53.5q140 0 201.5 -55.5t61.5 -183.5h-138q0 62 -25 89.5t-100 27.5q-71 0 -95 -27.5t-24 -87.5v-317q0 -60 24 -87.5t95 -27.5t98 28.5t27 89.5h138z" />
    <glyph glyph-name="D" unicode="D" horiz-adv-x="640" 
d="M324 771q140 0 201.5 -54t61.5 -176v-315q0 -119 -62.5 -172.5t-200.5 -53.5h-253v771h253zM324 125q72 0 98.5 25t26.5 83v301q0 60 -24 85.5t-99 25.5h-118v-520h116z" />
    <glyph glyph-name="E" unicode="E" 
d="M513 771v-120h-305v-199h260v-124h-260v-202h319v-126h-457v771h443z" />
    <glyph glyph-name="F" unicode="F" horiz-adv-x="552" 
d="M520 645h-314v-192h266v-125h-266v-328h-137v771h451v-126z" />
    <glyph glyph-name="G" unicode="G" horiz-adv-x="631" 
d="M318 438h259v-206q0 -127 -63 -184.5t-200 -57.5q-136 0 -196.5 57t-60.5 182v322q0 120 60 175t197 55q140 0 201.5 -53.5t61.5 -176.5h-138q0 58 -24.5 83t-100.5 25q-70 0 -94.5 -28.5t-24.5 -86.5v-315q0 -60 24 -87.5t95 -27.5q73 0 104 29.5t31 88.5v81h-131v125z
" />
    <glyph glyph-name="H" unicode="H" horiz-adv-x="655" 
d="M586 0h-137v318h-240v-318h-139v771h139v-327h240v327h137v-771z" />
    <glyph glyph-name="I" unicode="I" horiz-adv-x="279" 
d="M209 0h-139v771h139v-771z" />
    <glyph glyph-name="J" unicode="J" horiz-adv-x="526" 
d="M466 220q0 -119 -56 -174.5t-173 -55.5q-229 0 -229 237h138q0 -58 20 -86.5t71 -28.5t71 28.5t20 86.5v544h138v-551z" />
    <glyph glyph-name="K" unicode="K" horiz-adv-x="630" 
d="M458 0l-217 309h-39v-309h-137v771h138v-325h37l202 325h161l-251 -386l274 -385h-168z" />
    <glyph glyph-name="L" unicode="L" horiz-adv-x="530" 
d="M506 0h-436v771h139v-645h297v-126z" />
    <glyph glyph-name="M" unicode="M" horiz-adv-x="720" 
d="M345 182l-153 310l16 -220v-272h-138v771h133l157 -342l158 342h133v-771h-138v272l16 220l-153 -310h-31z" />
    <glyph glyph-name="N" unicode="N" horiz-adv-x="623" 
d="M554 0h-134l-226 488l12 -292v-196h-137v771h137l226 -509l-15 325v184h137v-771z" />
    <glyph glyph-name="O" unicode="O" horiz-adv-x="641" 
d="M316 -10q-136 0 -196.5 55t-60.5 175v331q0 123 59 176.5t198 53.5q140 0 201.5 -54t61.5 -176v-331q0 -119 -63 -174.5t-200 -55.5zM316 112q71 0 98 28t27 87v317q0 59 -25 87t-100 28q-70 0 -94.5 -28.5t-24.5 -86.5v-317q0 -60 24 -87.5t95 -27.5z" />
    <glyph glyph-name="P" unicode="P" horiz-adv-x="579" 
d="M264 771q141 0 207 -54.5t66 -175.5v-72q0 -119 -67.5 -176t-205.5 -57h-53v-236h-141v771h194zM264 369q73 0 103 25.5t30 81.5v58q0 58 -27.5 84.5t-103.5 26.5h-56v-276h54z" />
    <glyph glyph-name="Q" unicode="Q" horiz-adv-x="639" 
d="M316 -2q-136 0 -196.5 55t-60.5 175v321q0 123 59.5 177.5t197.5 54.5q139 0 201 -55t62 -177v-314q0 -179 -132 -221q2 -23 6 -36t15.5 -25.5t35.5 -16t62 0.5v-110q-119 -16 -182 28.5t-68 142.5zM316 120q71 0 98 28t27 87v307q0 60 -25 87.5t-100 27.5
q-71 0 -95 -27.5t-24 -87.5v-307q0 -60 24 -87.5t95 -27.5z" />
    <glyph glyph-name="R" unicode="R" horiz-adv-x="594" 
d="M412 0l-153 271h-51v-271h-138v771h194q141 0 207 -55t66 -176v-41q0 -86 -31.5 -135t-101.5 -71l169 -293h-161zM264 398q72 0 100 25.5t28 82.5v27q0 59 -25 85t-101 26h-59v-246h57z" />
    <glyph glyph-name="S" unicode="S" horiz-adv-x="604" 
d="M403 576q-3 47 -28 65.5t-77 18.5q-57 0 -82 -24.5t-25 -79.5q0 -20 4 -35t14.5 -25.5t20.5 -16.5t30.5 -11t34.5 -7t43 -5.5t47 -6.5q38 -6 65.5 -16.5t54 -32.5t40.5 -61t14 -94q0 -134 -61.5 -194.5t-198.5 -60.5q-255 0 -255 217h139q2 -47 27.5 -69t88.5 -22
t92.5 29.5t29.5 94.5q0 19 -5.5 33.5t-18.5 24.5t-24 16.5t-33.5 11.5t-34.5 7t-38.5 5t-35.5 4q-179 23 -179 213q0 108 64 167t182 59q111 0 173 -47.5t71 -157.5h-139z" />
    <glyph glyph-name="T" unicode="T" horiz-adv-x="472" 
d="M464 648h-159v-648h-137v648h-160v123h456v-123z" />
    <glyph glyph-name="U" unicode="U" horiz-adv-x="637" 
d="M433 771h138v-546q0 -117 -67.5 -176t-191.5 -59q-252 0 -252 235v546h138v-539q0 -120 114 -120q60 0 90.5 32t30.5 88v539z" />
    <glyph glyph-name="V" unicode="V" horiz-adv-x="577" 
d="M568 771l-207 -771h-144l-208 771h141l67 -236l72 -360l71 362l67 234h141z" />
    <glyph glyph-name="W" unicode="W" horiz-adv-x="926" 
d="M358 0h-145l-204 771h142l76 -266l55 -314l126 555h106l136 -555l45 314l76 266h142l-193 -771h-146l-113 416z" />
    <glyph glyph-name="X" unicode="X" horiz-adv-x="558" 
d="M173 771l51 -126l55 -164l54 161l52 129h150l-164 -382l178 -389h-149l-60 128l-61 167l-65 -176l-56 -119h-149l178 389l-164 382h150z" />
    <glyph glyph-name="Y" unicode="Y" horiz-adv-x="522" 
d="M525 771l-194 -448v-323h-137v323l-196 448h149l60 -142l56 -165l56 169l57 138h149z" />
    <glyph glyph-name="Z" unicode="Z" horiz-adv-x="527" 
d="M514 771l-296 -649h279v-122h-483l301 648h-259v123h458z" />
    <glyph glyph-name="bracketleft" unicode="[" horiz-adv-x="368" 
d="M335 -148h-244v939h244v-134h-109v-671h109v-134z" />
    <glyph glyph-name="backslash" unicode="\" horiz-adv-x="445" 
d="M407 0h-141l-221 771h142z" />
    <glyph glyph-name="bracketright" unicode="]" horiz-adv-x="377" 
d="M286 -148h-244v134h108v671h-108v134h244v-939z" />
    <glyph glyph-name="asciicircum" unicode="^" horiz-adv-x="645" 
d="M55 428l-1 6l219 329h78l225 -329v-6h-139l-125 196l-126 -196h-131z" />
    <glyph glyph-name="underscore" unicode="_" horiz-adv-x="524" 
d="M491 -3h-456v137h456v-137z" />
    <glyph glyph-name="grave" unicode="`" horiz-adv-x="245" 
d="M0 957h138l57 -136h-119z" />
    <glyph glyph-name="a" unicode="a" horiz-adv-x="543" 
d="M54 387q-7 107 47.5 157.5t163.5 50.5q114 0 167.5 -58t53.5 -174v-363h-112l-13 68q-56 -78 -155 -78q-75 0 -122.5 44t-47.5 125q0 202 319 180q0 70 -19 102t-70 32q-45 0 -63.5 -19.5t-17.5 -66.5h-131zM355 235q-189 19 -189 -65q0 -54 81 -54q96 0 108 119z" />
    <glyph glyph-name="b" unicode="b" horiz-adv-x="566" 
d="M282 -10q-114 0 -170.5 55.5t-56.5 175.5v550h137v-228q42 52 129 52q94 0 142 -55t48 -153v-165q0 -121 -57.5 -176.5t-171.5 -55.5zM285 470q-93 0 -93 -98v-148q0 -57 20 -84.5t70 -27.5q92 0 92 113v146q0 52 -22.5 75t-66.5 24z" />
    <glyph glyph-name="c" unicode="c" horiz-adv-x="553" 
d="M378 373q0 52 -21 76t-71 24q-54 0 -76 -28.5t-22 -86.5v-131q0 -58 20 -86.5t71 -28.5q53 0 75.5 24t23.5 77h130q0 -118 -55.5 -170.5t-173.5 -52.5q-117 0 -173 56t-56 177v135q0 237 233 237q117 0 171 -52t54 -170h-130z" />
    <glyph glyph-name="d" unicode="d" horiz-adv-x="587" 
d="M397 0l-10 65q-35 -75 -139 -75q-194 0 -194 228v157q0 105 50.5 162.5t147.5 57.5q92 0 121 -50v226h137v-771h-113zM284 468q-93 0 -93 -99v-144q0 -113 89 -113q48 0 70.5 34.5t22.5 90.5v135q0 96 -89 96z" />
    <glyph glyph-name="e" unicode="e" 
d="M511 173q0 -93 -56.5 -138t-172.5 -45q-117 0 -173 55.5t-56 174.5v145q0 230 229 230q117 0 173 -55.5t56 -174.5v-120h-320v-23q0 -66 23 -89.5t70 -23.5q92 0 92 64h135zM286 476q-57 0 -76 -28t-19 -87h187q0 61 -18.5 88t-73.5 27z" />
    <glyph glyph-name="f" unicode="f" horiz-adv-x="363" 
d="M339 657q-67 11 -105 -14.5t-38 -76.5v-31h127v-126h-127v-409h-137v568q0 95 60 154t169 59q24 0 51 -3v-121z" />
    <glyph glyph-name="g" unicode="g" horiz-adv-x="549" 
d="M246 -10q-94 0 -145 54.5t-51 166.5v156q0 228 192 228q93 0 134 -75l10 65h113v-600q0 -226 -223 -226q-213 0 -213 187h131q0 -70 82 -70q52 0 73.5 26.5t21.5 83.5v64q-39 -60 -125 -60zM272 111q50 0 71 30t21 90v124q0 118 -90 118q-43 0 -65 -26t-22 -87v-132
q0 -61 21 -89t64 -28z" />
    <glyph glyph-name="h" unicode="h" horiz-adv-x="558" 
d="M366 0v371q0 53 -21 75.5t-65 23.5q-88 0 -88 -98v-372h-137v771h137v-228q42 52 124 52q94 0 140.5 -55t46.5 -153v-387h-137z" />
    <glyph glyph-name="i" unicode="i" horiz-adv-x="280" 
d="M63 705q0 36 23 56t54 20q32 0 55 -20t23 -56q0 -35 -23 -55t-55 -20q-31 0 -54 20t-23 55zM208 -1h-137v586h137v-586z" />
    <glyph glyph-name="j" unicode="j" horiz-adv-x="286" 
d="M73 705q0 36 23 56t54 20q32 0 55 -20t23 -56q0 -35 -23 -55t-55 -20q-31 0 -54 20t-23 55zM218 32q0 -129 -47.5 -174.5t-169.5 -45.5v117q47 0 63.5 17.5t16.5 82.5v553h137v-550z" />
    <glyph glyph-name="k" unicode="k" horiz-adv-x="554" 
d="M395 0l-164 256h-39v-256h-137v771h137v-391h37l146 205h154l-189 -260l209 -325h-154z" />
    <glyph glyph-name="l" unicode="l" horiz-adv-x="306" 
d="M70 771h137v-553q0 -50 13.5 -68t55.5 -18v-132q-120 0 -163 45t-43 171v555z" />
    <glyph glyph-name="m" unicode="m" horiz-adv-x="923" 
d="M74 585h119l9 -55q50 65 139 65q107 0 145 -77q24 35 68.5 55.5t99.5 20.5q195 0 195 -231v-363h-137v363q0 107 -88 107q-43 0 -67.5 -23.5t-25.5 -82.5v-364h-137v363q0 107 -88 107q-95 0 -95 -102v-368h-137v585z" />
    <glyph glyph-name="n" unicode="n" horiz-adv-x="605" 
d="M79 585h119l7 -55q54 64 139 64q83 1 137.5 -52.5t54.5 -177.5v-364h-136v363q0 107 -89 107q-95 0 -95 -102v-368h-137v585z" />
    <glyph glyph-name="o" unicode="o" horiz-adv-x="558" 
d="M279 -10q-117 0 -173 55.5t-56 174.5v145q0 116 56.5 173t172.5 57q117 0 173 -55.5t56 -174.5v-145q0 -119 -56 -174.5t-173 -55.5zM279 112q51 0 71 28.5t20 86.5v131q0 58 -20 86.5t-71 28.5t-71 -28.5t-20 -86.5v-131q0 -58 20 -86.5t71 -28.5z" />
    <glyph glyph-name="p" unicode="p" horiz-adv-x="583" 
d="M179 585l10 -58q37 68 139 68q194 0 194 -228v-157q0 -105 -50.5 -162.5t-147.5 -57.5q-90 0 -121 52v-221h-137v764h113zM292 117q93 0 93 99v144q0 113 -89 113q-93 0 -93 -118v-140q0 -98 89 -98z" />
    <glyph glyph-name="q" unicode="q" horiz-adv-x="568" 
d="M282 595q114 0 170.5 -55.5t56.5 -175.5v-542h-137v220q-42 -52 -129 -52q-94 0 -142 55t-48 153v165q0 121 57.5 176.5t171.5 55.5zM279 115q93 0 93 98v148q0 57 -20 84.5t-70 27.5q-92 0 -92 -113v-146q0 -52 22.5 -75t66.5 -24z" />
    <glyph glyph-name="r" unicode="r" horiz-adv-x="385" 
d="M356 448q-70 9 -114.5 -19t-44.5 -92v-338h-137v586h126l6 -57q16 28 53.5 47.5t81.5 19.5q19 0 29 -2v-145z" />
    <glyph glyph-name="s" unicode="s" horiz-adv-x="521" 
d="M349 407q0 32 -22 48.5t-57 16.5q-40 0 -62.5 -16.5t-22.5 -47.5q0 -16 6 -27t14 -17t24.5 -9.5t28.5 -5t36 -3t38 -3.5q67 -8 112.5 -48t45.5 -113q0 -93 -64 -142.5t-164 -49.5q-105 0 -164.5 49.5t-59.5 135.5h139q2 -33 23 -49t68 -16q38 0 60.5 21t22.5 46
q0 8 -2 15t-7 12t-10 9t-14.5 7t-16.5 5t-19.5 4t-20.5 3t-23 2.5t-23 2.5q-169 22 -169 164q0 96 61 145t162 49q105 0 159.5 -52t54.5 -136h-134z" />
    <glyph glyph-name="t" unicode="t" horiz-adv-x="334" 
d="M64 692l137 15v-112h100v-125h-100v-252q0 -57 19.5 -81.5t82.5 -16.5v-120q-130 -14 -184.5 35.5t-54.5 180.5v476z" />
    <glyph glyph-name="u" unicode="u" horiz-adv-x="596" 
d="M526 0h-122l-7 61q-60 -71 -139 -71q-83 -1 -137.5 52.5t-54.5 177.5v365h136v-364q0 -107 89 -107q42 0 68.5 27.5t26.5 81.5v362h140v-585z" />
    <glyph glyph-name="v" unicode="v" horiz-adv-x="488" 
d="M486 585l-181 -585h-121l-181 585h143l53 -172q28 -111 46 -248q22 149 46 248l52 172h143z" />
    <glyph glyph-name="w" unicode="w" horiz-adv-x="774" 
d="M440 585l45 -184q25 -98 44 -236q21 154 44 248l51 172h141l-171 -585h-131l-35 128l-41 208l-41 -210l-35 -126h-130l-173 585h142l52 -172q21 -85 43 -248q2 10 6.5 52.5t12 86t20.5 99.5q7 28 26 90t28 92h102z" />
    <glyph glyph-name="x" unicode="x" horiz-adv-x="527" 
d="M9 0l178 300l-171 285h144l54 -86q30 -48 50 -103q11 31 52 101l52 88h142l-171 -284l180 -301h-146l-52 88q-30 46 -58 116q-21 -53 -60 -118l-51 -86h-143z" />
    <glyph glyph-name="y" unicode="y" horiz-adv-x="510" 
d="M498 585l-175 -583h1l-32 -114q-19 -65 -51.5 -95.5t-77 -29.5t-101.5 23l21 101q2 -1 12.5 -3.5t14 -3t12 -1.5t12.5 0t10.5 3t10 6.5t7.5 11t7 16.5l23 83l-177 586h143l53 -177q28 -111 46 -248q22 149 46 248l52 177h143z" />
    <glyph glyph-name="z" unicode="z" horiz-adv-x="510" 
d="M31 16l255 449h-229v120h433v-17l-254 -440h254v-128h-459v16z" />
    <glyph glyph-name="braceleft" unicode="{" horiz-adv-x="320" 
d="M89 242q0 70 -69 70v106q69 0 69 70v166q-7 102 56 142t158 15v-104q-5 1 -17.5 2.5t-17.5 2t-14.5 1t-14 -1.5t-10.5 -6.5t-9 -11t-5 -17.5t-2 -25v-163v-13.5v-14.5t-0.5 -13t-1 -14t-1.5 -12t-3 -13t-4.5 -11t-6 -11.5t-8 -10t-9.5 -9.5q17 -13 25 -33.5t9 -36
t1 -44.5v-9v-199q0 -35 12.5 -49t32.5 -11.5t45 4.5v-104q-97 -25 -156 11t-59 146v201z" />
    <glyph glyph-name="bar" unicode="|" horiz-adv-x="275" 
d="M68 772h139v-960h-139v960z" />
    <glyph glyph-name="braceright" unicode="}" horiz-adv-x="337" 
d="M242 242v-201q0 -110 -59 -146t-156 -11v104q25 -2 45 -4.5t32.5 11.5t12.5 49v199v9q0 29 1 44.5t9 36t25 33.5q-17 14 -25 37.5t-8.5 36t-0.5 48.5v163q0 16 -2 28t-8 18.5t-9.5 10.5t-15 4h-16t-20 -2.5t-19.5 -2.5v104q95 25 158 -15t56 -142v-166q0 -70 69 -70v-106
q-69 0 -69 -70z" />
    <glyph glyph-name="asciitilde" unicode="~" horiz-adv-x="646" 
d="M570 347q-23 -65 -61.5 -101.5t-86.5 -36.5q-36 0 -72 16l-118 59q-12 5 -29 5q-29 0 -55 -68l-95 40q21 63 63 101.5t92 38.5q34 0 66 -16h-1l117 -57q13 -7 27 -7q25 0 53 65z" />
    <glyph glyph-name="exclamdown" unicode="&#xa1;" horiz-adv-x="251" 
d="M204 509q0 -36 -24 -56.5t-53.5 -20.5t-53.5 20.5t-24 56.5q0 35 24 55.5t53.5 20.5t53.5 -20t24 -56zM62 385h126v-574h-136z" />
    <glyph glyph-name="cent" unicode="&#xa2;" horiz-adv-x="538" 
d="M370 362q0 108 -92 108q-54 0 -74.5 -28t-20.5 -87v-128q0 -58 20 -86.5t71 -28.5q52 0 73.5 27.5t22.5 80.5h133q0 -191 -157 -223v-79h-140v78q-161 30 -161 224v142q0 191 162 223v86h140v-86q156 -33 156 -223h-133z" />
    <glyph glyph-name="sterling" unicode="&#xa3;" horiz-adv-x="541" 
d="M382 570q0 82 -72 82q-31 0 -51 -21t-20 -60v-123h175v-125h-175v-199h269v-124h-491v125h88v198h-88v125h88v120q0 100 53 156.5t152 56.5q200 0 196 -211h-124z" />
    <glyph glyph-name="currency" unicode="&#xa4;" horiz-adv-x="540" 
d="M122 57l-94 103l51 57q-19 47 -19 97q0 52 21 100q-10 11 -30.5 33t-21.5 23l93 106l56 -62q41 19 84 19q41 0 84 -19q4 4 26 28.5t30 33.5l94 -107l-51 -54q20 -41 20 -99q0 -52 -21 -99l52 -56l-95 -104l-55 61q-41 -18 -85 -18q-43 0 -82 18zM261 219q40 0 62.5 27
t22.5 70q0 44 -22.5 71t-62.5 27q-39 0 -61.5 -29.5t-22.5 -68.5t22.5 -68t61.5 -29z" />
    <glyph glyph-name="yen" unicode="&#xa5;" horiz-adv-x="513" 
d="M519 771l-152 -350h66v-110h-108v-41h108v-110h-108v-160h-137v160h-109v110h109v41h-109v110h66l-153 350h149l60 -142l56 -165l56 169l57 138h149z" />
    <glyph glyph-name="brokenbar" unicode="&#xa6;" horiz-adv-x="206" 
d="M39 408v363h133v-363h-133zM172 337v-388h-133v388h133z" />
    <glyph glyph-name="section" unicode="&#xa7;" horiz-adv-x="522" 
d="M489 51q0 -98 -63 -145t-165 -47q-105 0 -166.5 54.5t-61.5 149.5h139q0 -81 100 -81q39 0 58.5 16.5t19.5 40.5q0 43 -33 60t-115 20q-72 3 -120.5 40.5t-48.5 115.5q0 35 20 67.5t50 50.5q-27 12 -48.5 40.5t-21.5 64.5q0 96 63 148.5t162 52.5q105 0 165.5 -52
t60.5 -141h-139q0 39 -19.5 55t-65.5 16q-40 0 -64 -15.5t-24 -46.5q0 -18 7.5 -30.5t17.5 -19.5t32.5 -11t38.5 -5.5t50 -3.5q74 -3 122.5 -39t48.5 -115q0 -76 -86 -117q86 -46 86 -123zM174 282q0 -23 18 -38.5t44 -19.5t52 -1t44 18t18 38q0 21 -18 36t-44 19t-52 1
t-44 -17t-18 -36z" />
    <glyph glyph-name="dieresis" unicode="&#xa8;" horiz-adv-x="445" 
d="M46 887q0 43 36.5 61.5t73.5 1t37 -62.5q0 -31 -23 -49.5t-50.5 -19.5t-50.5 17.5t-23 51.5zM267 887q0 43 36.5 61.5t73.5 1t37 -62.5q0 -31 -23 -49.5t-50.5 -19.5t-50.5 17.5t-23 51.5z" />
    <glyph glyph-name="copyright" unicode="&#xa9;" horiz-adv-x="842" 
d="M413 733q168 1 262.5 -102t94.5 -252q0 -158 -92.5 -263t-264.5 -105q-173 0 -267 101t-94 260q0 70 24 134t69.5 116t119 82.5t164.5 29.5zM413 644q-128 0 -196 -75.5t-68 -198.5q0 -120 68 -196t196 -76t194 76.5t66 203.5q0 119 -68 192.5t-192 73.5zM570 325
q-1 -91 -37.5 -129t-120.5 -38q-85 0 -124 38.5t-39 124.5v109q0 157 163 157q153 0 159 -160l-96 -1q-1 42 -16 56.5t-47 14.5q-34 0 -49.5 -13.5t-15.5 -53.5v-109q0 -42 15.5 -57.5t49.5 -15.5t48.5 15t14.5 62h95z" />
    <glyph glyph-name="ordfeminine" unicode="&#xaa;" horiz-adv-x="449" 
d="M396 370h-91l-5 32q-35 -33 -94 -33q-171 0 -171 167v72q0 90 49 131.5t133 41.5q179 0 179 -173v-238zM292 608q0 44 -19.5 60.5t-55.5 16.5q-77 0 -77 -77v-64q0 -42 16.5 -59t49.5 -17q43 0 64.5 21t21.5 78v41zM395 315v-102h-345v102h345z" />
    <glyph glyph-name="guillemotleft" unicode="&#xab;" horiz-adv-x="516" 
d="M162 557h137l-140 -226l140 -225h-137l-141 226zM351 557h137l-140 -226l140 -225h-137l-141 226z" />
    <glyph glyph-name="logicalnot" unicode="&#xac;" horiz-adv-x="501" 
d="M327 174v111h-270v116h389v-227h-119z" />
    <glyph glyph-name="uni00AD" unicode="&#xad;" horiz-adv-x="552" 
d="M484 282h-411v115h411v-115z" />
    <glyph glyph-name="registered" unicode="&#xae;" horiz-adv-x="838" 
d="M411 723q172 0 270 -106.5t98 -265.5q0 -158 -98.5 -265t-269.5 -107q-170 0 -269 107t-99 265q0 159 99 265.5t269 106.5zM411 635q-124 0 -194 -79.5t-71 -202.5q0 -123 70.5 -203t194.5 -80t195 80t71 202q0 123 -71 203t-195 80zM467 151l-60 121h-34v-122h-95v414
h140q71 0 111 -30t40 -108v-8q0 -104 -72 -128l81 -139h-111zM373 474v-114h45q28 0 40.5 12t12.5 46v8q0 21 -6.5 31.5t-16 13t-30.5 3.5h-45z" />
    <glyph glyph-name="macron" unicode="&#xaf;" horiz-adv-x="385" 
d="M67 945h254v-116h-254v116z" />
    <glyph glyph-name="degree" unicode="&#xb0;" horiz-adv-x="326" 
d="M157 784q37 0 67 -14.5t45 -38t22.5 -52t0.5 -57t-22 -52t-44.5 -38t-67.5 -14.5q-55 0 -91.5 27.5t-44.5 66.5t1 78t45.5 66.5t88.5 27.5zM156 705q-26 0 -41 -17t-15.5 -37.5t14.5 -37.5t42 -17q34 0 48 27t0 54.5t-48 27.5z" />
    <glyph glyph-name="plusminus" unicode="&#xb1;" horiz-adv-x="497" 
d="M460 322h-144v-148h-123v148h-144v114h144v149h123v-149h144v-114zM51 116h401v-120h-401v120z" />
    <glyph glyph-name="uni00B2" unicode="&#xb2;" horiz-adv-x="317" 
d="M26 442q0 58 30.5 91t78.5 57t48 58q0 32 -30 32q-33 0 -29 -48h-94q-9 139 125 139q58 0 92 -31t34 -90q0 -95 -106 -142q-4 -2 -14 -6.5t-14 -7t-10 -9t-8 -17t-2 -25.5h145v-97h-246v96z" />
    <glyph glyph-name="uni00B3" unicode="&#xb3;" horiz-adv-x="312" 
d="M110 480q1 -27 10.5 -36.5t26.5 -9.5q36 0 36 43q0 41 -36 41h-34v92h33q30 0 30 38q0 30 -29 30q-30 0 -30 -36h-97q0 129 130 129q57 0 92 -30.5t35 -92.5q0 -21 -11.5 -45t-32.5 -35q53 -26 53 -91q0 -64 -37 -101t-103 -37q-70 0 -102 33t-32 108h98z" />
    <glyph glyph-name="acute" unicode="&#xb4;" horiz-adv-x="245" 
d="M183 821h-119l57 136h138z" />
    <glyph glyph-name="uni00B5" unicode="&#xb5;" horiz-adv-x="524" 
d="M36 585h141v-365q0 -103 87 -103q41 0 61 26t20 88v354h140v-585h-116l-11 42q-28 -52 -96 -52q-61 0 -90 44v-237h-136v788z" />
    <glyph glyph-name="paragraph" unicode="&#xb6;" horiz-adv-x="692" 
d="M341 -192h-141v431q-182 25 -180 268q0 53 11.5 97.5t36 83.5t71 61.5t110.5 22.5h415v-134h-80v-830h-139v830h-104v-830z" />
    <glyph glyph-name="periodcentered" unicode="&#xb7;" horiz-adv-x="213" 
d="M22 328q0 38 26.5 60t58.5 22.5t58.5 -21t26.5 -61.5q0 -37 -26.5 -59.5t-58.5 -23t-58.5 21t-26.5 61.5z" />
    <glyph glyph-name="cedilla" unicode="&#xb8;" horiz-adv-x="294" 
d="M47 -87l36 108h104l-25 -77q50 0 78 -32t18 -77q-10 -42 -44 -69.5t-74.5 -33.5t-83.5 7.5t-71 45.5l45 70q13 -13 36.5 -21.5t47.5 -3.5t31 28q7 22 -23 37.5t-75 17.5z" />
    <glyph glyph-name="uni00B9" unicode="&#xb9;" horiz-adv-x="265" 
d="M22 435h64v252h-52v84h146v-336h60v-85h-218v85z" />
    <glyph glyph-name="ordmasculine" unicode="&#xba;" horiz-adv-x="437" 
d="M213 432q-76 0 -127 47t-51 128t50.5 127.5t126.5 46.5q77 0 127 -46.5t50 -126.5q0 -81 -50.5 -128.5t-125.5 -47.5zM213 525q35 0 56.5 22.5t21.5 59.5t-23 61t-56 24q-32 0 -54 -24t-22 -60q0 -37 21 -60t56 -23zM374 389v-99h-321v99h321z" />
    <glyph glyph-name="guillemotright" unicode="&#xbb;" horiz-adv-x="516" 
d="M304 332l-141 -226h-137l140 225l-140 226h137zM493 332l-141 -226h-137l140 225l-140 226h137z" />
    <glyph glyph-name="onequarter" unicode="&#xbc;" horiz-adv-x="757" 
d="M44 436h61v250h-46v85h140v-335h57v-86h-212v86zM500 771h109l-367 -771h-107zM414 79l-11 66l165 268h102v-242h45v-92h-45v-79h-96v79h-160zM578 236l5 56l-66 -121h61v65z" />
    <glyph glyph-name="onehalf" unicode="&#xbd;" horiz-adv-x="786" 
d="M44 436h61v250h-46v85h140v-335h57v-86h-212v86zM500 766h109l-367 -768h-107zM485 96q0 58 30.5 91t78.5 57t48 58q0 32 -30 32q-33 0 -29 -48h-94q-9 139 125 139q58 0 92 -31t34 -90q0 -95 -106 -142q-1 -1 -13.5 -6.5t-15 -8t-9 -10t-8.5 -18t-2 -25.5h151v-94h-252
v96z" />
    <glyph glyph-name="threequarters" unicode="&#xbe;" horiz-adv-x="805" 
d="M145 480q1 -27 10.5 -36.5t26.5 -9.5q36 0 36 43q0 41 -36 41h-34v92h33q30 0 30 38q0 30 -29 30q-30 0 -30 -36h-97q0 127 130 129q57 0 92 -30.5t35 -92.5q0 -21 -11.5 -45t-32.5 -35q53 -26 53 -91q0 -64 -37 -101t-103 -37q-70 0 -102 33t-32 108h98zM543 771h109
l-367 -771h-107zM457 79l-11 66l165 268h102v-242h45v-92h-45v-79h-96v79h-160zM621 236l5 56l-66 -121h61v65z" />
    <glyph glyph-name="questiondown" unicode="&#xbf;" horiz-adv-x="511" 
d="M348 515q0 -36 -24 -56.5t-53.5 -20.5t-53.5 20.5t-24 56.5q0 35 24 55.5t53.5 20.5t53.5 -20t24 -56zM483 14q0 -215 -225 -219q-102 0 -165.5 54.5t-63.5 169.5v60q0 60 18 100.5t43 61.5t50.5 38.5t43.5 44t18 65.5h138q0 -54 -18 -94t-44 -63.5t-51.5 -43
t-43.5 -45.5t-18 -60v-63q0 -99 91 -99q90 0 90 93h137z" />
    <glyph glyph-name="Agrave" unicode="&#xc0;" horiz-adv-x="578" 
d="M151 957h138l57 -136h-119zM569 0h-142l-39 136h-197l-40 -136h-142l213 771h137zM353 271l-64 285l-64 -285h128z" />
    <glyph glyph-name="Aacute" unicode="&#xc1;" horiz-adv-x="578" 
d="M340 821h-119l57 136h138zM569 0h-142l-39 136h-197l-40 -136h-142l213 771h137zM353 271l-64 285l-64 -285h128z" />
    <glyph glyph-name="Acircumflex" unicode="&#xc2;" horiz-adv-x="578" 
d="M245 821h-127v10l142 129h64l141 -129v-10h-128l-45 45zM569 0h-142l-39 136h-197l-40 -136h-142l213 771h137zM353 271l-64 285l-64 -285h128z" />
    <glyph glyph-name="Atilde" unicode="&#xc3;" horiz-adv-x="578" 
d="M126 877q16 52 59 78.5t92 4.5l49 -24q30 -14 46 26l84 -35q-14 -56 -52.5 -86.5t-92.5 -8.5l-54 26q-7 8 -24 3t-26 -26zM569 0h-142l-39 136h-197l-40 -136h-142l213 771h137zM353 271l-64 285l-64 -285h128z" />
    <glyph glyph-name="Adieresis" unicode="&#xc4;" horiz-adv-x="578" 
d="M107 887q0 43 36.5 61.5t73.5 1t37 -62.5q0 -31 -23 -49.5t-50.5 -19.5t-50.5 17.5t-23 51.5zM328 887q0 43 36.5 61.5t73.5 1t37 -62.5q0 -31 -23 -49.5t-50.5 -19.5t-50.5 17.5t-23 51.5zM569 0h-142l-39 136h-197l-40 -136h-142l213 771h137zM353 271l-64 285
l-64 -285h128z" />
    <glyph glyph-name="Aring" unicode="&#xc5;" horiz-adv-x="578" 
d="M170 889q0 55 35.5 86.5t85.5 31.5q52 0 87 -31t35 -86t-35.5 -87t-86.5 -32q-53 0 -87.5 31.5t-33.5 86.5zM291 932q-27 0 -38 -21.5t0 -43t38 -21.5q29 0 40 21.5t-1 43t-39 21.5zM569 0h-142l-39 136h-197l-40 -136h-142l213 771h137zM353 271l-64 285l-64 -285h128z
" />
    <glyph glyph-name="AE" unicode="&#xc6;" horiz-adv-x="753" 
d="M704 771v-120h-219v-198h198v-124h-198v-203h233v-126h-368v145h-147l-49 -145h-151l264 771h437zM350 271v364l-113 -364h113z" />
    <glyph glyph-name="Ccedilla" unicode="&#xc7;" horiz-adv-x="623" 
d="M316 112q71 0 98 28.5t27 89.5h138q0 -115 -52.5 -172.5t-165.5 -65.5l-15 -48q50 0 78 -32t18 -77q-10 -42 -44 -69.5t-74.5 -33.5t-83.5 7.5t-71 45.5l45 70q13 -13 36.5 -21.5t47.5 -3.5t31 28q7 22 -23 37.5t-75 17.5l27 80q-105 10 -152 65t-47 162v331
q0 123 59 176.5t198 53.5q140 0 201.5 -55.5t61.5 -183.5h-138q0 62 -25 89.5t-100 27.5q-71 0 -95 -27.5t-24 -87.5v-317q0 -60 24 -87.5t95 -27.5z" />
    <glyph glyph-name="Egrave" unicode="&#xc8;" 
d="M152 957h138l57 -136h-119zM513 771v-120h-305v-199h260v-124h-260v-202h319v-126h-457v771h443z" />
    <glyph glyph-name="Eacute" unicode="&#xc9;" 
d="M341 821h-119l57 136h138zM513 771v-120h-305v-199h260v-124h-260v-202h319v-126h-457v771h443z" />
    <glyph glyph-name="Ecircumflex" unicode="&#xca;" 
d="M246 821h-127v10l142 129h64l141 -129v-10h-128l-45 45zM513 771v-120h-305v-199h260v-124h-260v-202h319v-126h-457v771h443z" />
    <glyph glyph-name="Edieresis" unicode="&#xcb;" 
d="M108 887q0 43 36.5 61.5t73.5 1t37 -62.5q0 -31 -23 -49.5t-50.5 -19.5t-50.5 17.5t-23 51.5zM329 887q0 43 36.5 61.5t73.5 1t37 -62.5q0 -31 -23 -49.5t-50.5 -19.5t-50.5 17.5t-23 51.5zM513 771v-120h-305v-199h260v-124h-260v-202h319v-126h-457v771h443z" />
    <glyph glyph-name="Igrave" unicode="&#xcc;" horiz-adv-x="279" 
d="M209 0h-139v771h139v-771z" />
    <glyph glyph-name="Iacute" unicode="&#xcd;" horiz-adv-x="279" 
d="M189 821h-119l57 136h138zM209 0h-139v771h139v-771z" />
    <glyph glyph-name="Icircumflex" unicode="&#xce;" horiz-adv-x="279" 
d="M93 818h-127v10l142 129h64l141 -129v-10h-128l-45 45zM209 0h-139v771h139v-771z" />
    <glyph glyph-name="Idieresis" unicode="&#xcf;" horiz-adv-x="279" 
d="M-40 883q0 43 36.5 61.5t73.5 1t37 -62.5q0 -31 -23 -49.5t-50.5 -19.5t-50.5 17.5t-23 51.5zM181 883q0 43 36.5 61.5t73.5 1t37 -62.5q0 -31 -23 -49.5t-50.5 -19.5t-50.5 17.5t-23 51.5zM209 0h-139v771h139v-771z" />
    <glyph glyph-name="Eth" unicode="&#xd0;" horiz-adv-x="640" 
d="M324 771q140 0 201.5 -54t61.5 -176v-315q0 -119 -62.5 -172.5t-200.5 -53.5h-253v337h-64v105h64v329h253zM449 233v301q0 60 -24 85.5t-99 25.5h-118v-203h105v-105h-105v-212h116q72 0 98.5 25t26.5 83z" />
    <glyph glyph-name="Ntilde" unicode="&#xd1;" horiz-adv-x="623" 
d="M147 877q16 52 59 78.5t92 4.5l49 -24q30 -14 46 26l84 -35q-14 -56 -52.5 -86.5t-92.5 -8.5l-54 26q-7 8 -24 3t-26 -26zM554 0h-134l-226 488l12 -292v-196h-137v771h137l226 -509l-15 325v184h137v-771z" />
    <glyph glyph-name="Ograve" unicode="&#xd2;" horiz-adv-x="641" 
d="M176 957h138l57 -136h-119zM316 -10q-136 0 -196.5 55t-60.5 175v331q0 123 59 176.5t198 53.5q140 0 201.5 -54t61.5 -176v-331q0 -119 -63 -174.5t-200 -55.5zM316 112q71 0 98 28t27 87v317q0 59 -25 87t-100 28q-70 0 -94.5 -28.5t-24.5 -86.5v-317q0 -60 24 -87.5
t95 -27.5z" />
    <glyph glyph-name="Oacute" unicode="&#xd3;" horiz-adv-x="641" 
d="M365 821h-119l57 136h138zM316 -10q-136 0 -196.5 55t-60.5 175v331q0 123 59 176.5t198 53.5q140 0 201.5 -54t61.5 -176v-331q0 -119 -63 -174.5t-200 -55.5zM316 112q71 0 98 28t27 87v317q0 59 -25 87t-100 28q-70 0 -94.5 -28.5t-24.5 -86.5v-317q0 -60 24 -87.5
t95 -27.5z" />
    <glyph glyph-name="Ocircumflex" unicode="&#xd4;" horiz-adv-x="641" 
d="M270 821h-127v10l142 129h64l141 -129v-10h-128l-45 45zM316 -10q-136 0 -196.5 55t-60.5 175v331q0 123 59 176.5t198 53.5q140 0 201.5 -54t61.5 -176v-331q0 -119 -63 -174.5t-200 -55.5zM316 112q71 0 98 28t27 87v317q0 59 -25 87t-100 28q-70 0 -94.5 -28.5
t-24.5 -86.5v-317q0 -60 24 -87.5t95 -27.5z" />
    <glyph glyph-name="Otilde" unicode="&#xd5;" horiz-adv-x="641" 
d="M151 877q16 52 59 78.5t92 4.5l49 -24q30 -14 46 26l84 -35q-14 -56 -52.5 -86.5t-92.5 -8.5l-54 26q-7 8 -24 3t-26 -26zM316 -10q-136 0 -196.5 55t-60.5 175v331q0 123 59 176.5t198 53.5q140 0 201.5 -54t61.5 -176v-331q0 -119 -63 -174.5t-200 -55.5zM316 112
q71 0 98 28t27 87v317q0 59 -25 87t-100 28q-70 0 -94.5 -28.5t-24.5 -86.5v-317q0 -60 24 -87.5t95 -27.5z" />
    <glyph glyph-name="Odieresis" unicode="&#xd6;" horiz-adv-x="641" 
d="M132 887q0 43 36.5 61.5t73.5 1t37 -62.5q0 -31 -23 -49.5t-50.5 -19.5t-50.5 17.5t-23 51.5zM353 887q0 43 36.5 61.5t73.5 1t37 -62.5q0 -31 -23 -49.5t-50.5 -19.5t-50.5 17.5t-23 51.5zM316 -10q-136 0 -196.5 55t-60.5 175v331q0 123 59 176.5t198 53.5
q140 0 201.5 -54t61.5 -176v-331q0 -119 -63 -174.5t-200 -55.5zM316 112q71 0 98 28t27 87v317q0 59 -25 87t-100 28q-70 0 -94.5 -28.5t-24.5 -86.5v-317q0 -60 24 -87.5t95 -27.5z" />
    <glyph glyph-name="multiply" unicode="&#xd7;" horiz-adv-x="454" 
d="M227 401l102 101l80 -79l-105 -104l109 -107l-87 -82l-104 105l-101 -102l-83 78l104 105l-106 104l89 84z" />
    <glyph glyph-name="Oslash" unicode="&#xd8;" horiz-adv-x="641" 
d="M504 738q75 -52 75 -186v-331q0 -120 -63 -175.5t-200 -55.5q-46 0 -82 6l-23 -62h-114l36 100q-74 54 -74 187v331q0 123 59 176t198 53q48 0 87 -6l23 63h115zM197 228v-18l163 446q-20 3 -44 3q-70 0 -94.5 -28t-24.5 -86v-317zM441 228v317v18l-164 -447q18 -3 39 -3
q71 0 98 28t27 87z" />
    <glyph glyph-name="Ugrave" unicode="&#xd9;" horiz-adv-x="637" 
d="M176 957h138l57 -136h-119zM433 771h138v-546q0 -117 -67.5 -176t-191.5 -59q-252 0 -252 235v546h138v-539q0 -120 114 -120q60 0 90.5 32t30.5 88v539z" />
    <glyph glyph-name="Uacute" unicode="&#xda;" horiz-adv-x="637" 
d="M365 821h-119l57 136h138zM433 771h138v-546q0 -117 -67.5 -176t-191.5 -59q-252 0 -252 235v546h138v-539q0 -120 114 -120q60 0 90.5 32t30.5 88v539z" />
    <glyph glyph-name="Ucircumflex" unicode="&#xdb;" horiz-adv-x="637" 
d="M270 821h-127v10l142 129h64l141 -129v-10h-128l-45 45zM433 771h138v-546q0 -117 -67.5 -176t-191.5 -59q-252 0 -252 235v546h138v-539q0 -120 114 -120q60 0 90.5 32t30.5 88v539z" />
    <glyph glyph-name="Udieresis" unicode="&#xdc;" horiz-adv-x="637" 
d="M132 887q0 43 36.5 61.5t73.5 1t37 -62.5q0 -31 -23 -49.5t-50.5 -19.5t-50.5 17.5t-23 51.5zM353 887q0 43 36.5 61.5t73.5 1t37 -62.5q0 -31 -23 -49.5t-50.5 -19.5t-50.5 17.5t-23 51.5zM433 771h138v-546q0 -117 -67.5 -176t-191.5 -59q-252 0 -252 235v546h138v-539
q0 -120 114 -120q60 0 90.5 32t30.5 88v539z" />
    <glyph glyph-name="Yacute" unicode="&#xdd;" horiz-adv-x="522" 
d="M311 821h-119l57 136h138zM525 771l-194 -448v-323h-137v323l-196 448h149l60 -142l56 -165l56 169l57 138h149z" />
    <glyph glyph-name="Thorn" unicode="&#xde;" horiz-adv-x="579" 
d="M210 771v-121h54q141 0 207 -54.5t66 -175.5v-71q0 -119 -67.5 -176t-205.5 -57h-53v-116h-141v771h140zM264 249q73 0 103 25.5t30 81.5v57q0 58 -27.5 84.5t-103.5 26.5h-56v-275h54z" />
    <glyph glyph-name="germandbls" unicode="&#xdf;" horiz-adv-x="537" 
d="M192 0h-141v574q0 207 210 207q206 0 206 -207q0 -103 -62 -147q56 -26 87.5 -77.5t31.5 -117.5q0 -125 -59.5 -178.5t-197.5 -53.5h-31v120h33q65 0 88.5 27.5t23.5 83.5t-24.5 81.5t-77.5 25.5h-37v127h1q47 0 66.5 34t19.5 75q0 86 -70 86q-67 0 -67 -86v-574z" />
    <glyph glyph-name="agrave" unicode="&#xe0;" horiz-adv-x="543" 
d="M137 781h138l57 -136h-119zM54 387q-7 107 47.5 157.5t163.5 50.5q114 0 167.5 -58t53.5 -174v-363h-112l-13 68q-56 -78 -155 -78q-75 0 -122.5 44t-47.5 125q0 202 319 180q0 70 -19 102t-70 32q-45 0 -63.5 -19.5t-17.5 -66.5h-131zM355 235q-189 19 -189 -65
q0 -54 81 -54q96 0 108 119z" />
    <glyph glyph-name="aacute" unicode="&#xe1;" horiz-adv-x="543" 
d="M326 645h-119l57 136h138zM54 387q-7 107 47.5 157.5t163.5 50.5q114 0 167.5 -58t53.5 -174v-363h-112l-13 68q-56 -78 -155 -78q-75 0 -122.5 44t-47.5 125q0 202 319 180q0 70 -19 102t-70 32q-45 0 -63.5 -19.5t-17.5 -66.5h-131zM355 235q-189 19 -189 -65
q0 -54 81 -54q96 0 108 119z" />
    <glyph glyph-name="acircumflex" unicode="&#xe2;" horiz-adv-x="543" 
d="M231 645h-127v10l142 129h64l141 -129v-10h-128l-45 45zM54 387q-7 107 47.5 157.5t163.5 50.5q114 0 167.5 -58t53.5 -174v-363h-112l-13 68q-56 -78 -155 -78q-75 0 -122.5 44t-47.5 125q0 202 319 180q0 70 -19 102t-70 32q-45 0 -63.5 -19.5t-17.5 -66.5h-131z
M355 235q-189 19 -189 -65q0 -54 81 -54q96 0 108 119z" />
    <glyph glyph-name="atilde" unicode="&#xe3;" horiz-adv-x="543" 
d="M112 701q16 52 59 78.5t92 4.5l49 -24q30 -14 46 26l84 -35q-14 -56 -52.5 -86.5t-92.5 -8.5l-54 26q-7 8 -24 3t-26 -26zM54 387q-7 107 47.5 157.5t163.5 50.5q114 0 167.5 -58t53.5 -174v-363h-112l-13 68q-56 -78 -155 -78q-75 0 -122.5 44t-47.5 125q0 202 319 180
q0 70 -19 102t-70 32q-45 0 -63.5 -19.5t-17.5 -66.5h-131zM355 235q-189 19 -189 -65q0 -54 81 -54q96 0 108 119z" />
    <glyph glyph-name="adieresis" unicode="&#xe4;" horiz-adv-x="543" 
d="M93 711q0 43 36.5 61.5t73.5 1t37 -62.5q0 -31 -23 -49.5t-50.5 -19.5t-50.5 17.5t-23 51.5zM314 711q0 43 36.5 61.5t73.5 1t37 -62.5q0 -31 -23 -49.5t-50.5 -19.5t-50.5 17.5t-23 51.5zM54 387q-7 107 47.5 157.5t163.5 50.5q114 0 167.5 -58t53.5 -174v-363h-112
l-13 68q-56 -78 -155 -78q-75 0 -122.5 44t-47.5 125q0 202 319 180q0 70 -19 102t-70 32q-45 0 -63.5 -19.5t-17.5 -66.5h-131zM355 235q-189 19 -189 -65q0 -54 81 -54q96 0 108 119z" />
    <glyph glyph-name="aring" unicode="&#xe5;" horiz-adv-x="543" 
d="M156 749q0 55 35.5 86.5t85.5 31.5q52 0 87 -31t35 -86t-35.5 -87t-86.5 -32q-53 0 -87.5 31.5t-33.5 86.5zM277 792q-27 0 -38 -21.5t0 -43t38 -21.5q29 0 40 21.5t-1 43t-39 21.5zM54 387q-7 107 47.5 157.5t163.5 50.5q114 0 167.5 -58t53.5 -174v-363h-112l-13 68
q-56 -78 -155 -78q-75 0 -122.5 44t-47.5 125q0 202 319 180q0 70 -19 102t-70 32q-45 0 -63.5 -19.5t-17.5 -66.5h-131zM355 235q-189 19 -189 -65q0 -54 81 -54q96 0 108 119z" />
    <glyph glyph-name="ae" unicode="&#xe6;" horiz-adv-x="849" 
d="M799 179q0 -189 -228 -189q-123 0 -166 93q-40 -57 -84.5 -75t-114.5 -18q-75 0 -122.5 44t-47.5 125q0 202 319 180v5q-1 67 -20 98t-69 31q-45 0 -62.5 -18.5t-16.5 -65.5h-131q-7 107 46.5 156.5t162.5 49.5q108 0 157 -83q50 83 155 83q222 0 222 -233v-117h-320v-15
q0 -67 24 -93t70 -26q91 0 91 68h135zM581 476q-57 0 -79.5 -30t-22.5 -88h192q0 54 -18.5 86t-71.5 32zM355 235q-189 19 -189 -65q0 -54 81 -54q96 0 108 119z" />
    <glyph glyph-name="ccedilla" unicode="&#xe7;" horiz-adv-x="553" 
d="M279 112q53 0 75.5 24t23.5 77h130q0 -104 -43 -156.5t-133 -63.5l-16 -49q50 0 78 -32t18 -77q-10 -42 -44 -69.5t-74.5 -33.5t-83.5 7.5t-71 45.5l45 70q13 -13 36.5 -21.5t47.5 -3.5t31 28q7 22 -23 37.5t-75 17.5l27 80q-90 11 -134 67t-44 163v135q0 237 233 237
q117 0 171 -52t54 -170h-130q0 52 -21 76t-71 24q-54 0 -76 -28.5t-22 -86.5v-131q0 -58 20 -86.5t71 -28.5z" />
    <glyph glyph-name="egrave" unicode="&#xe8;" 
d="M142 781h138l57 -136h-119zM511 173q0 -93 -56.5 -138t-172.5 -45q-117 0 -173 55.5t-56 174.5v145q0 230 229 230q117 0 173 -55.5t56 -174.5v-120h-320v-23q0 -66 23 -89.5t70 -23.5q92 0 92 64h135zM286 476q-57 0 -76 -28t-19 -87h187q0 61 -18.5 88t-73.5 27z" />
    <glyph glyph-name="eacute" unicode="&#xe9;" 
d="M331 645h-119l57 136h138zM511 173q0 -93 -56.5 -138t-172.5 -45q-117 0 -173 55.5t-56 174.5v145q0 230 229 230q117 0 173 -55.5t56 -174.5v-120h-320v-23q0 -66 23 -89.5t70 -23.5q92 0 92 64h135zM286 476q-57 0 -76 -28t-19 -87h187q0 61 -18.5 88t-73.5 27z" />
    <glyph glyph-name="ecircumflex" unicode="&#xea;" 
d="M236 645h-127v10l142 129h64l141 -129v-10h-128l-45 45zM511 173q0 -93 -56.5 -138t-172.5 -45q-117 0 -173 55.5t-56 174.5v145q0 230 229 230q117 0 173 -55.5t56 -174.5v-120h-320v-23q0 -66 23 -89.5t70 -23.5q92 0 92 64h135zM286 476q-57 0 -76 -28t-19 -87h187
q0 61 -18.5 88t-73.5 27z" />
    <glyph glyph-name="edieresis" unicode="&#xeb;" 
d="M98 711q0 43 36.5 61.5t73.5 1t37 -62.5q0 -31 -23 -49.5t-50.5 -19.5t-50.5 17.5t-23 51.5zM319 711q0 43 36.5 61.5t73.5 1t37 -62.5q0 -31 -23 -49.5t-50.5 -19.5t-50.5 17.5t-23 51.5zM511 173q0 -93 -56.5 -138t-172.5 -45q-117 0 -173 55.5t-56 174.5v145
q0 230 229 230q117 0 173 -55.5t56 -174.5v-120h-320v-23q0 -66 23 -89.5t70 -23.5q92 0 92 64h135zM286 476q-57 0 -76 -28t-19 -87h187q0 61 -18.5 88t-73.5 27z" />
    <glyph glyph-name="igrave" unicode="&#xec;" horiz-adv-x="272" 
d="M0 771h138l57 -136h-119zM208 -1h-137v586h137v-586z" />
    <glyph glyph-name="iacute" unicode="&#xed;" horiz-adv-x="272" 
d="M189 635h-119l57 136h138zM208 -1h-137v586h137v-586z" />
    <glyph glyph-name="icircumflex" unicode="&#xee;" horiz-adv-x="260" 
d="M89 643h-113v11l127 132h57l126 -132v-11h-115l-40 47zM198 -1h-137v586h137v-586z" />
    <glyph glyph-name="idieresis" unicode="&#xef;" horiz-adv-x="260" 
d="M-42 712q0 33 23 52.5t50.5 20t50.5 -18.5t23 -54q0 -32 -23 -51t-50.5 -20t-50.5 18t-23 53zM153 712q0 33 23 52.5t50.5 20t50.5 -18.5t23 -54q0 -32 -23 -51t-50.5 -20t-50.5 18t-23 53zM201 -1h-137v586h137v-586z" />
    <glyph glyph-name="eth" unicode="&#xf0;" horiz-adv-x="546" 
d="M147 636l62 36q-52 53 -108 85l4 14h166q26 -18 47 -36l65 38l34 -54l-52 -30q62 -71 99 -161.5t37 -186.5v-122q0 -123 -52 -176t-175 -53q-122 0 -174.5 53t-52.5 176v122q0 107 53.5 159.5t148.5 52.5q35 0 49 -1q-23 40 -47 71l-71 -41zM274 121q48 0 68 20.5
t20 77.5v122q0 51 -20 69.5t-68 18.5t-68 -18.5t-20 -69.5v-122q0 -57 20 -77.5t68 -20.5z" />
    <glyph glyph-name="ntilde" unicode="&#xf1;" horiz-adv-x="605" 
d="M129 701q16 52 59 78.5t92 4.5l49 -24q30 -14 46 26l84 -35q-14 -56 -52.5 -86.5t-92.5 -8.5l-54 26q-7 8 -24 3t-26 -26zM79 585h119l7 -55q54 64 139 64q83 1 137.5 -52.5t54.5 -177.5v-364h-136v363q0 107 -89 107q-95 0 -95 -102v-368h-137v585z" />
    <glyph glyph-name="ograve" unicode="&#xf2;" horiz-adv-x="558" 
d="M139 781h138l57 -136h-119zM279 -10q-117 0 -173 55.5t-56 174.5v145q0 116 56.5 173t172.5 57q117 0 173 -55.5t56 -174.5v-145q0 -119 -56 -174.5t-173 -55.5zM279 112q51 0 71 28.5t20 86.5v131q0 58 -20 86.5t-71 28.5t-71 -28.5t-20 -86.5v-131q0 -58 20 -86.5
t71 -28.5z" />
    <glyph glyph-name="oacute" unicode="&#xf3;" horiz-adv-x="558" 
d="M328 645h-119l57 136h138zM279 -10q-117 0 -173 55.5t-56 174.5v145q0 116 56.5 173t172.5 57q117 0 173 -55.5t56 -174.5v-145q0 -119 -56 -174.5t-173 -55.5zM279 112q51 0 71 28.5t20 86.5v131q0 58 -20 86.5t-71 28.5t-71 -28.5t-20 -86.5v-131q0 -58 20 -86.5
t71 -28.5z" />
    <glyph glyph-name="ocircumflex" unicode="&#xf4;" horiz-adv-x="558" 
d="M233 645h-127v10l142 129h64l141 -129v-10h-128l-45 45zM279 -10q-117 0 -173 55.5t-56 174.5v145q0 116 56.5 173t172.5 57q117 0 173 -55.5t56 -174.5v-145q0 -119 -56 -174.5t-173 -55.5zM279 112q51 0 71 28.5t20 86.5v131q0 58 -20 86.5t-71 28.5t-71 -28.5
t-20 -86.5v-131q0 -58 20 -86.5t71 -28.5z" />
    <glyph glyph-name="otilde" unicode="&#xf5;" horiz-adv-x="558" 
d="M114 701q16 52 59 78.5t92 4.5l49 -24q30 -14 46 26l84 -35q-14 -56 -52.5 -86.5t-92.5 -8.5l-54 26q-7 8 -24 3t-26 -26zM279 -10q-117 0 -173 55.5t-56 174.5v145q0 116 56.5 173t172.5 57q117 0 173 -55.5t56 -174.5v-145q0 -119 -56 -174.5t-173 -55.5zM279 112
q51 0 71 28.5t20 86.5v131q0 58 -20 86.5t-71 28.5t-71 -28.5t-20 -86.5v-131q0 -58 20 -86.5t71 -28.5z" />
    <glyph glyph-name="odieresis" unicode="&#xf6;" horiz-adv-x="558" 
d="M95 711q0 43 36.5 61.5t73.5 1t37 -62.5q0 -31 -23 -49.5t-50.5 -19.5t-50.5 17.5t-23 51.5zM316 711q0 43 36.5 61.5t73.5 1t37 -62.5q0 -31 -23 -49.5t-50.5 -19.5t-50.5 17.5t-23 51.5zM279 -10q-117 0 -173 55.5t-56 174.5v145q0 116 56.5 173t172.5 57
q117 0 173 -55.5t56 -174.5v-145q0 -119 -56 -174.5t-173 -55.5zM279 112q51 0 71 28.5t20 86.5v131q0 58 -20 86.5t-71 28.5t-71 -28.5t-20 -86.5v-131q0 -58 20 -86.5t71 -28.5z" />
    <glyph glyph-name="divide" unicode="&#xf7;" horiz-adv-x="472" 
d="M156 490q0 33 21 51.5t51 18.5q29 0 51 -18.5t22 -51.5t-22 -51.5t-51 -18.5q-30 0 -51 18.5t-21 51.5zM433 265v115h-408v-115h408zM156 154q0 33 21 51.5t51 18.5q29 0 51 -18.5t22 -51.5t-22 -52t-51 -19q-30 0 -51 19t-21 52z" />
    <glyph glyph-name="oslash" unicode="&#xf8;" horiz-adv-x="558" 
d="M440 550q68 -55 68 -185v-145q0 -119 -56 -174.5t-173 -55.5q-52 0 -88 10l-28 -61h-87l43 95q-69 56 -69 186v145q0 116 56.5 173t172.5 57q52 0 89 -10l27 61h88zM188 227q0 -15 2 -35l125 276q-17 5 -36 5q-51 0 -71 -28.5t-20 -86.5v-131zM370 227v131q0 14 -2 34
l-125 -275q17 -5 36 -5q51 0 71 28.5t20 86.5z" />
    <glyph glyph-name="ugrave" unicode="&#xf9;" horiz-adv-x="596" 
d="M154 781h138l57 -136h-119zM526 0h-122l-7 61q-60 -71 -139 -71q-83 -1 -137.5 52.5t-54.5 177.5v365h136v-364q0 -107 89 -107q42 0 68.5 27.5t26.5 81.5v362h140v-585z" />
    <glyph glyph-name="uacute" unicode="&#xfa;" horiz-adv-x="596" 
d="M343 645h-119l57 136h138zM526 0h-122l-7 61q-60 -71 -139 -71q-83 -1 -137.5 52.5t-54.5 177.5v365h136v-364q0 -107 89 -107q42 0 68.5 27.5t26.5 81.5v362h140v-585z" />
    <glyph glyph-name="ucircumflex" unicode="&#xfb;" horiz-adv-x="596" 
d="M248 645h-127v10l142 129h64l141 -129v-10h-128l-45 45zM526 0h-122l-7 61q-60 -71 -139 -71q-83 -1 -137.5 52.5t-54.5 177.5v365h136v-364q0 -107 89 -107q42 0 68.5 27.5t26.5 81.5v362h140v-585z" />
    <glyph glyph-name="udieresis" unicode="&#xfc;" horiz-adv-x="596" 
d="M110 711q0 43 36.5 61.5t73.5 1t37 -62.5q0 -31 -23 -49.5t-50.5 -19.5t-50.5 17.5t-23 51.5zM331 711q0 43 36.5 61.5t73.5 1t37 -62.5q0 -31 -23 -49.5t-50.5 -19.5t-50.5 17.5t-23 51.5zM526 0h-122l-7 61q-60 -71 -139 -71q-83 -1 -137.5 52.5t-54.5 177.5v365h136
v-364q0 -107 89 -107q42 0 68.5 27.5t26.5 81.5v362h140v-585z" />
    <glyph glyph-name="yacute" unicode="&#xfd;" horiz-adv-x="510" 
d="M306 645h-119l57 136h138zM498 585l-175 -583h1l-32 -114q-19 -65 -51.5 -95.5t-77 -29.5t-101.5 23l21 101q2 -1 12.5 -3.5t14 -3t12 -1.5t12.5 0t10.5 3t10 6.5t7.5 11t7 16.5l23 83l-177 586h143l53 -177q28 -111 46 -248q22 149 46 248l52 177h143z" />
    <glyph glyph-name="thorn" unicode="&#xfe;" horiz-adv-x="583" 
d="M203 773v-227q42 48 125 48q194 0 194 -228v-152q0 -105 -50.5 -162.5t-147.5 -57.5q-90 0 -121 52v-225h-137v952h137zM292 121q93 0 93 99v139q0 113 -89 113q-93 0 -93 -118v-135q0 -98 89 -98z" />
    <glyph glyph-name="ydieresis" unicode="&#xff;" horiz-adv-x="510" 
d="M73 711q0 43 36.5 61.5t73.5 1t37 -62.5q0 -42 -37 -60t-73.5 -1t-36.5 61zM294 711q0 43 36.5 61.5t73.5 1t37 -62.5q0 -31 -23 -49.5t-50.5 -19.5t-50.5 17.5t-23 51.5zM498 585l-175 -583h1l-32 -114q-19 -65 -51.5 -95.5t-77 -29.5t-101.5 23l21 101q2 -1 12.5 -3.5
t14 -3t12 -1.5t12.5 0t10.5 3t10 6.5t7.5 11t7 16.5l23 83l-177 586h143l53 -177q28 -111 46 -248q22 149 46 248l52 177h143z" />
    <glyph glyph-name="Amacron" unicode="&#x100;" horiz-adv-x="578" 
d="M164 945h254v-116h-254v116zM569 0h-142l-39 136h-197l-40 -136h-142l213 771h137zM353 271l-64 285l-64 -285h128z" />
    <glyph glyph-name="amacron" unicode="&#x101;" horiz-adv-x="543" 
d="M150 769h254v-116h-254v116zM54 387q-7 107 47.5 157.5t163.5 50.5q114 0 167.5 -58t53.5 -174v-363h-112l-13 68q-56 -78 -155 -78q-75 0 -122.5 44t-47.5 125q0 202 319 180q0 70 -19 102t-70 32q-45 0 -63.5 -19.5t-17.5 -66.5h-131zM355 235q-189 19 -189 -65
q0 -54 81 -54q96 0 108 119z" />
    <glyph glyph-name="Abreve" unicode="&#x102;" horiz-adv-x="578" 
d="M248 957q0 -46 43 -46q42 0 42 46h104q-1 -134 -146 -134t-146 134h103zM569 0h-142l-39 136h-197l-40 -136h-142l213 771h137zM353 271l-64 285l-64 -285h128z" />
    <glyph glyph-name="abreve" unicode="&#x103;" horiz-adv-x="543" 
d="M234 781q0 -46 43 -46q42 0 42 46h104q-1 -134 -146 -134t-146 134h103zM54 387q-7 107 47.5 157.5t163.5 50.5q114 0 167.5 -58t53.5 -174v-363h-112l-13 68q-56 -78 -155 -78q-75 0 -122.5 44t-47.5 125q0 202 319 180q0 70 -19 102t-70 32q-45 0 -63.5 -19.5
t-17.5 -66.5h-131zM355 235q-189 19 -189 -65q0 -54 81 -54q96 0 108 119z" />
    <glyph glyph-name="Aogonek" unicode="&#x104;" horiz-adv-x="578" 
d="M586 -205q-28 -7 -58 -8t-62.5 5.5t-53 31t-20.5 64.5q0 69 82 112h-47l-39 136h-197l-40 -136h-142l213 771h137l210 -771q-57 -36 -56 -78q0 -29 29 -34q9 -1 21 1zM353 271l-64 285l-64 -285h128z" />
    <glyph glyph-name="aogonek" unicode="&#x105;" horiz-adv-x="543" 
d="M503 -205q-28 -7 -58 -8t-62.5 5.5t-53 31t-20.5 64.5q0 69 82 112h-17l-13 68q-56 -78 -155 -78q-75 0 -122.5 44t-47.5 125q0 202 319 180q0 70 -19 102t-70 32q-45 0 -63.5 -19.5t-17.5 -66.5h-131q-7 107 47.5 157.5t163.5 50.5q114 0 167.5 -58t53.5 -174v-363
q-57 -36 -56 -78q0 -29 29 -34q9 -1 21 1zM247 116q96 0 108 119q-189 19 -189 -65q0 -54 81 -54z" />
    <glyph glyph-name="Cacute" unicode="&#x106;" horiz-adv-x="623" 
d="M365 821h-119l57 136h138zM579 230q0 -126 -62.5 -183t-200.5 -57q-136 0 -196.5 55t-60.5 175v331q0 123 59 176.5t198 53.5q140 0 201.5 -55.5t61.5 -183.5h-138q0 62 -25 89.5t-100 27.5q-71 0 -95 -27.5t-24 -87.5v-317q0 -60 24 -87.5t95 -27.5t98 28.5t27 89.5h138
z" />
    <glyph glyph-name="cacute" unicode="&#x107;" horiz-adv-x="553" 
d="M320 645h-119l57 136h138zM378 373q0 52 -21 76t-71 24q-54 0 -76 -28.5t-22 -86.5v-131q0 -58 20 -86.5t71 -28.5q53 0 75.5 24t23.5 77h130q0 -118 -55.5 -170.5t-173.5 -52.5q-117 0 -173 56t-56 177v135q0 237 233 237q117 0 171 -52t54 -170h-130z" />
    <glyph glyph-name="Cdotaccent" unicode="&#x10a;" horiz-adv-x="623" 
d="M243 889q0 44 36.5 62.5t73 0.5t36.5 -63q0 -32 -23 -51t-50 -20t-50 18t-23 53zM579 230q0 -126 -62.5 -183t-200.5 -57q-136 0 -196.5 55t-60.5 175v331q0 123 59 176.5t198 53.5q140 0 201.5 -55.5t61.5 -183.5h-138q0 62 -25 89.5t-100 27.5q-71 0 -95 -27.5
t-24 -87.5v-317q0 -60 24 -87.5t95 -27.5t98 28.5t27 89.5h138z" />
    <glyph glyph-name="cdotaccent" unicode="&#x10b;" horiz-adv-x="553" 
d="M198 713q0 44 36.5 62.5t73 0.5t36.5 -63q0 -32 -23 -51t-50 -20t-50 18t-23 53zM378 373q0 52 -21 76t-71 24q-54 0 -76 -28.5t-22 -86.5v-131q0 -58 20 -86.5t71 -28.5q53 0 75.5 24t23.5 77h130q0 -118 -55.5 -170.5t-173.5 -52.5q-117 0 -173 56t-56 177v135
q0 237 233 237q117 0 171 -52t54 -170h-130z" />
    <glyph glyph-name="Ccaron" unicode="&#x10c;" horiz-adv-x="623" 
d="M363 958h127v-10l-142 -129h-64l-141 129v10h128l45 -45zM579 230q0 -126 -62.5 -183t-200.5 -57q-136 0 -196.5 55t-60.5 175v331q0 123 59 176.5t198 53.5q140 0 201.5 -55.5t61.5 -183.5h-138q0 62 -25 89.5t-100 27.5q-71 0 -95 -27.5t-24 -87.5v-317q0 -60 24 -87.5
t95 -27.5t98 28.5t27 89.5h138z" />
    <glyph glyph-name="ccaron" unicode="&#x10d;" horiz-adv-x="553" 
d="M318 782h127v-10l-142 -129h-64l-141 129v10h128l45 -45zM378 373q0 52 -21 76t-71 24q-54 0 -76 -28.5t-22 -86.5v-131q0 -58 20 -86.5t71 -28.5q53 0 75.5 24t23.5 77h130q0 -118 -55.5 -170.5t-173.5 -52.5q-117 0 -173 56t-56 177v135q0 237 233 237q117 0 171 -52
t54 -170h-130z" />
    <glyph glyph-name="Dcaron" unicode="&#x10e;" horiz-adv-x="640" 
d="M338 958h127v-10l-142 -129h-64l-141 129v10h128l45 -45zM324 771q140 0 201.5 -54t61.5 -176v-315q0 -119 -62.5 -172.5t-200.5 -53.5h-253v771h253zM324 125q72 0 98.5 25t26.5 83v301q0 60 -24 85.5t-99 25.5h-118v-520h116z" />
    <glyph glyph-name="dcaron" unicode="&#x10f;" horiz-adv-x="690" 
d="M591 775h116l-46 -181h-103zM397 0l-10 65q-35 -75 -139 -75q-194 0 -194 228v157q0 105 50.5 162.5t147.5 57.5q92 0 121 -50v226h137v-771h-113zM284 468q-93 0 -93 -99v-144q0 -113 89 -113q48 0 70.5 34.5t22.5 90.5v135q0 96 -89 96z" />
    <glyph glyph-name="Dcroat" unicode="&#x110;" horiz-adv-x="640" 
d="M324 771q140 0 201.5 -54t61.5 -176v-315q0 -119 -62.5 -172.5t-200.5 -53.5h-253v337h-64v105h64v329h253zM449 233v301q0 60 -24 85.5t-99 25.5h-118v-203h105v-105h-105v-212h116q72 0 98.5 25t26.5 83z" />
    <glyph glyph-name="dcroat" unicode="&#x111;" horiz-adv-x="568" 
d="M561 712v-77h-51v-635h-113l-10 65q-35 -75 -139 -75q-194 0 -194 228v157q0 105 50.5 162.5t147.5 57.5q92 0 121 -50v90h-60v77h60v59h137v-59h51zM373 237v135q0 96 -89 96q-93 0 -93 -99v-144q0 -113 89 -113q48 0 70.5 34.5t22.5 90.5z" />
    <glyph glyph-name="Emacron" unicode="&#x112;" 
d="M165 945h254v-116h-254v116zM513 771v-120h-305v-199h260v-124h-260v-202h319v-126h-457v771h443z" />
    <glyph glyph-name="emacron" unicode="&#x113;" 
d="M155 769h254v-116h-254v116zM511 173q0 -93 -56.5 -138t-172.5 -45q-117 0 -173 55.5t-56 174.5v145q0 230 229 230q117 0 173 -55.5t56 -174.5v-120h-320v-23q0 -66 23 -89.5t70 -23.5q92 0 92 64h135zM286 476q-57 0 -76 -28t-19 -87h187q0 61 -18.5 88t-73.5 27z" />
    <glyph glyph-name="Edotaccent" unicode="&#x116;" 
d="M219 889q0 44 36.5 62.5t73 0.5t36.5 -63q0 -32 -23 -51t-50 -20t-50 18t-23 53zM513 771v-120h-305v-199h260v-124h-260v-202h319v-126h-457v771h443z" />
    <glyph glyph-name="edotaccent" unicode="&#x117;" 
d="M209 713q0 44 36.5 62.5t73 0.5t36.5 -63q0 -32 -23 -51t-50 -20t-50 18t-23 53zM511 173q0 -93 -56.5 -138t-172.5 -45q-117 0 -173 55.5t-56 174.5v145q0 230 229 230q117 0 173 -55.5t56 -174.5v-120h-320v-23q0 -66 23 -89.5t70 -23.5q92 0 92 64h135zM286 476
q-57 0 -76 -28t-19 -87h187q0 61 -18.5 88t-73.5 27z" />
    <glyph glyph-name="Eogonek" unicode="&#x118;" 
d="M544 -205q-28 -7 -58 -8t-62.5 5.5t-53 31t-20.5 64.5q0 69 82 112h-362v771h443v-120h-305v-199h260v-124h-260v-202h319v-126q-57 -36 -56 -78q0 -29 29 -34q9 -1 21 1z" />
    <glyph glyph-name="eogonek" unicode="&#x119;" 
d="M191 245v-23q0 -66 23 -89.5t70 -23.5q92 0 92 64h135q0 -47 -16.5 -82t-39.5 -53.5t-46 -34t-39.5 -35.5t-16.5 -45q0 -19 13.5 -28.5t36.5 -5.5l23 -94q-28 -7 -58 -8t-62.5 5.5t-53 31t-20.5 64.5q0 59 65 102h-15q-117 0 -173 55.5t-56 174.5v145q0 230 229 230
q117 0 173 -55.5t56 -174.5v-120h-320zM286 476q-57 0 -76 -28t-19 -87h187q0 61 -18.5 88t-73.5 27z" />
    <glyph glyph-name="Ecaron" unicode="&#x11a;" 
d="M339 958h127v-10l-142 -129h-64l-141 129v10h128l45 -45zM513 771v-120h-305v-199h260v-124h-260v-202h319v-126h-457v771h443z" />
    <glyph glyph-name="ecaron" unicode="&#x11b;" 
d="M329 782h127v-10l-142 -129h-64l-141 129v10h128l45 -45zM511 173q0 -93 -56.5 -138t-172.5 -45q-117 0 -173 55.5t-56 174.5v145q0 230 229 230q117 0 173 -55.5t56 -174.5v-120h-320v-23q0 -66 23 -89.5t70 -23.5q92 0 92 64h135zM286 476q-57 0 -76 -28t-19 -87h187
q0 61 -18.5 88t-73.5 27z" />
    <glyph glyph-name="Gbreve" unicode="&#x11e;" horiz-adv-x="631" 
d="M271 957q0 -46 43 -46q42 0 42 46h104q-1 -134 -146 -134t-146 134h103zM318 438h259v-206q0 -127 -63 -184.5t-200 -57.5q-136 0 -196.5 57t-60.5 182v322q0 120 60 175t197 55q140 0 201.5 -53.5t61.5 -176.5h-138q0 58 -24.5 83t-100.5 25q-70 0 -94.5 -28.5
t-24.5 -86.5v-315q0 -60 24 -87.5t95 -27.5q73 0 104 29.5t31 88.5v81h-131v125z" />
    <glyph glyph-name="gbreve" unicode="&#x11f;" horiz-adv-x="549" 
d="M255 781q0 -46 43 -46q42 0 42 46h104q-1 -134 -146 -134t-146 134h103zM246 -10q-94 0 -145 54.5t-51 166.5v156q0 228 192 228q93 0 134 -75l10 65h113v-600q0 -226 -223 -226q-213 0 -213 187h131q0 -70 82 -70q52 0 73.5 26.5t21.5 83.5v64q-39 -60 -125 -60z
M272 111q50 0 71 30t21 90v124q0 118 -90 118q-43 0 -65 -26t-22 -87v-132q0 -61 21 -89t64 -28z" />
    <glyph glyph-name="Gdotaccent" unicode="&#x120;" horiz-adv-x="631" 
d="M241 889q0 44 36.5 62.5t73 0.5t36.5 -63q0 -32 -23 -51t-50 -20t-50 18t-23 53zM318 438h259v-206q0 -127 -63 -184.5t-200 -57.5q-136 0 -196.5 57t-60.5 182v322q0 120 60 175t197 55q140 0 201.5 -53.5t61.5 -176.5h-138q0 58 -24.5 83t-100.5 25q-70 0 -94.5 -28.5
t-24.5 -86.5v-315q0 -60 24 -87.5t95 -27.5q73 0 104 29.5t31 88.5v81h-131v125z" />
    <glyph glyph-name="gdotaccent" unicode="&#x121;" horiz-adv-x="549" 
d="M225 713q0 44 36.5 62.5t73 0.5t36.5 -63q0 -32 -23 -51t-50 -20t-50 18t-23 53zM246 -10q-94 0 -145 54.5t-51 166.5v156q0 228 192 228q93 0 134 -75l10 65h113v-600q0 -226 -223 -226q-213 0 -213 187h131q0 -70 82 -70q52 0 73.5 26.5t21.5 83.5v64q-39 -60 -125 -60
zM272 111q50 0 71 30t21 90v124q0 118 -90 118q-43 0 -65 -26t-22 -87v-132q0 -61 21 -89t64 -28z" />
    <glyph glyph-name="uni0122" unicode="&#x122;" horiz-adv-x="631" 
d="M318 438h259v-206q0 -127 -63 -184.5t-200 -57.5q-136 0 -196.5 57t-60.5 182v322q0 120 60 175t197 55q140 0 201.5 -53.5t61.5 -176.5h-138q0 58 -24.5 83t-100.5 25q-70 0 -94.5 -28.5t-24.5 -86.5v-315q0 -60 24 -87.5t95 -27.5q73 0 104 29.5t31 88.5v81h-131v125z
M214 -186q17 12 26.5 23.5t13.5 29t5.5 25t0.5 36t-1 37.5h116q7 -87 -22 -140.5t-98 -79.5z" />
    <glyph glyph-name="uni0123" unicode="&#x123;" horiz-adv-x="549" 
d="M393 802q-17 -12 -26.5 -23.5t-13.5 -29t-5.5 -25t-0.5 -36t1 -37.5h-116q-7 87 22 140.5t98 79.5zM246 -10q-94 0 -145 54.5t-51 166.5v156q0 228 192 228q93 0 134 -75l10 65h113v-600q0 -226 -223 -226q-213 0 -213 187h131q0 -70 82 -70q52 0 73.5 26.5t21.5 83.5v64
q-39 -60 -125 -60zM272 111q50 0 71 30t21 90v124q0 118 -90 118q-43 0 -65 -26t-22 -87v-132q0 -61 21 -89t64 -28z" />
    <glyph glyph-name="Hbar" unicode="&#x126;" horiz-adv-x="643" 
d="M653 629v-87h-67v-542h-137v318h-240v-318h-139v542h-74v87h74v142h139v-142h240v142h137v-142h67zM449 444v98h-240v-98h240z" />
    <glyph glyph-name="hbar" unicode="&#x127;" horiz-adv-x="555" 
d="M316 595q94 0 140.5 -55t46.5 -153v-387h-137v371q0 53 -21 75.5t-65 23.5q-88 0 -88 -98v-372h-137v630h-53v76h53v65h137v-65h71v-76h-71v-87q42 52 124 52z" />
    <glyph glyph-name="Itilde" unicode="&#x128;" horiz-adv-x="279" 
d="M-18 870q15 52 57.5 78.5t89.5 4.5l47 -24q31 -14 45 26l82 -35q-14 -56 -51.5 -87t-89.5 -9l-53 26q-7 8 -23 3.5t-25 -26.5zM209 0h-139v771h139v-771z" />
    <glyph glyph-name="itilde" unicode="&#x129;" horiz-adv-x="268" 
d="M-11 692q14 50 52.5 76t81.5 5l44 -24q27 -12 41 26l75 -34q-13 -55 -47.5 -84.5t-82.5 -8.5l-48 25q-6 8 -21 3t-23 -25zM208 -1h-137v586h137v-586z" />
    <glyph glyph-name="Imacron" unicode="&#x12a;" horiz-adv-x="279" 
d="M13 947h255v-113h-255v113zM209 0h-139v771h139v-771z" />
    <glyph glyph-name="imacron" unicode="&#x12b;" horiz-adv-x="268" 
d="M10 775h254v-116h-254v116zM208 -1h-137v586h137v-586z" />
    <glyph glyph-name="Ibreve" unicode="&#x12c;" horiz-adv-x="269" 
d="M87 956q0 -46 43 -46q42 0 42 46h104q-1 -134 -146 -134t-146 134h103zM199 0h-139v771h139v-771z" />
    <glyph glyph-name="ibreve" unicode="&#x12d;" horiz-adv-x="248" 
d="M84 773q0 -50 39 -50t39 50h96q0 -75 -33 -111t-102 -36q-134 0 -135 147h96zM192 -1h-137v586h137v-586z" />
    <glyph glyph-name="Iogonek" unicode="&#x12e;" horiz-adv-x="279" 
d="M226 -205q-28 -7 -58 -8t-62.5 5.5t-53 31t-20.5 64.5q0 69 82 112h-44v771h139v-771q-57 -36 -56 -78q0 -29 29 -34q9 -1 21 1z" />
    <glyph glyph-name="iogonek" unicode="&#x12f;" horiz-adv-x="280" 
d="M218 709q0 -35 -24 -55.5t-53.5 -20.5t-53.5 20t-24 56q0 48 38.5 67.5t77.5 0t39 -67.5zM225 -205q-28 -7 -58 -8t-62.5 5.5t-53 31t-20.5 64.5q0 69 82 112h-42v577h137v-577q-57 -36 -56 -78q0 -29 29 -34q9 -1 21 1z" />
    <glyph glyph-name="Idotaccent" unicode="&#x130;" horiz-adv-x="279" 
d="M63 890q0 34 24.5 54t53.5 20.5t53.5 -19.5t24.5 -55q0 -45 -39 -64.5t-78 -1.5t-39 66zM209 0h-139v771h139v-771z" />
    <glyph glyph-name="dotlessi" unicode="&#x131;" horiz-adv-x="272" 
d="M208 -1h-137v586h137v-586z" />
    <glyph glyph-name="IJ" unicode="&#x132;" horiz-adv-x="805" 
d="M209 0h-139v771h139v-771zM745 220q0 -119 -56 -174.5t-173 -55.5q-229 0 -229 237h138q0 -58 20 -86.5t71 -28.5t71 28.5t20 86.5v544h138v-551z" />
    <glyph glyph-name="ij" unicode="&#x133;" horiz-adv-x="566" 
d="M63 705q0 36 23 56t54 20q32 0 55 -20t23 -56q0 -35 -23 -55t-55 -20q-31 0 -54 20t-23 55zM353 705q0 36 23 56t54 20q32 0 55 -20t23 -56q0 -35 -23 -55t-55 -20q-31 0 -54 20t-23 55zM208 -1h-137v586h137v-586zM498 32q0 -129 -47.5 -174.5t-169.5 -45.5v117
q47 0 63.5 17.5t16.5 82.5v553h137v-550z" />
    <glyph glyph-name="Jcircumflex" unicode="&#x134;" horiz-adv-x="526" 
d="M347 822h-127v10l142 129h64l141 -129v-10h-128l-45 45zM466 220q0 -119 -56 -174.5t-173 -55.5q-229 0 -229 237h138q0 -58 20 -86.5t71 -28.5t71 28.5t20 86.5v544h138v-551z" />
    <glyph glyph-name="Jcircumflex" unicode="&#x135;" horiz-adv-x="526" 
d="M347 822h-127v10l142 129h64l141 -129v-10h-128l-45 45zM466 220q0 -119 -56 -174.5t-173 -55.5q-229 0 -229 237h138q0 -58 20 -86.5t71 -28.5t71 28.5t20 86.5v544h138v-551z" />
    <glyph glyph-name="uni0136" unicode="&#x136;" horiz-adv-x="630" 
d="M458 0l-217 309h-39v-309h-137v771h138v-325h37l202 325h161l-251 -386l274 -385h-168zM216 -186q17 12 26.5 23.5t13.5 29t5.5 25t0.5 36t-1 37.5h116q7 -87 -22 -140.5t-98 -79.5z" />
    <glyph glyph-name="uni0137" unicode="&#x137;" horiz-adv-x="554" 
d="M395 0l-164 256h-39v-256h-137v771h137v-391h37l146 205h154l-189 -260l209 -325h-154zM188 -186q17 12 26.5 23.5t13.5 29t5.5 25t0.5 36t-1 37.5h116q7 -87 -22 -140.5t-98 -79.5z" />
    <glyph glyph-name="kgreenlandic" unicode="&#x138;" horiz-adv-x="549" 
d="M395 0l-164 256h-39v-256h-137v585h137v-205h37l146 205h154l-189 -260l209 -325h-154z" />
    <glyph glyph-name="Lacute" unicode="&#x139;" horiz-adv-x="530" 
d="M189 821h-119l57 136h138zM506 0h-436v771h139v-645h297v-126z" />
    <glyph glyph-name="lacute" unicode="&#x13a;" horiz-adv-x="306" 
d="M188 821h-119l57 136h138zM70 771h137v-553q0 -50 13.5 -68t55.5 -18v-132q-120 0 -163 45t-43 171v555z" />
    <glyph glyph-name="uni013B" unicode="&#x13b;" horiz-adv-x="530" 
d="M506 0h-436v771h139v-645h297v-126zM188 -186q17 12 26.5 23.5t13.5 29t5.5 25t0.5 36t-1 37.5h116q7 -87 -22 -140.5t-98 -79.5z" />
    <glyph glyph-name="uni013C" unicode="&#x13c;" horiz-adv-x="306" 
d="M70 771h137v-553q0 -50 13.5 -68t55.5 -18v-132q-120 0 -163 45t-43 171v555zM91 -186q17 12 26.5 23.5t13.5 29t5.5 25t0.5 36t-1 37.5h116q7 -87 -22 -140.5t-98 -79.5z" />
    <glyph glyph-name="Lcaron" unicode="&#x13d;" horiz-adv-x="530" 
d="M506 0h-436v771h139v-645h297v-126zM374 766h116l-46 -181h-103z" />
    <glyph glyph-name="lcaron" unicode="&#x13e;" horiz-adv-x="424" 
d="M70 771h137v-553q0 -50 13.5 -68t55.5 -18v-132q-120 0 -163 45t-43 171v555zM314 771h114l-54 -189h-99z" />
    <glyph glyph-name="Ldot" unicode="&#x13f;" horiz-adv-x="529" 
d="M506 0h-436v771h139v-645h297v-126zM306 366q0 38 26.5 60t58.5 22.5t58.5 -21t26.5 -61.5q0 -37 -26.5 -59.5t-58.5 -23t-58.5 21t-26.5 61.5z" />
    <glyph glyph-name="ldot" unicode="&#x140;" horiz-adv-x="462" 
d="M70 771h137v-553q0 -50 13.5 -68t55.5 -18v-132q-120 0 -163 45t-43 171v555zM276 368q0 38 26.5 60t58.5 22.5t58.5 -21t26.5 -61.5q0 -37 -26.5 -59.5t-58.5 -23t-58.5 21t-26.5 61.5z" />
    <glyph glyph-name="Lslash" unicode="&#x141;" horiz-adv-x="530" 
d="M209 126h297v-126h-436v279l-58 -23v99l58 23v393h139v-337l96 39v-99l-96 -39v-209z" />
    <glyph glyph-name="lslash" unicode="&#x142;" horiz-adv-x="306" 
d="M289 388l-82 -31v-139q0 -50 13.5 -68t55.5 -18v-132q-120 0 -163 45t-43 171v90l-67 -25v99l67 25v366h137v-315l82 31v-99z" />
    <glyph glyph-name="Nacute" unicode="&#x143;" horiz-adv-x="623" 
d="M361 821h-119l57 136h138zM554 0h-134l-226 488l12 -292v-196h-137v771h137l226 -509l-15 325v184h137v-771z" />
    <glyph glyph-name="nacute" unicode="&#x144;" horiz-adv-x="605" 
d="M343 645h-119l57 136h138zM79 585h119l7 -55q54 64 139 64q83 1 137.5 -52.5t54.5 -177.5v-364h-136v363q0 107 -89 107q-95 0 -95 -102v-368h-137v585z" />
    <glyph glyph-name="uni0145" unicode="&#x145;" horiz-adv-x="623" 
d="M554 0h-134l-226 488l12 -292v-196h-137v771h137l226 -509l-15 325v184h137v-771zM213 -186q17 12 26.5 23.5t13.5 29t5.5 25t0.5 36t-1 37.5h116q7 -87 -22 -140.5t-98 -79.5z" />
    <glyph glyph-name="uni0146" unicode="&#x146;" horiz-adv-x="605" 
d="M79 585h119l7 -55q54 64 139 64q83 1 137.5 -52.5t54.5 -177.5v-364h-136v363q0 107 -89 107q-95 0 -95 -102v-368h-137v585zM208 -186q17 12 26.5 23.5t13.5 29t5.5 25t0.5 36t-1 37.5h116q7 -87 -22 -140.5t-98 -79.5z" />
    <glyph glyph-name="Ncaron" unicode="&#x147;" horiz-adv-x="623" 
d="M359 958h127v-10l-142 -129h-64l-141 129v10h128l45 -45zM554 0h-134l-226 488l12 -292v-196h-137v771h137l226 -509l-15 325v184h137v-771z" />
    <glyph glyph-name="ncaron" unicode="&#x148;" horiz-adv-x="605" 
d="M341 782h127v-10l-142 -129h-64l-141 129v10h128l45 -45zM79 585h119l7 -55q54 64 139 64q83 1 137.5 -52.5t54.5 -177.5v-364h-136v363q0 107 -89 107q-95 0 -95 -102v-368h-137v585z" />
    <glyph glyph-name="Eng" unicode="&#x14a;" horiz-adv-x="623" 
d="M554 0q0 -117 -48 -156t-168 -39v113q44 0 61 15.5t19 70.5l-224 484l12 -292v-196h-137v769h137l226 -507l-15 325v182h137v-769z" />
    <glyph glyph-name="eng" unicode="&#x14b;" horiz-adv-x="605" 
d="M79 585h119l7 -55q54 64 139 64q83 1 137.5 -52.5t54.5 -177.5v-343q0 -128 -46.5 -172t-169.5 -44v113q47 0 63.5 17.5t16.5 82.5v345q0 107 -89 107q-95 0 -95 -102v-368h-137v585z" />
    <glyph glyph-name="Omacron" unicode="&#x14c;" horiz-adv-x="641" 
d="M189 945h254v-116h-254v116zM316 -10q-136 0 -196.5 55t-60.5 175v331q0 123 59 176.5t198 53.5q140 0 201.5 -54t61.5 -176v-331q0 -119 -63 -174.5t-200 -55.5zM316 112q71 0 98 28t27 87v317q0 59 -25 87t-100 28q-70 0 -94.5 -28.5t-24.5 -86.5v-317q0 -60 24 -87.5
t95 -27.5z" />
    <glyph glyph-name="omacron" unicode="&#x14d;" horiz-adv-x="558" 
d="M152 769h254v-116h-254v116zM279 -10q-117 0 -173 55.5t-56 174.5v145q0 116 56.5 173t172.5 57q117 0 173 -55.5t56 -174.5v-145q0 -119 -56 -174.5t-173 -55.5zM279 112q51 0 71 28.5t20 86.5v131q0 58 -20 86.5t-71 28.5t-71 -28.5t-20 -86.5v-131q0 -58 20 -86.5
t71 -28.5z" />
    <glyph glyph-name="Ohungarumlaut" unicode="&#x150;" horiz-adv-x="641" 
d="M159 833l65 114h120v-2l-79 -112h-106zM322 832l65 115h120v-2l-78 -113h-107zM316 -10q-136 0 -196.5 55t-60.5 175v331q0 123 59 176.5t198 53.5q140 0 201.5 -54t61.5 -176v-331q0 -119 -63 -174.5t-200 -55.5zM316 112q71 0 98 28t27 87v317q0 59 -25 87t-100 28
q-70 0 -94.5 -28.5t-24.5 -86.5v-317q0 -60 24 -87.5t95 -27.5z" />
    <glyph glyph-name="ohungarumlaut" unicode="&#x151;" horiz-adv-x="558" 
d="M122 657l65 114h120v-2l-79 -112h-106zM285 656l65 115h120v-2l-78 -113h-107zM279 -10q-117 0 -173 55.5t-56 174.5v145q0 116 56.5 173t172.5 57q117 0 173 -55.5t56 -174.5v-145q0 -119 -56 -174.5t-173 -55.5zM279 112q51 0 71 28.5t20 86.5v131q0 58 -20 86.5
t-71 28.5t-71 -28.5t-20 -86.5v-131q0 -58 20 -86.5t71 -28.5z" />
    <glyph glyph-name="OE" unicode="&#x152;" horiz-adv-x="795" 
d="M747 771v-120h-244v-197h216v-124h-216v-204h250v-126h-454q-135 0 -191.5 54.5t-56.5 175.5v312q0 124 55 176.5t193 52.5h448zM189 237q0 -62 20.5 -88.5t89.5 -26.5h76v527h-76q-69 0 -89.5 -27t-20.5 -87v-298z" />
    <glyph glyph-name="oe" unicode="&#x153;" horiz-adv-x="860" 
d="M818 181q0 -101 -54 -144t-175 -43q-100 0 -152 69q-52 -73 -158 -73q-117 0 -173 55.5t-56 174.5v142q0 116 56.5 173t172.5 57q99 0 157 -69q21 30 62.5 49.5t90.5 19.5q117 0 173 -55.5t56 -174.5v-117h-323v-22q1 -62 25.5 -84.5t70.5 -22.5q98 0 98 65h129zM593 473
q-55 0 -76 -26t-22 -79v-10h190q0 61 -18.5 88t-73.5 27zM279 112q52 0 72.5 28.5t20.5 86.5v135q-2 54 -23 81t-70 27q-51 0 -71 -28.5t-20 -86.5v-128q0 -58 20 -86.5t71 -28.5z" />
    <glyph glyph-name="Racute" unicode="&#x154;" horiz-adv-x="594" 
d="M340 823h-119l57 136h138zM412 0l-153 271h-51v-271h-138v771h194q141 0 207 -55t66 -176v-41q0 -86 -31.5 -135t-101.5 -71l169 -293h-161zM264 398q72 0 100 25.5t28 82.5v27q0 59 -25 85t-101 26h-59v-246h57z" />
    <glyph glyph-name="racute" unicode="&#x155;" horiz-adv-x="385" 
d="M249 645h-119l57 136h138zM356 448q-70 9 -114.5 -19t-44.5 -92v-338h-137v586h126l6 -57q16 28 53.5 47.5t81.5 19.5q19 0 29 -2v-145z" />
    <glyph glyph-name="uni0156" unicode="&#x156;" horiz-adv-x="594" 
d="M412 0l-153 271h-51v-271h-138v771h194q141 0 207 -55t66 -176v-41q0 -86 -31.5 -135t-101.5 -71l169 -293h-161zM264 398q72 0 100 25.5t28 82.5v27q0 59 -25 85t-101 26h-59v-246h57zM206 -186q17 12 26.5 23.5t13.5 29t5.5 25t0.5 36t-1 37.5h116q7 -87 -22 -140.5
t-98 -79.5z" />
    <glyph glyph-name="uni0157" unicode="&#x157;" horiz-adv-x="385" 
d="M356 448q-70 9 -114.5 -19t-44.5 -92v-338h-137v586h126l6 -57q16 28 53.5 47.5t81.5 19.5q19 0 29 -2v-145zM29 -186q17 12 26.5 23.5t13.5 29t5.5 25t0.5 36t-1 37.5h116q7 -87 -22 -140.5t-98 -79.5z" />
    <glyph glyph-name="Rcaron" unicode="&#x158;" horiz-adv-x="594" 
d="M338 960h127v-10l-142 -129h-64l-141 129v10h128l45 -45zM412 0l-153 271h-51v-271h-138v771h194q141 0 207 -55t66 -176v-41q0 -86 -31.5 -135t-101.5 -71l169 -293h-161zM264 398q72 0 100 25.5t28 82.5v27q0 59 -25 85t-101 26h-59v-246h57z" />
    <glyph glyph-name="rcaron" unicode="&#x159;" horiz-adv-x="385" 
d="M247 782h127v-10l-142 -129h-64l-141 129v10h128l45 -45zM356 448q-70 9 -114.5 -19t-44.5 -92v-338h-137v586h126l6 -57q16 28 53.5 47.5t81.5 19.5q19 0 29 -2v-145z" />
    <glyph glyph-name="Sacute" unicode="&#x15a;" horiz-adv-x="604" 
d="M347 821h-119l57 136h138zM403 576q-3 47 -28 65.5t-77 18.5q-57 0 -82 -24.5t-25 -79.5q0 -20 4 -35t14.5 -25.5t20.5 -16.5t30.5 -11t34.5 -7t43 -5.5t47 -6.5q38 -6 65.5 -16.5t54 -32.5t40.5 -61t14 -94q0 -134 -61.5 -194.5t-198.5 -60.5q-255 0 -255 217h139
q2 -47 27.5 -69t88.5 -22t92.5 29.5t29.5 94.5q0 19 -5.5 33.5t-18.5 24.5t-24 16.5t-33.5 11.5t-34.5 7t-38.5 5t-35.5 4q-179 23 -179 213q0 108 64 167t182 59q111 0 173 -47.5t71 -157.5h-139z" />
    <glyph glyph-name="sacute" unicode="&#x15b;" horiz-adv-x="521" 
d="M318 645h-119l57 136h138zM349 407q0 32 -22 48.5t-57 16.5q-40 0 -62.5 -16.5t-22.5 -47.5q0 -16 6 -27t14 -17t24.5 -9.5t28.5 -5t36 -3t38 -3.5q67 -8 112.5 -48t45.5 -113q0 -93 -64 -142.5t-164 -49.5q-105 0 -164.5 49.5t-59.5 135.5h139q2 -33 23 -49t68 -16
q38 0 60.5 21t22.5 46q0 8 -2 15t-7 12t-10 9t-14.5 7t-16.5 5t-19.5 4t-20.5 3t-23 2.5t-23 2.5q-169 22 -169 164q0 96 61 145t162 49q105 0 159.5 -52t54.5 -136h-134z" />
    <glyph glyph-name="Scedilla" unicode="&#x15e;" horiz-adv-x="604" 
d="M559 245q0 -122 -51 -183t-163 -70l-16 -48q50 0 78 -32t18 -77q-10 -42 -44 -69.5t-74.5 -33.5t-83.5 7.5t-71 45.5l45 70q13 -13 36.5 -21.5t47.5 -3.5t31 28q7 22 -23 37.5t-75 17.5l27 80q-197 23 -197 214h139q2 -47 27.5 -69t88.5 -22t92.5 29.5t29.5 94.5
q0 19 -5.5 33.5t-18.5 24.5t-24 16.5t-33.5 11.5t-34.5 7t-38.5 5t-35.5 4q-179 23 -179 213q0 108 64 167t182 59q111 0 173 -47.5t71 -157.5h-139q-3 47 -28 65.5t-77 18.5q-57 0 -82 -24.5t-25 -79.5q0 -20 4 -35t14.5 -25.5t20.5 -16.5t30.5 -11t34.5 -7t43 -5.5
t47 -6.5q38 -6 65.5 -16.5t54 -32.5t40.5 -61t14 -94z" />
    <glyph glyph-name="scedilla" unicode="&#x15f;" horiz-adv-x="521" 
d="M490 182q0 -80 -48.5 -128t-128.5 -60l-16 -50q50 0 78 -32t18 -77q-10 -42 -44 -69.5t-74.5 -33.5t-83.5 7.5t-71 45.5l45 70q13 -13 36.5 -21.5t47.5 -3.5t31 28q7 22 -23 37.5t-75 17.5l27 81q-81 12 -126 59.5t-45 121.5h139q2 -33 23 -49t68 -16q38 0 60.5 21
t22.5 46q0 8 -2 15t-7 12t-10 9t-14.5 7t-16.5 5t-19.5 4t-20.5 3t-23 2.5t-23 2.5q-169 22 -169 164q0 96 61 145t162 49q105 0 159.5 -52t54.5 -136h-134q0 32 -22 48.5t-57 16.5q-40 0 -62.5 -16.5t-22.5 -47.5q0 -16 6 -27t14 -17t24.5 -9.5t28.5 -5t36 -3t38 -3.5
q67 -8 112.5 -48t45.5 -113z" />
    <glyph glyph-name="Scaron" unicode="&#x160;" horiz-adv-x="604" 
d="M345 958h127v-10l-142 -129h-64l-141 129v10h128l45 -45zM403 576q-3 47 -28 65.5t-77 18.5q-57 0 -82 -24.5t-25 -79.5q0 -20 4 -35t14.5 -25.5t20.5 -16.5t30.5 -11t34.5 -7t43 -5.5t47 -6.5q38 -6 65.5 -16.5t54 -32.5t40.5 -61t14 -94q0 -134 -61.5 -194.5
t-198.5 -60.5q-255 0 -255 217h139q2 -47 27.5 -69t88.5 -22t92.5 29.5t29.5 94.5q0 19 -5.5 33.5t-18.5 24.5t-24 16.5t-33.5 11.5t-34.5 7t-38.5 5t-35.5 4q-179 23 -179 213q0 108 64 167t182 59q111 0 173 -47.5t71 -157.5h-139z" />
    <glyph glyph-name="scaron" unicode="&#x161;" horiz-adv-x="521" 
d="M316 782h127v-10l-142 -129h-64l-141 129v10h128l45 -45zM349 407q0 32 -22 48.5t-57 16.5q-40 0 -62.5 -16.5t-22.5 -47.5q0 -16 6 -27t14 -17t24.5 -9.5t28.5 -5t36 -3t38 -3.5q67 -8 112.5 -48t45.5 -113q0 -93 -64 -142.5t-164 -49.5q-105 0 -164.5 49.5t-59.5 135.5
h139q2 -33 23 -49t68 -16q38 0 60.5 21t22.5 46q0 8 -2 15t-7 12t-10 9t-14.5 7t-16.5 5t-19.5 4t-20.5 3t-23 2.5t-23 2.5q-169 22 -169 164q0 96 61 145t162 49q105 0 159.5 -52t54.5 -136h-134z" />
    <glyph glyph-name="uni0162" unicode="&#x162;" horiz-adv-x="472" 
d="M305 0h-20l-18 -56q50 0 78 -32t18 -77q-10 -42 -44 -69.5t-74.5 -33.5t-83.5 7.5t-71 45.5l45 70q13 -13 36.5 -21.5t47.5 -3.5t31 28q7 22 -23 37.5t-75 17.5l29 87h-13v648h-160v123h456v-123h-159v-648z" />
    <glyph glyph-name="uni0163" unicode="&#x163;" horiz-adv-x="334" 
d="M217 -56q50 0 78 -32t18 -77q-10 -42 -44 -69.5t-74.5 -33.5t-83.5 7.5t-71 45.5l45 70q13 -13 36.5 -21.5t47.5 -3.5t31 28q7 22 -23 37.5t-75 17.5l36 108q-74 44 -74 195v476l137 15v-112h100v-125h-100v-252q0 -57 19.5 -81.5t82.5 -16.5v-120q-37 -4 -69 -3z" />
    <glyph glyph-name="Tcaron" unicode="&#x164;" horiz-adv-x="472" 
d="M283 958h127v-10l-142 -129h-64l-141 129v10h128l45 -45zM464 648h-159v-648h-137v648h-160v123h456v-123z" />
    <glyph glyph-name="tcaron" unicode="&#x165;" horiz-adv-x="471" 
d="M377 734h113l-53 -186h-98zM64 692l137 15v-118h87v-122h-87v-249q0 -57 19.5 -81.5t82.5 -16.5v-120q-130 -14 -184.5 35.5t-54.5 180.5v476z" />
    <glyph glyph-name="Tbar" unicode="&#x166;" horiz-adv-x="472" 
d="M464 648h-159v-231h92v-97h-92v-320h-137v320h-91v97h91v231h-160v123h456v-123z" />
    <glyph glyph-name="tbar" unicode="&#x167;" horiz-adv-x="334" 
d="M201 218q0 -57 19.5 -81.5t82.5 -16.5v-120q-130 -14 -184.5 35.5t-54.5 180.5v59h-62v97h62v320l137 15v-112h100v-125h-100v-98h97v-97h-97v-57z" />
    <glyph glyph-name="Umacron" unicode="&#x16a;" horiz-adv-x="637" 
d="M189 945h254v-116h-254v116zM433 771h138v-546q0 -117 -67.5 -176t-191.5 -59q-252 0 -252 235v546h138v-539q0 -120 114 -120q60 0 90.5 32t30.5 88v539z" />
    <glyph glyph-name="umacron" unicode="&#x16b;" horiz-adv-x="596" 
d="M167 769h254v-116h-254v116zM526 0h-122l-7 61q-60 -71 -139 -71q-83 -1 -137.5 52.5t-54.5 177.5v365h136v-364q0 -107 89 -107q42 0 68.5 27.5t26.5 81.5v362h140v-585z" />
    <glyph glyph-name="Uring" unicode="&#x16e;" horiz-adv-x="637" 
d="M195 889q0 55 35.5 86.5t85.5 31.5q52 0 87 -31t35 -86t-35.5 -87t-86.5 -32q-53 0 -87.5 31.5t-33.5 86.5zM316 932q-27 0 -38 -21.5t0 -43t38 -21.5q29 0 40 21.5t-1 43t-39 21.5zM433 771h138v-546q0 -117 -67.5 -176t-191.5 -59q-252 0 -252 235v546h138v-539
q0 -120 114 -120q60 0 90.5 32t30.5 88v539z" />
    <glyph glyph-name="uring" unicode="&#x16f;" horiz-adv-x="596" 
d="M173 713q0 55 35.5 86.5t85.5 31.5q52 0 87 -31t35 -86t-35.5 -87t-86.5 -32q-53 0 -87.5 31.5t-33.5 86.5zM294 756q-27 0 -38 -21.5t0 -43t38 -21.5q29 0 40 21.5t-1 43t-39 21.5zM526 0h-122l-7 61q-60 -71 -139 -71q-83 -1 -137.5 52.5t-54.5 177.5v365h136v-364
q0 -107 89 -107q42 0 68.5 27.5t26.5 81.5v362h140v-585z" />
    <glyph glyph-name="Uhungarumlaut" unicode="&#x170;" horiz-adv-x="637" 
d="M159 833l65 114h120v-2l-79 -112h-106zM322 832l65 115h120v-2l-78 -113h-107zM433 771h138v-546q0 -117 -67.5 -176t-191.5 -59q-252 0 -252 235v546h138v-539q0 -120 114 -120q60 0 90.5 32t30.5 88v539z" />
    <glyph glyph-name="uhungarumlaut" unicode="&#x171;" horiz-adv-x="596" 
d="M137 657l65 114h120v-2l-79 -112h-106zM300 656l65 115h120v-2l-78 -113h-107zM526 0h-122l-7 61q-60 -71 -139 -71q-83 -1 -137.5 52.5t-54.5 177.5v365h136v-364q0 -107 89 -107q42 0 68.5 27.5t26.5 81.5v362h140v-585z" />
    <glyph glyph-name="Uogonek" unicode="&#x172;" horiz-adv-x="637" 
d="M571 769v-541q0 -58 -17.5 -105.5t-42 -76.5t-49 -51t-42 -39.5t-17.5 -32.5q0 -19 13.5 -28.5t36.5 -5.5l23 -94q-28 -7 -58 -8t-62.5 5.5t-53 31t-20.5 64.5q0 64 74 108q-22 -3 -44 -3q-252 0 -252 235v541h138v-534q0 -120 114 -120q60 0 90.5 32t30.5 88v534h138z
" />
    <glyph glyph-name="uogonek" unicode="&#x173;" horiz-adv-x="596" 
d="M543 -205q-28 -7 -58 -8t-62.5 5.5t-53 31t-20.5 64.5q0 69 82 112h-27l-7 54q-54 -64 -139 -64q-83 -1 -137.5 52.5t-54.5 177.5v365h136v-364q0 -107 89 -107q95 0 95 102v369h140v-585q-57 -36 -56 -78q0 -29 29 -34q9 -1 21 1z" />
    <glyph glyph-name="Wcircumflex" unicode="&#x174;" horiz-adv-x="926" 
d="M415 821h-127v10l142 129h64l141 -129v-10h-128l-45 45zM358 0h-145l-204 771h142l76 -266l55 -314l126 555h106l136 -555l45 314l76 266h142l-193 -771h-146l-113 416z" />
    <glyph glyph-name="wcircumflex" unicode="&#x175;" horiz-adv-x="774" 
d="M343 645h-127v10l142 129h64l141 -129v-10h-128l-45 45zM440 585l45 -184q25 -98 44 -236q21 154 44 248l51 172h141l-171 -585h-131l-35 128l-41 208l-41 -210l-35 -126h-130l-173 585h142l52 -172q21 -85 43 -248q2 10 6.5 52.5t12 86t20.5 99.5q7 28 26 90t28 92h102z
" />
    <glyph glyph-name="Ycircumflex" unicode="&#x176;" horiz-adv-x="522" 
d="M216 821h-127v10l142 129h64l141 -129v-10h-128l-45 45zM525 771l-194 -448v-323h-137v323l-196 448h149l60 -142l56 -165l56 169l57 138h149z" />
    <glyph glyph-name="ycircumflex" unicode="&#x177;" horiz-adv-x="510" 
d="M211 645h-127v10l142 129h64l141 -129v-10h-128l-45 45zM498 585l-175 -583h1l-32 -114q-19 -65 -51.5 -95.5t-77 -29.5t-101.5 23l21 101q2 -1 12.5 -3.5t14 -3t12 -1.5t12.5 0t10.5 3t10 6.5t7.5 11t7 16.5l23 83l-177 586h143l53 -177q28 -111 46 -248q22 149 46 248
l52 177h143z" />
    <glyph glyph-name="Ydieresis" unicode="&#x178;" horiz-adv-x="522" 
d="M78 887q0 43 36.5 61.5t73.5 1t37 -62.5q0 -31 -23 -49.5t-50.5 -19.5t-50.5 17.5t-23 51.5zM299 887q0 43 36.5 61.5t73.5 1t37 -62.5q0 -31 -23 -49.5t-50.5 -19.5t-50.5 17.5t-23 51.5zM525 771l-194 -448v-323h-137v323l-196 448h149l60 -142l56 -165l56 169l57 138
h149z" />
    <glyph glyph-name="Zacute" unicode="&#x179;" horiz-adv-x="527" 
d="M340 821h-119l57 136h138zM514 771l-296 -649h279v-122h-483l301 648h-259v123h458z" />
    <glyph glyph-name="zacute" unicode="&#x17a;" horiz-adv-x="510" 
d="M314 645h-119l57 136h138zM31 16l255 449h-229v120h433v-17l-254 -440h254v-128h-459v16z" />
    <glyph glyph-name="Zdotaccent" unicode="&#x17b;" horiz-adv-x="527" 
d="M218 889q0 44 36.5 62.5t73 0.5t36.5 -63q0 -32 -23 -51t-50 -20t-50 18t-23 53zM514 771l-296 -649h279v-122h-483l301 648h-259v123h458z" />
    <glyph glyph-name="zdotaccent" unicode="&#x17c;" horiz-adv-x="510" 
d="M192 713q0 44 36.5 62.5t73 0.5t36.5 -63q0 -32 -23 -51t-50 -20t-50 18t-23 53zM31 16l255 449h-229v120h433v-17l-254 -440h254v-128h-459v16z" />
    <glyph glyph-name="Zcaron" unicode="&#x17d;" horiz-adv-x="527" 
d="M338 958h127v-10l-142 -129h-64l-141 129v10h128l45 -45zM514 771l-296 -649h279v-122h-483l301 648h-259v123h458z" />
    <glyph glyph-name="zcaron" unicode="&#x17e;" horiz-adv-x="510" 
d="M312 782h127v-10l-142 -129h-64l-141 129v10h128l45 -45zM31 16l255 449h-229v120h433v-17l-254 -440h254v-128h-459v16z" />
    <glyph glyph-name="longs" unicode="&#x17f;" horiz-adv-x="351" 
d="M339 659q-67 11 -105 -14.5t-38 -76.5v-569h-137v571q0 106 74 166.5t206 43.5v-121z" />
    <glyph glyph-name="florin" unicode="&#x192;" horiz-adv-x="413" 
d="M138 574q0 116 63 165t194 41v-122q-67 8 -93.5 -13t-26.5 -73v-20h113v-126h-113v-412q0 -118 -58 -173.5t-187 -47.5v118q66 0 87 20.5t21 81.5v414h-94v125h94v22z" />
    <glyph glyph-name="aringacute" unicode="&#x1fb;" horiz-adv-x="543" 
d="M398 918l-86 -84h-102v3l63 81h125zM146 711q0 47 34 73.5t83 26.5q50 0 84 -26t34 -73q0 -46 -34.5 -73t-84.5 -27q-51 0 -84 26.5t-32 72.5zM263 748q-26 0 -36.5 -18t0 -36.5t36.5 -18.5q21 0 32.5 11.5t11 25t-12 25t-31.5 11.5zM54 387q-7 107 47.5 157.5
t163.5 50.5q114 0 167.5 -58t53.5 -174v-363h-112l-13 68q-56 -78 -155 -78q-75 0 -122.5 44t-47.5 125q0 202 319 180q0 70 -19 102t-70 32q-45 0 -63.5 -19.5t-17.5 -66.5h-131zM355 235q-189 19 -189 -65q0 -54 81 -54q96 0 108 119z" />
    <glyph glyph-name="AEacute" unicode="&#x1fc;" horiz-adv-x="753" 
d="M484 821h-119l57 136h138zM704 771v-120h-219v-198h198v-124h-198v-203h233v-126h-368v145h-147l-49 -145h-151l264 771h437zM350 271v364l-113 -364h113z" />
    <glyph glyph-name="AEacute" unicode="&#x1fd;" horiz-adv-x="753" 
d="M484 821h-119l57 136h138zM704 771v-120h-219v-198h198v-124h-198v-203h233v-126h-368v145h-147l-49 -145h-151l264 771h437zM350 271v364l-113 -364h113z" />
    <glyph glyph-name="Oslashacute" unicode="&#x1fe;" horiz-adv-x="641" 
d="M441 957l-76 -136h-119l57 136h138zM504 738q75 -52 75 -186v-331q0 -120 -63 -175.5t-200 -55.5q-46 0 -82 6l-23 -62h-114l36 100q-74 54 -74 187v331q0 123 59 176t198 53q48 0 87 -6l23 63h115zM197 228v-18l163 446q-20 3 -44 3q-70 0 -94.5 -28t-24.5 -86v-317z
M441 228v317v18l-164 -447q18 -3 39 -3q71 0 98 28t27 87z" />
    <glyph glyph-name="oslashacute" unicode="&#x1ff;" horiz-adv-x="558" 
d="M404 781l-76 -136h-119l57 136h138zM440 550q68 -55 68 -185v-145q0 -119 -56 -174.5t-173 -55.5q-52 0 -88 10l-28 -61h-87l43 95q-69 56 -69 186v145q0 116 56.5 173t172.5 57q52 0 89 -10l27 61h88zM188 227q0 -15 2 -35l125 276q-17 5 -36 5q-51 0 -71 -28.5
t-20 -86.5v-131zM370 227v131q0 14 -2 34l-125 -275q17 -5 36 -5q51 0 71 28.5t20 86.5z" />
    <glyph glyph-name="uni0218" unicode="&#x218;" horiz-adv-x="604" 
d="M403 576q-3 47 -28 65.5t-77 18.5q-57 0 -82 -24.5t-25 -79.5q0 -20 4 -35t14.5 -25.5t20.5 -16.5t30.5 -11t34.5 -7t43 -5.5t47 -6.5q38 -6 65.5 -16.5t54 -32.5t40.5 -61t14 -94q0 -134 -61.5 -194.5t-198.5 -60.5q-255 0 -255 217h139q2 -47 27.5 -69t88.5 -22
t92.5 29.5t29.5 94.5q0 19 -5.5 33.5t-18.5 24.5t-24 16.5t-33.5 11.5t-34.5 7t-38.5 5t-35.5 4q-179 23 -179 213q0 108 64 167t182 59q111 0 173 -47.5t71 -157.5h-139zM199 -186q17 12 26.5 23.5t13.5 29t5.5 25t0.5 36t-1 37.5h116q7 -87 -22 -140.5t-98 -79.5z" />
    <glyph glyph-name="uni0219" unicode="&#x219;" horiz-adv-x="521" 
d="M349 407q0 32 -22 48.5t-57 16.5q-40 0 -62.5 -16.5t-22.5 -47.5q0 -16 6 -27t14 -17t24.5 -9.5t28.5 -5t36 -3t38 -3.5q67 -8 112.5 -48t45.5 -113q0 -93 -64 -142.5t-164 -49.5q-105 0 -164.5 49.5t-59.5 135.5h139q2 -33 23 -49t68 -16q38 0 60.5 21t22.5 46
q0 8 -2 15t-7 12t-10 9t-14.5 7t-16.5 5t-19.5 4t-20.5 3t-23 2.5t-23 2.5q-169 22 -169 164q0 96 61 145t162 49q105 0 159.5 -52t54.5 -136h-134zM167 -186q17 12 26.5 23.5t13.5 29t5.5 25t0.5 36t-1 37.5h116q7 -87 -22 -140.5t-98 -79.5z" />
    <glyph glyph-name="uni021A" unicode="&#x21a;" horiz-adv-x="472" 
d="M464 648h-159v-648h-137v648h-160v123h456v-123zM137 -186q17 12 26.5 23.5t13.5 29t5.5 25t0.5 36t-1 37.5h116q7 -87 -22 -140.5t-98 -79.5z" />
    <glyph glyph-name="uni021B" unicode="&#x21b;" horiz-adv-x="334" 
d="M64 692l137 15v-112h100v-125h-100v-252q0 -57 19.5 -81.5t82.5 -16.5v-120q-130 -14 -184.5 35.5t-54.5 180.5v476zM87 -186q17 12 26.5 23.5t13.5 29t5.5 25t0.5 36t-1 37.5h116q7 -87 -22 -140.5t-98 -79.5z" />
    <glyph glyph-name="uni0237" unicode="&#x237;" horiz-adv-x="286" 
d="M218 32q0 -129 -47.5 -174.5t-169.5 -45.5v117q47 0 63.5 17.5t16.5 82.5v556h137v-553z" />
    <glyph glyph-name="circumflex" unicode="&#x2c6;" horiz-adv-x="355" 
d="M139 821h-127v10l142 129h64l141 -129v-10h-128l-45 45z" />
    <glyph glyph-name="caron" unicode="&#x2c7;" horiz-adv-x="383" 
d="M231 958h127v-10l-142 -129h-64l-141 129v10h128l45 -45z" />
    <glyph glyph-name="breve" unicode="&#x2d8;" horiz-adv-x="328" 
d="M123 957q0 -46 43 -46q42 0 42 46h104q-1 -134 -146 -134t-146 134h103z" />
    <glyph glyph-name="dotaccent" unicode="&#x2d9;" horiz-adv-x="237" 
d="M40 889q0 44 36.5 62.5t73 0.5t36.5 -63q0 -32 -23 -51t-50 -20t-50 18t-23 53z" />
    <glyph glyph-name="ring" unicode="&#x2da;" horiz-adv-x="320" 
d="M42 889q0 55 35.5 86.5t85.5 31.5q52 0 87 -31t35 -86t-35.5 -87t-86.5 -32q-53 0 -87.5 31.5t-33.5 86.5zM163 932q-27 0 -38 -21.5t0 -43t38 -21.5q29 0 40 21.5t-1 43t-39 21.5z" />
    <glyph glyph-name="ogonek" unicode="&#x2db;" horiz-adv-x="403" 
d="M299 0q-57 -36 -56 -78q0 -29 29 -34q9 -1 21 1l23 -94q-28 -7 -58 -8t-62.5 5.5t-53 31t-20.5 64.5q0 69 82 112h95z" />
    <glyph glyph-name="tilde" unicode="&#x2dc;" horiz-adv-x="412" 
d="M40 877q16 52 59 78.5t92 4.5l49 -24q30 -14 46 26l84 -35q-14 -56 -52.5 -86.5t-92.5 -8.5l-54 26q-7 8 -24 3t-26 -26z" />
    <glyph glyph-name="hungarumlaut" unicode="&#x2dd;" horiz-adv-x="369" 
d="M43 833l65 114h120v-2l-79 -112h-106zM206 832l65 115h120v-2l-78 -113h-107z" />
    <glyph glyph-name="uni0326" unicode="&#x326;" horiz-adv-x="0" 
d="M-213 -186q17 12 26.5 23.5t13.5 29t5.5 25t0.5 36t-1 37.5h116q7 -87 -22 -140.5t-98 -79.5z" />
    <glyph glyph-name="uni03BC" unicode="&#x3bc;" horiz-adv-x="524" 
d="M36 586h141v-366q0 -103 87 -103q41 0 61 26t20 88v354h140v-585h-116l-11 42q-28 -52 -96 -52q-61 0 -90 44v-237h-136v789z" />
    <glyph glyph-name="Wgrave" unicode="&#x1e80;" horiz-adv-x="926" 
d="M321 957h138l57 -136h-119zM358 0h-145l-204 771h142l76 -266l55 -314l126 555h106l136 -555l45 314l76 266h142l-193 -771h-146l-113 416z" />
    <glyph glyph-name="wgrave" unicode="&#x1e81;" horiz-adv-x="774" 
d="M249 781h138l57 -136h-119zM440 585l45 -184q25 -98 44 -236q21 154 44 248l51 172h141l-171 -585h-131l-35 128l-41 208l-41 -210l-35 -126h-130l-173 585h142l52 -172q21 -85 43 -248q2 10 6.5 52.5t12 86t20.5 99.5q7 28 26 90t28 92h102z" />
    <glyph glyph-name="Wacute" unicode="&#x1e82;" horiz-adv-x="926" 
d="M510 821h-119l57 136h138zM358 0h-145l-204 771h142l76 -266l55 -314l126 555h106l136 -555l45 314l76 266h142l-193 -771h-146l-113 416z" />
    <glyph glyph-name="wacute" unicode="&#x1e83;" horiz-adv-x="774" 
d="M438 645h-119l57 136h138zM440 585l45 -184q25 -98 44 -236q21 154 44 248l51 172h141l-171 -585h-131l-35 128l-41 208l-41 -210l-35 -126h-130l-173 585h142l52 -172q21 -85 43 -248q2 10 6.5 52.5t12 86t20.5 99.5q7 28 26 90t28 92h102z" />
    <glyph glyph-name="Wdieresis" unicode="&#x1e84;" horiz-adv-x="926" 
d="M277 887q0 43 36.5 61.5t73.5 1t37 -62.5q0 -31 -23 -49.5t-50.5 -19.5t-50.5 17.5t-23 51.5zM498 887q0 32 23 51t50.5 19.5t50.5 -18t23 -52.5q0 -31 -23 -49.5t-50.5 -19.5t-50.5 17.5t-23 51.5zM358 0h-145l-204 771h142l76 -266l55 -314l126 555h106l136 -555
l45 314l76 266h142l-193 -771h-146l-113 416z" />
    <glyph glyph-name="wdieresis" unicode="&#x1e85;" horiz-adv-x="774" 
d="M205 711q0 43 36.5 61.5t73.5 1t37 -62.5q0 -31 -23 -49.5t-50.5 -19.5t-50.5 17.5t-23 51.5zM426 711q0 32 23 51t50.5 19.5t50.5 -18t23 -52.5q0 -31 -23 -49.5t-50.5 -19.5t-50.5 17.5t-23 51.5zM440 585l45 -184q25 -98 44 -236q21 154 44 248l51 172h141l-171 -585
h-131l-35 128l-41 208l-41 -210l-35 -126h-130l-173 585h142l52 -172q21 -85 43 -248q2 10 6.5 52.5t12 86t20.5 99.5q7 28 26 90t28 92h102z" />
    <glyph glyph-name="Ygrave" unicode="&#x1ef2;" horiz-adv-x="522" 
d="M122 957h138l57 -136h-119zM525 771l-194 -448v-323h-137v323l-196 448h149l60 -142l56 -165l56 169l57 138h149z" />
    <glyph glyph-name="ygrave" unicode="&#x1ef3;" horiz-adv-x="510" 
d="M117 781h138l57 -136h-119zM498 585l-175 -583h1l-32 -114q-19 -65 -51.5 -95.5t-77 -29.5t-101.5 23l21 101q2 -1 12.5 -3.5t14 -3t12 -1.5t12.5 0t10.5 3t10 6.5t7.5 11t7 16.5l23 83l-177 586h143l53 -177q28 -111 46 -248q22 149 46 248l52 177h143z" />
    <glyph glyph-name="endash" unicode="&#x2013;" horiz-adv-x="613" 
d="M536 282h-459v115h459v-115z" />
    <glyph glyph-name="emdash" unicode="&#x2014;" horiz-adv-x="712" 
d="M635 282h-558v115h558v-115z" />
    <glyph glyph-name="quoteleft" unicode="&#x2018;" horiz-adv-x="293" 
d="M241 772l-46 -191h-136l64 191h118z" />
    <glyph glyph-name="quoteright" unicode="&#x2019;" horiz-adv-x="287" 
d="M107 771h136l-64 -191h-118z" />
    <glyph glyph-name="quotesinglbase" unicode="&#x201a;" horiz-adv-x="196" 
d="M-2 -95q17 12 26.5 23.5t13.5 29t5.5 25t0.5 36t-1 37.5h116q7 -87 -22 -140.5t-98 -79.5z" />
    <glyph glyph-name="quotedblleft" unicode="&#x201c;" horiz-adv-x="441" 
d="M173 581h-128l61 190h110zM346 581h-128l60 190h111z" />
    <glyph glyph-name="quotedblright" unicode="&#x201d;" horiz-adv-x="451" 
d="M106 771h128l-60 -190h-111zM279 771h128l-61 -190h-110z" />
    <glyph glyph-name="quotedblbase" unicode="&#x201e;" horiz-adv-x="353" 
d="M-2 -95q17 12 26.5 23.5t13.5 29t5.5 25t0.5 36t-1 37.5h116q7 -87 -22 -140.5t-98 -79.5zM176 -95q17 12 26.5 23.5t13.5 29t5.5 25t0.5 36t-1 37.5h116q7 -87 -22 -140.5t-98 -79.5z" />
    <glyph glyph-name="dagger" unicode="&#x2020;" horiz-adv-x="515" 
d="M176 624h139v-239h167v-138h-167v-413h-139v413h-150v138h150v239z" />
    <glyph glyph-name="daggerdbl" unicode="&#x2021;" horiz-adv-x="539" 
d="M487 149h-158v-319h-139v319h-159v136h159v99h-159v136h159v249h36h103v-249h158v-136h-158v-99h158v-136z" />
    <glyph glyph-name="bullet" unicode="&#x2022;" horiz-adv-x="393" 
d="M197 229q-46 0 -76 29t-30 75t30 75t76 29q45 0 74.5 -29t29.5 -76q0 -46 -29.5 -74.5t-74.5 -28.5z" />
    <glyph glyph-name="ellipsis" unicode="&#x2026;" horiz-adv-x="722" 
d="M32 72q0 36 24 56.5t53.5 20.5t53.5 -20.5t24 -56.5q0 -35 -24 -55.5t-53.5 -20.5t-53.5 20t-24 56zM273 72q0 48 38.5 67.5t77.5 0t39 -67.5q0 -35 -24 -55.5t-53.5 -20.5t-53.5 20t-24 56zM512 72q0 36 24 56.5t53.5 20.5t53.5 -20.5t24 -56.5q0 -35 -24 -55.5
t-53.5 -20.5t-53.5 20t-24 56z" />
    <glyph glyph-name="perthousand" unicode="&#x2030;" horiz-adv-x="1163" 
d="M581 771l-224 -785l-134 14l223 784zM176 395q-75 0 -110.5 36t-35.5 112v86q0 148 146 148q76 0 112 -36t36 -112v-86q0 -76 -36 -112t-112 -36zM176 502q25 0 34.5 13.5t9.5 42.5v57q0 29 -9.5 42t-34.5 13q-24 0 -33.5 -13t-9.5 -42v-57q0 -29 9.5 -42.5t33.5 -13.5z
M639 0q-75 0 -110.5 36t-35.5 112v86q0 148 146 148q76 0 112 -36t36 -112v-86q0 -76 -36 -112t-112 -36zM983 0q-75 0 -110.5 36t-35.5 112v86q0 148 146 148q76 0 112 -36t36 -112v-86q0 -76 -36 -112t-112 -36zM639 107q25 0 34.5 13.5t9.5 42.5v57q0 29 -9.5 42
t-34.5 13q-24 0 -33.5 -13t-9.5 -42v-57q0 -29 9.5 -42.5t33.5 -13.5zM983 107q25 0 34.5 13.5t9.5 42.5v57q0 29 -9.5 42t-34.5 13q-24 0 -33.5 -13t-9.5 -42v-57q0 -29 9.5 -42.5t33.5 -13.5z" />
    <glyph glyph-name="guilsinglleft" unicode="&#x2039;" horiz-adv-x="378" 
d="M190 557h137l-140 -226l140 -225h-137l-141 226z" />
    <glyph glyph-name="guilsinglright" unicode="&#x203a;" horiz-adv-x="380" 
d="M331 332l-141 -226h-137l140 225l-140 226h137z" />
    <glyph glyph-name="fraction" unicode="&#x2044;" horiz-adv-x="126" 
d="M-170 0l344 771h126l-344 -771h-126z" />
    <glyph glyph-name="Euro" unicode="&#x20ac;" horiz-adv-x="528" 
d="M509 37q-63 -37 -128 -37h-60q-97 0 -162.5 54.5t-65.5 147.5v78h-66v79h66v50h-66v79h66v84q0 84 69 141.5t159 57.5h60q71 0 123 -32l-62 -109q-30 13 -42.5 14.5t-78.5 1.5q-91 0 -91 -91v-67h200v-79h-200v-50h200v-79h-200v-55q0 -40 26.5 -69.5t64.5 -29.5h60
q40 0 69 20z" />
    <glyph glyph-name="trademark" unicode="&#x2122;" horiz-adv-x="531" 
d="M241 774h72l56 -107l50 107h76v-325h-69v111l1 59l-46 -115h-24l-48 114q1 -11 1 -58v-111h-69v325zM214 706h-60v-256h-69v256h-60v67h189v-67z" />
    <glyph glyph-name="i.loclTRK" horiz-adv-x="272" 
d="M67 703q0 44 36.5 62.5t73 0.5t36.5 -63q0 -32 -23 -51t-50 -20t-50 18t-23 53zM208 -1h-137v586h137v-586z" />
    <glyph glyph-name="a.alt" horiz-adv-x="563" 
d="M248 -10q-92 0 -144 55t-52 173v147q0 230 230 230q117 0 173.5 -56t56.5 -174v-365h-115l-10 65q-18 -33 -54.5 -54t-84.5 -21zM372 358q0 59 -19.5 87t-70.5 28t-70.5 -28t-19.5 -87v-133q0 -61 22.5 -87t65.5 -26q48 0 70 34.5t22 90.5v121z" />
    <glyph glyph-name="aacute.alt" horiz-adv-x="563" 
d="M331 645h-119l57 136h138zM248 -10q-92 0 -144 55t-52 173v147q0 230 230 230q117 0 173.5 -56t56.5 -174v-365h-115l-10 65q-18 -33 -54.5 -54t-84.5 -21zM372 358q0 59 -19.5 87t-70.5 28t-70.5 -28t-19.5 -87v-133q0 -61 22.5 -87t65.5 -26q48 0 70 34.5t22 90.5v121z
" />
    <glyph glyph-name="abreve.alt" horiz-adv-x="563" 
d="M239 781q0 -46 43 -46q42 0 42 46h104q-1 -134 -146 -134t-146 134h103zM248 -10q-92 0 -144 55t-52 173v147q0 230 230 230q117 0 173.5 -56t56.5 -174v-365h-115l-10 65q-18 -33 -54.5 -54t-84.5 -21zM372 358q0 59 -19.5 87t-70.5 28t-70.5 -28t-19.5 -87v-133
q0 -61 22.5 -87t65.5 -26q48 0 70 34.5t22 90.5v121z" />
    <glyph glyph-name="acircumflex.alt" horiz-adv-x="563" 
d="M236 645h-127v10l142 129h64l141 -129v-10h-128l-45 45zM248 -10q-92 0 -144 55t-52 173v147q0 230 230 230q117 0 173.5 -56t56.5 -174v-365h-115l-10 65q-18 -33 -54.5 -54t-84.5 -21zM372 358q0 59 -19.5 87t-70.5 28t-70.5 -28t-19.5 -87v-133q0 -61 22.5 -87
t65.5 -26q48 0 70 34.5t22 90.5v121z" />
    <glyph glyph-name="adieresis.alt" horiz-adv-x="563" 
d="M98 711q0 43 36.5 61.5t73.5 1t37 -62.5q0 -31 -23 -49.5t-50.5 -19.5t-50.5 17.5t-23 51.5zM319 711q0 43 36.5 61.5t73.5 1t37 -62.5q0 -31 -23 -49.5t-50.5 -19.5t-50.5 17.5t-23 51.5zM248 -10q-92 0 -144 55t-52 173v147q0 230 230 230q117 0 173.5 -56t56.5 -174
v-365h-115l-10 65q-18 -33 -54.5 -54t-84.5 -21zM372 358q0 59 -19.5 87t-70.5 28t-70.5 -28t-19.5 -87v-133q0 -61 22.5 -87t65.5 -26q48 0 70 34.5t22 90.5v121z" />
    <glyph glyph-name="agrave.alt" horiz-adv-x="563" 
d="M142 781h138l57 -136h-119zM248 -10q-92 0 -144 55t-52 173v147q0 230 230 230q117 0 173.5 -56t56.5 -174v-365h-115l-10 65q-18 -33 -54.5 -54t-84.5 -21zM372 358q0 59 -19.5 87t-70.5 28t-70.5 -28t-19.5 -87v-133q0 -61 22.5 -87t65.5 -26q48 0 70 34.5t22 90.5v121
z" />
    <glyph glyph-name="amacron.alt" horiz-adv-x="563" 
d="M155 769h254v-116h-254v116zM248 -10q-92 0 -144 55t-52 173v147q0 230 230 230q117 0 173.5 -56t56.5 -174v-365h-115l-10 65q-18 -33 -54.5 -54t-84.5 -21zM372 358q0 59 -19.5 87t-70.5 28t-70.5 -28t-19.5 -87v-133q0 -61 22.5 -87t65.5 -26q48 0 70 34.5t22 90.5
v121z" />
    <glyph glyph-name="aogonek.alt" horiz-adv-x="565" 
d="M529 -205q-28 -7 -58 -8t-62.5 5.5t-53 31t-20.5 64.5q0 63 67 112l-15 65q-37 -68 -139 -68q-92 0 -144 55t-52 173v137q0 230 230 230q117 0 173.5 -56t56.5 -174v-362q-57 -36 -56 -78q0 -29 29 -34q9 -1 21 1zM372 355q0 59 -19.5 87t-70.5 28t-70.5 -28t-19.5 -87
v-123q0 -61 22.5 -87t65.5 -26q92 0 92 118v118z" />
    <glyph glyph-name="aring.alt" horiz-adv-x="563" 
d="M161 755q0 55 35.5 86.5t85.5 31.5q52 0 87 -31t35 -86t-35.5 -87t-86.5 -32q-53 0 -87.5 31.5t-33.5 86.5zM282 798q-27 0 -38 -21.5t0 -43t38 -21.5q29 0 40 21.5t-1 43t-39 21.5zM248 -10q-92 0 -144 55t-52 173v147q0 230 230 230q117 0 173.5 -56t56.5 -174v-365
h-115l-10 65q-18 -33 -54.5 -54t-84.5 -21zM372 358q0 59 -19.5 87t-70.5 28t-70.5 -28t-19.5 -87v-133q0 -61 22.5 -87t65.5 -26q48 0 70 34.5t22 90.5v121z" />
    <glyph glyph-name="aringacute.alt" horiz-adv-x="563" 
d="M405 914l-66 -91h-103v3l44 88h125zM177 709q0 -45 31.5 -71t79.5 -26q46 0 78.5 26.5t32.5 71.5q0 44 -33 69t-78 25q-46 0 -78.5 -24.5t-32.5 -68.5v-2zM287 738q22 0 31 -15t0.5 -29.5t-31.5 -14.5q-22 0 -31 14.5t0 29.5t31 15zM248 -10q-92 0 -144 55t-52 173v147
q0 230 230 230q117 0 173.5 -56t56.5 -174v-365h-115l-10 65q-18 -33 -54.5 -54t-84.5 -21zM372 358q0 59 -19.5 87t-70.5 28t-70.5 -28t-19.5 -87v-133q0 -61 22.5 -87t65.5 -26q48 0 70 34.5t22 90.5v121z" />
    <glyph glyph-name="atilde.alt" horiz-adv-x="563" 
d="M117 701q16 52 59 78.5t92 4.5l49 -24q30 -14 46 26l84 -35q-14 -56 -52.5 -86.5t-92.5 -8.5l-54 26q-7 8 -24 3t-26 -26zM248 -10q-92 0 -144 55t-52 173v147q0 230 230 230q117 0 173.5 -56t56.5 -174v-365h-115l-10 65q-18 -33 -54.5 -54t-84.5 -21zM372 358
q0 59 -19.5 87t-70.5 28t-70.5 -28t-19.5 -87v-133q0 -61 22.5 -87t65.5 -26q48 0 70 34.5t22 90.5v121z" />
    <glyph glyph-name="g.alt" horiz-adv-x="584" 
d="M578 472q-50 -10 -81 -32q7 -38 7 -75v-68q0 -105 -40 -153q54 -48 56 -127q1 -29 -3 -56t-19.5 -57.5t-41.5 -52.5t-73.5 -37t-111.5 -15q-77 0 -136 34t-96 87l78 93q70 -84 157 -84q55 0 80.5 21.5t23.5 66.5q-1 22 -24 57q-32 -7 -79 -7q-117 0 -173 55.5t-56 174.5
v68q0 116 56.5 173t172.5 57q95 0 150 -37q49 38 125 45zM275 189q51 0 71 28.5t20 86.5v54q0 58 -20 86.5t-71 28.5t-71 -28.5t-20 -86.5v-54q0 -58 20 -86.5t71 -28.5z" />
    <glyph glyph-name="gbreve.alt" horiz-adv-x="584" 
d="M257 781q0 -46 43 -46q42 0 42 46h104q-1 -134 -146 -134t-146 134h103zM578 472q-50 -10 -81 -32q7 -38 7 -75v-68q0 -105 -40 -153q54 -48 56 -127q1 -29 -3 -56t-19.5 -57.5t-41.5 -52.5t-73.5 -37t-111.5 -15q-77 0 -136 34t-96 87l78 93q70 -84 157 -84
q55 0 80.5 21.5t23.5 66.5q-1 22 -24 57q-32 -7 -79 -7q-117 0 -173 55.5t-56 174.5v68q0 116 56.5 173t172.5 57q95 0 150 -37q49 38 125 45zM275 189q51 0 71 28.5t20 86.5v54q0 58 -20 86.5t-71 28.5t-71 -28.5t-20 -86.5v-54q0 -58 20 -86.5t71 -28.5z" />
    <glyph glyph-name="gcircumflex.alt" horiz-adv-x="585" 
d="M236 637h-127v10l142 129h64l141 -129v-10h-128l-45 45zM578 468q-50 -10 -81 -32q7 -39 7 -75v-64q0 -105 -40 -153q54 -48 56 -127q1 -29 -3 -56t-19.5 -57.5t-41.5 -52.5t-73.5 -37t-111.5 -15q-77 0 -136 34t-96 87l78 93q70 -84 157 -84q55 0 80.5 21.5t23.5 66.5
q-1 22 -24 57q-32 -7 -79 -7q-117 0 -173 55.5t-56 174.5v64q0 116 56.5 173t172.5 57q95 0 150 -37q49 38 125 45zM275 189q51 0 71 28.5t20 86.5v50q0 58 -20 86.5t-71 28.5t-71 -28.5t-20 -86.5v-50q0 -58 20 -86.5t71 -28.5z" />
    <glyph glyph-name="uni0123.alt" horiz-adv-x="585" 
d="M399 775q-10 -9 -18 -17.5t-13 -14.5t-8.5 -16t-5.5 -13.5t-3 -16.5t-1 -16v-19.5v-20.5h-134q0 74 26.5 118.5t87.5 61.5zM578 472q-50 -10 -81 -32q7 -38 7 -75v-68q0 -105 -40 -153q54 -48 56 -127q1 -29 -3 -56t-19.5 -57.5t-41.5 -52.5t-73.5 -37t-111.5 -15
q-77 0 -136 34t-96 87l78 93q70 -84 157 -84q55 0 80.5 21.5t23.5 66.5q-1 22 -24 57q-32 -7 -79 -7q-117 0 -173 55.5t-56 174.5v68q0 116 56.5 173t172.5 57q95 0 150 -37q49 38 125 45zM275 189q51 0 71 28.5t20 86.5v54q0 58 -20 86.5t-71 28.5t-71 -28.5t-20 -86.5v-54
q0 -58 20 -86.5t71 -28.5z" />
    <glyph glyph-name="gdotaccent.alt" horiz-adv-x="584" 
d="M227 713q0 44 36.5 62.5t73 0.5t36.5 -63q0 -32 -23 -51t-50 -20t-50 18t-23 53zM578 472q-50 -10 -81 -32q7 -38 7 -75v-68q0 -105 -40 -153q54 -48 56 -127q1 -29 -3 -56t-19.5 -57.5t-41.5 -52.5t-73.5 -37t-111.5 -15q-77 0 -136 34t-96 87l78 93q70 -84 157 -84
q55 0 80.5 21.5t23.5 66.5q-1 22 -24 57q-32 -7 -79 -7q-117 0 -173 55.5t-56 174.5v68q0 116 56.5 173t172.5 57q95 0 150 -37q49 38 125 45zM275 189q51 0 71 28.5t20 86.5v54q0 58 -20 86.5t-71 28.5t-71 -28.5t-20 -86.5v-54q0 -58 20 -86.5t71 -28.5z" />
    <glyph glyph-name="y.alt" horiz-adv-x="549" 
d="M187 585v-357q0 -61 21 -89t64 -28q50 0 71 30t21 90v354h135v-600q0 -226 -223 -226q-213 0 -213 187h131q0 -70 82 -70q52 0 73.5 26.5t21.5 83.5v64q-39 -60 -125 -60q-94 0 -145 54.5t-51 166.5v374h137z" />
    <glyph glyph-name="yacute.alt" horiz-adv-x="549" 
d="M325 635h-119l57 136h138zM187 585v-357q0 -61 21 -89t64 -28q50 0 71 30t21 90v354h135v-600q0 -226 -223 -226q-213 0 -213 187h131q0 -70 82 -70q52 0 73.5 26.5t21.5 83.5v64q-39 -60 -125 -60q-94 0 -145 54.5t-51 166.5v374h137z" />
    <glyph glyph-name="ycircumflex.alt" horiz-adv-x="549" 
d="M230 635h-127v10l142 129h64l141 -129v-10h-128l-45 45zM187 585v-357q0 -61 21 -89t64 -28q50 0 71 30t21 90v354h135v-600q0 -226 -223 -226q-213 0 -213 187h131q0 -70 82 -70q52 0 73.5 26.5t21.5 83.5v64q-39 -60 -125 -60q-94 0 -145 54.5t-51 166.5v374h137z" />
    <glyph glyph-name="ydieresis.alt" horiz-adv-x="549" 
d="M92 701q0 43 36.5 61.5t73.5 1t37 -62.5q0 -31 -23 -49.5t-50.5 -19.5t-50.5 17.5t-23 51.5zM313 701q0 43 36.5 61.5t73.5 1t37 -62.5q0 -31 -23 -49.5t-50.5 -19.5t-50.5 17.5t-23 51.5zM187 585v-357q0 -61 21 -89t64 -28q50 0 71 30t21 90v354h135v-600
q0 -226 -223 -226q-213 0 -213 187h131q0 -70 82 -70q52 0 73.5 26.5t21.5 83.5v64q-39 -60 -125 -60q-94 0 -145 54.5t-51 166.5v374h137z" />
    <glyph glyph-name="ygrave.alt" horiz-adv-x="549" 
d="M136 771h138l57 -136h-119zM187 585v-357q0 -61 21 -89t64 -28q50 0 71 30t21 90v354h135v-600q0 -226 -223 -226q-213 0 -213 187h131q0 -70 82 -70q52 0 73.5 26.5t21.5 83.5v64q-39 -60 -125 -60q-94 0 -145 54.5t-51 166.5v374h137z" />
    <glyph glyph-name="_0004" horiz-adv-x="0" 
 />
    <glyph glyph-name="_127" horiz-adv-x="500" 
 />
    <glyph glyph-name="_129" horiz-adv-x="500" 
 />
    <glyph glyph-name="_141" horiz-adv-x="500" 
 />
    <glyph glyph-name="null" horiz-adv-x="0" 
 />
    </font>
</defs>
</svg>
